G04 #@! TF.GenerationSoftware,KiCad,Pcbnew,(5.1.5)-3*
G04 #@! TF.CreationDate,2020-04-17T22:42:38-05:00*
G04 #@! TF.ProjectId,Breadboard-Power-Connectors,42726561-6462-46f6-9172-642d506f7765,rev?*
G04 #@! TF.SameCoordinates,Original*
G04 #@! TF.FileFunction,Soldermask,Top*
G04 #@! TF.FilePolarity,Negative*
%FSLAX46Y46*%
G04 Gerber Fmt 4.6, Leading zero omitted, Abs format (unit mm)*
G04 Created by KiCad (PCBNEW (5.1.5)-3) date 2020-04-17 22:42:38*
%MOMM*%
%LPD*%
G04 APERTURE LIST*
%ADD10C,0.100000*%
G04 APERTURE END LIST*
D10*
G36*
X190865246Y-91734307D02*
G01*
X190981579Y-91757447D01*
X191282042Y-91881903D01*
X191552451Y-92062585D01*
X191782415Y-92292549D01*
X191782416Y-92292551D01*
X191963098Y-92562960D01*
X191979087Y-92601561D01*
X192068921Y-92818439D01*
X192087553Y-92863422D01*
X192151000Y-93182389D01*
X192151000Y-93507611D01*
X192115577Y-93685693D01*
X192087553Y-93826579D01*
X191963097Y-94127042D01*
X191782415Y-94397451D01*
X191552451Y-94627415D01*
X191282042Y-94808097D01*
X190981579Y-94932553D01*
X190875256Y-94953702D01*
X190662611Y-94996000D01*
X190337389Y-94996000D01*
X190124744Y-94953702D01*
X190018421Y-94932553D01*
X189717958Y-94808097D01*
X189447549Y-94627415D01*
X189217585Y-94397451D01*
X189036903Y-94127042D01*
X188912447Y-93826579D01*
X188884423Y-93685693D01*
X188849000Y-93507611D01*
X188849000Y-93182389D01*
X188912447Y-92863422D01*
X188931080Y-92818439D01*
X189020913Y-92601561D01*
X189036902Y-92562960D01*
X189217584Y-92292551D01*
X189217585Y-92292549D01*
X189447549Y-92062585D01*
X189717958Y-91881903D01*
X190018421Y-91757447D01*
X190134754Y-91734307D01*
X190337389Y-91694000D01*
X190662611Y-91694000D01*
X190865246Y-91734307D01*
G37*
G36*
X101965246Y-91734307D02*
G01*
X102081579Y-91757447D01*
X102382042Y-91881903D01*
X102652451Y-92062585D01*
X102882415Y-92292549D01*
X102882416Y-92292551D01*
X103063098Y-92562960D01*
X103079087Y-92601561D01*
X103168921Y-92818439D01*
X103187553Y-92863422D01*
X103251000Y-93182389D01*
X103251000Y-93507611D01*
X103215577Y-93685693D01*
X103187553Y-93826579D01*
X103063097Y-94127042D01*
X102882415Y-94397451D01*
X102652451Y-94627415D01*
X102382042Y-94808097D01*
X102081579Y-94932553D01*
X101975256Y-94953702D01*
X101762611Y-94996000D01*
X101437389Y-94996000D01*
X101224744Y-94953702D01*
X101118421Y-94932553D01*
X100817958Y-94808097D01*
X100547549Y-94627415D01*
X100317585Y-94397451D01*
X100136903Y-94127042D01*
X100012447Y-93826579D01*
X99984423Y-93685693D01*
X99949000Y-93507611D01*
X99949000Y-93182389D01*
X100012447Y-92863422D01*
X100031080Y-92818439D01*
X100120913Y-92601561D01*
X100136902Y-92562960D01*
X100317584Y-92292551D01*
X100317585Y-92292549D01*
X100547549Y-92062585D01*
X100817958Y-91881903D01*
X101118421Y-91757447D01*
X101234754Y-91734307D01*
X101437389Y-91694000D01*
X101762611Y-91694000D01*
X101965246Y-91734307D01*
G37*
G36*
X146415246Y-91734307D02*
G01*
X146531579Y-91757447D01*
X146832042Y-91881903D01*
X147102451Y-92062585D01*
X147332415Y-92292549D01*
X147332416Y-92292551D01*
X147513098Y-92562960D01*
X147529087Y-92601561D01*
X147618921Y-92818439D01*
X147637553Y-92863422D01*
X147701000Y-93182389D01*
X147701000Y-93507611D01*
X147665577Y-93685693D01*
X147637553Y-93826579D01*
X147513097Y-94127042D01*
X147332415Y-94397451D01*
X147102451Y-94627415D01*
X146832042Y-94808097D01*
X146531579Y-94932553D01*
X146425256Y-94953702D01*
X146212611Y-94996000D01*
X145887389Y-94996000D01*
X145674744Y-94953702D01*
X145568421Y-94932553D01*
X145267958Y-94808097D01*
X144997549Y-94627415D01*
X144767585Y-94397451D01*
X144586903Y-94127042D01*
X144462447Y-93826579D01*
X144434423Y-93685693D01*
X144399000Y-93507611D01*
X144399000Y-93182389D01*
X144462447Y-92863422D01*
X144481080Y-92818439D01*
X144570913Y-92601561D01*
X144586902Y-92562960D01*
X144767584Y-92292551D01*
X144767585Y-92292549D01*
X144997549Y-92062585D01*
X145267958Y-91881903D01*
X145568421Y-91757447D01*
X145684754Y-91734307D01*
X145887389Y-91694000D01*
X146212611Y-91694000D01*
X146415246Y-91734307D01*
G37*
G36*
X137374794Y-91630155D02*
G01*
X137481150Y-91651311D01*
X137581334Y-91692809D01*
X137681520Y-91734307D01*
X137861844Y-91854795D01*
X138015205Y-92008156D01*
X138135693Y-92188480D01*
X138218689Y-92388851D01*
X138261000Y-92601560D01*
X138261000Y-92818440D01*
X138218689Y-93031149D01*
X138135693Y-93231520D01*
X138015205Y-93411844D01*
X137861844Y-93565205D01*
X137681520Y-93685693D01*
X137481150Y-93768689D01*
X137374795Y-93789844D01*
X137268440Y-93811000D01*
X137051560Y-93811000D01*
X136945205Y-93789844D01*
X136838850Y-93768689D01*
X136738666Y-93727191D01*
X136638480Y-93685693D01*
X136458156Y-93565205D01*
X136304795Y-93411844D01*
X136184307Y-93231520D01*
X136101311Y-93031149D01*
X136059000Y-92818440D01*
X136059000Y-92601560D01*
X136101311Y-92388851D01*
X136184307Y-92188480D01*
X136304795Y-92008156D01*
X136458156Y-91854795D01*
X136638480Y-91734307D01*
X136738666Y-91692809D01*
X136838850Y-91651311D01*
X136945206Y-91630155D01*
X137051560Y-91609000D01*
X137268440Y-91609000D01*
X137374794Y-91630155D01*
G37*
G36*
X162774794Y-91630155D02*
G01*
X162881150Y-91651311D01*
X162981334Y-91692809D01*
X163081520Y-91734307D01*
X163261844Y-91854795D01*
X163415205Y-92008156D01*
X163535693Y-92188480D01*
X163618689Y-92388851D01*
X163661000Y-92601560D01*
X163661000Y-92818440D01*
X163618689Y-93031149D01*
X163535693Y-93231520D01*
X163415205Y-93411844D01*
X163261844Y-93565205D01*
X163081520Y-93685693D01*
X162881150Y-93768689D01*
X162774795Y-93789844D01*
X162668440Y-93811000D01*
X162451560Y-93811000D01*
X162345205Y-93789844D01*
X162238850Y-93768689D01*
X162138666Y-93727191D01*
X162038480Y-93685693D01*
X161858156Y-93565205D01*
X161704795Y-93411844D01*
X161584307Y-93231520D01*
X161501311Y-93031149D01*
X161459000Y-92818440D01*
X161459000Y-92601560D01*
X161501311Y-92388851D01*
X161584307Y-92188480D01*
X161704795Y-92008156D01*
X161858156Y-91854795D01*
X162038480Y-91734307D01*
X162138666Y-91692809D01*
X162238850Y-91651311D01*
X162345206Y-91630155D01*
X162451560Y-91609000D01*
X162668440Y-91609000D01*
X162774794Y-91630155D01*
G37*
G36*
X160234794Y-91630155D02*
G01*
X160341150Y-91651311D01*
X160441334Y-91692809D01*
X160541520Y-91734307D01*
X160721844Y-91854795D01*
X160875205Y-92008156D01*
X160995693Y-92188480D01*
X161078689Y-92388851D01*
X161121000Y-92601560D01*
X161121000Y-92818440D01*
X161078689Y-93031149D01*
X160995693Y-93231520D01*
X160875205Y-93411844D01*
X160721844Y-93565205D01*
X160541520Y-93685693D01*
X160341150Y-93768689D01*
X160234795Y-93789844D01*
X160128440Y-93811000D01*
X159911560Y-93811000D01*
X159805205Y-93789844D01*
X159698850Y-93768689D01*
X159598666Y-93727191D01*
X159498480Y-93685693D01*
X159318156Y-93565205D01*
X159164795Y-93411844D01*
X159044307Y-93231520D01*
X158961311Y-93031149D01*
X158919000Y-92818440D01*
X158919000Y-92601560D01*
X158961311Y-92388851D01*
X159044307Y-92188480D01*
X159164795Y-92008156D01*
X159318156Y-91854795D01*
X159498480Y-91734307D01*
X159598666Y-91692809D01*
X159698850Y-91651311D01*
X159805206Y-91630155D01*
X159911560Y-91609000D01*
X160128440Y-91609000D01*
X160234794Y-91630155D01*
G37*
G36*
X157694794Y-91630155D02*
G01*
X157801150Y-91651311D01*
X157901334Y-91692809D01*
X158001520Y-91734307D01*
X158181844Y-91854795D01*
X158335205Y-92008156D01*
X158455693Y-92188480D01*
X158538689Y-92388851D01*
X158581000Y-92601560D01*
X158581000Y-92818440D01*
X158538689Y-93031149D01*
X158455693Y-93231520D01*
X158335205Y-93411844D01*
X158181844Y-93565205D01*
X158001520Y-93685693D01*
X157801150Y-93768689D01*
X157694795Y-93789844D01*
X157588440Y-93811000D01*
X157371560Y-93811000D01*
X157265205Y-93789844D01*
X157158850Y-93768689D01*
X157058666Y-93727191D01*
X156958480Y-93685693D01*
X156778156Y-93565205D01*
X156624795Y-93411844D01*
X156504307Y-93231520D01*
X156421311Y-93031149D01*
X156379000Y-92818440D01*
X156379000Y-92601560D01*
X156421311Y-92388851D01*
X156504307Y-92188480D01*
X156624795Y-92008156D01*
X156778156Y-91854795D01*
X156958480Y-91734307D01*
X157058666Y-91692809D01*
X157158850Y-91651311D01*
X157265206Y-91630155D01*
X157371560Y-91609000D01*
X157588440Y-91609000D01*
X157694794Y-91630155D01*
G37*
G36*
X156041000Y-93811000D02*
G01*
X153839000Y-93811000D01*
X153839000Y-91609000D01*
X156041000Y-91609000D01*
X156041000Y-93811000D01*
G37*
G36*
X130641000Y-93811000D02*
G01*
X128439000Y-93811000D01*
X128439000Y-91609000D01*
X130641000Y-91609000D01*
X130641000Y-93811000D01*
G37*
G36*
X132294794Y-91630155D02*
G01*
X132401150Y-91651311D01*
X132501334Y-91692809D01*
X132601520Y-91734307D01*
X132781844Y-91854795D01*
X132935205Y-92008156D01*
X133055693Y-92188480D01*
X133138689Y-92388851D01*
X133181000Y-92601560D01*
X133181000Y-92818440D01*
X133138689Y-93031149D01*
X133055693Y-93231520D01*
X132935205Y-93411844D01*
X132781844Y-93565205D01*
X132601520Y-93685693D01*
X132401150Y-93768689D01*
X132294795Y-93789844D01*
X132188440Y-93811000D01*
X131971560Y-93811000D01*
X131865205Y-93789844D01*
X131758850Y-93768689D01*
X131658666Y-93727191D01*
X131558480Y-93685693D01*
X131378156Y-93565205D01*
X131224795Y-93411844D01*
X131104307Y-93231520D01*
X131021311Y-93031149D01*
X130979000Y-92818440D01*
X130979000Y-92601560D01*
X131021311Y-92388851D01*
X131104307Y-92188480D01*
X131224795Y-92008156D01*
X131378156Y-91854795D01*
X131558480Y-91734307D01*
X131658666Y-91692809D01*
X131758850Y-91651311D01*
X131865206Y-91630155D01*
X131971560Y-91609000D01*
X132188440Y-91609000D01*
X132294794Y-91630155D01*
G37*
G36*
X134834794Y-91630155D02*
G01*
X134941150Y-91651311D01*
X135041334Y-91692809D01*
X135141520Y-91734307D01*
X135321844Y-91854795D01*
X135475205Y-92008156D01*
X135595693Y-92188480D01*
X135678689Y-92388851D01*
X135721000Y-92601560D01*
X135721000Y-92818440D01*
X135678689Y-93031149D01*
X135595693Y-93231520D01*
X135475205Y-93411844D01*
X135321844Y-93565205D01*
X135141520Y-93685693D01*
X134941150Y-93768689D01*
X134834795Y-93789844D01*
X134728440Y-93811000D01*
X134511560Y-93811000D01*
X134405205Y-93789844D01*
X134298850Y-93768689D01*
X134198666Y-93727191D01*
X134098480Y-93685693D01*
X133918156Y-93565205D01*
X133764795Y-93411844D01*
X133644307Y-93231520D01*
X133561311Y-93031149D01*
X133519000Y-92818440D01*
X133519000Y-92601560D01*
X133561311Y-92388851D01*
X133644307Y-92188480D01*
X133764795Y-92008156D01*
X133918156Y-91854795D01*
X134098480Y-91734307D01*
X134198666Y-91692809D01*
X134298850Y-91651311D01*
X134405206Y-91630155D01*
X134511560Y-91609000D01*
X134728440Y-91609000D01*
X134834794Y-91630155D01*
G37*
G36*
X118324794Y-91630155D02*
G01*
X118431150Y-91651311D01*
X118531334Y-91692809D01*
X118631520Y-91734307D01*
X118811844Y-91854795D01*
X118965205Y-92008156D01*
X119085693Y-92188480D01*
X119168689Y-92388851D01*
X119211000Y-92601560D01*
X119211000Y-92818440D01*
X119168689Y-93031149D01*
X119085693Y-93231520D01*
X118965205Y-93411844D01*
X118811844Y-93565205D01*
X118631520Y-93685693D01*
X118431150Y-93768689D01*
X118324795Y-93789844D01*
X118218440Y-93811000D01*
X118001560Y-93811000D01*
X117895205Y-93789844D01*
X117788850Y-93768689D01*
X117688666Y-93727191D01*
X117588480Y-93685693D01*
X117408156Y-93565205D01*
X117254795Y-93411844D01*
X117134307Y-93231520D01*
X117051311Y-93031149D01*
X117009000Y-92818440D01*
X117009000Y-92601560D01*
X117051311Y-92388851D01*
X117134307Y-92188480D01*
X117254795Y-92008156D01*
X117408156Y-91854795D01*
X117588480Y-91734307D01*
X117688666Y-91692809D01*
X117788850Y-91651311D01*
X117895206Y-91630155D01*
X118001560Y-91609000D01*
X118218440Y-91609000D01*
X118324794Y-91630155D01*
G37*
G36*
X113244794Y-91630155D02*
G01*
X113351150Y-91651311D01*
X113451334Y-91692809D01*
X113551520Y-91734307D01*
X113731844Y-91854795D01*
X113885205Y-92008156D01*
X114005693Y-92188480D01*
X114088689Y-92388851D01*
X114131000Y-92601560D01*
X114131000Y-92818440D01*
X114088689Y-93031149D01*
X114005693Y-93231520D01*
X113885205Y-93411844D01*
X113731844Y-93565205D01*
X113551520Y-93685693D01*
X113351150Y-93768689D01*
X113244795Y-93789844D01*
X113138440Y-93811000D01*
X112921560Y-93811000D01*
X112815205Y-93789844D01*
X112708850Y-93768689D01*
X112608666Y-93727191D01*
X112508480Y-93685693D01*
X112328156Y-93565205D01*
X112174795Y-93411844D01*
X112054307Y-93231520D01*
X111971311Y-93031149D01*
X111929000Y-92818440D01*
X111929000Y-92601560D01*
X111971311Y-92388851D01*
X112054307Y-92188480D01*
X112174795Y-92008156D01*
X112328156Y-91854795D01*
X112508480Y-91734307D01*
X112608666Y-91692809D01*
X112708850Y-91651311D01*
X112815206Y-91630155D01*
X112921560Y-91609000D01*
X113138440Y-91609000D01*
X113244794Y-91630155D01*
G37*
G36*
X111591000Y-93811000D02*
G01*
X109389000Y-93811000D01*
X109389000Y-91609000D01*
X111591000Y-91609000D01*
X111591000Y-93811000D01*
G37*
G36*
X175091000Y-93811000D02*
G01*
X172889000Y-93811000D01*
X172889000Y-91609000D01*
X175091000Y-91609000D01*
X175091000Y-93811000D01*
G37*
G36*
X176744794Y-91630155D02*
G01*
X176851150Y-91651311D01*
X176951334Y-91692809D01*
X177051520Y-91734307D01*
X177231844Y-91854795D01*
X177385205Y-92008156D01*
X177505693Y-92188480D01*
X177588689Y-92388851D01*
X177631000Y-92601560D01*
X177631000Y-92818440D01*
X177588689Y-93031149D01*
X177505693Y-93231520D01*
X177385205Y-93411844D01*
X177231844Y-93565205D01*
X177051520Y-93685693D01*
X176851150Y-93768689D01*
X176744795Y-93789844D01*
X176638440Y-93811000D01*
X176421560Y-93811000D01*
X176315205Y-93789844D01*
X176208850Y-93768689D01*
X176108666Y-93727191D01*
X176008480Y-93685693D01*
X175828156Y-93565205D01*
X175674795Y-93411844D01*
X175554307Y-93231520D01*
X175471311Y-93031149D01*
X175429000Y-92818440D01*
X175429000Y-92601560D01*
X175471311Y-92388851D01*
X175554307Y-92188480D01*
X175674795Y-92008156D01*
X175828156Y-91854795D01*
X176008480Y-91734307D01*
X176108666Y-91692809D01*
X176208850Y-91651311D01*
X176315206Y-91630155D01*
X176421560Y-91609000D01*
X176638440Y-91609000D01*
X176744794Y-91630155D01*
G37*
G36*
X181824794Y-91630155D02*
G01*
X181931150Y-91651311D01*
X182031334Y-91692809D01*
X182131520Y-91734307D01*
X182311844Y-91854795D01*
X182465205Y-92008156D01*
X182585693Y-92188480D01*
X182668689Y-92388851D01*
X182711000Y-92601560D01*
X182711000Y-92818440D01*
X182668689Y-93031149D01*
X182585693Y-93231520D01*
X182465205Y-93411844D01*
X182311844Y-93565205D01*
X182131520Y-93685693D01*
X181931150Y-93768689D01*
X181824795Y-93789844D01*
X181718440Y-93811000D01*
X181501560Y-93811000D01*
X181395205Y-93789844D01*
X181288850Y-93768689D01*
X181188666Y-93727191D01*
X181088480Y-93685693D01*
X180908156Y-93565205D01*
X180754795Y-93411844D01*
X180634307Y-93231520D01*
X180551311Y-93031149D01*
X180509000Y-92818440D01*
X180509000Y-92601560D01*
X180551311Y-92388851D01*
X180634307Y-92188480D01*
X180754795Y-92008156D01*
X180908156Y-91854795D01*
X181088480Y-91734307D01*
X181188666Y-91692809D01*
X181288850Y-91651311D01*
X181395206Y-91630155D01*
X181501560Y-91609000D01*
X181718440Y-91609000D01*
X181824794Y-91630155D01*
G37*
G36*
X179284794Y-91630155D02*
G01*
X179391150Y-91651311D01*
X179491334Y-91692809D01*
X179591520Y-91734307D01*
X179771844Y-91854795D01*
X179925205Y-92008156D01*
X180045693Y-92188480D01*
X180128689Y-92388851D01*
X180171000Y-92601560D01*
X180171000Y-92818440D01*
X180128689Y-93031149D01*
X180045693Y-93231520D01*
X179925205Y-93411844D01*
X179771844Y-93565205D01*
X179591520Y-93685693D01*
X179391150Y-93768689D01*
X179284795Y-93789844D01*
X179178440Y-93811000D01*
X178961560Y-93811000D01*
X178855205Y-93789844D01*
X178748850Y-93768689D01*
X178648666Y-93727191D01*
X178548480Y-93685693D01*
X178368156Y-93565205D01*
X178214795Y-93411844D01*
X178094307Y-93231520D01*
X178011311Y-93031149D01*
X177969000Y-92818440D01*
X177969000Y-92601560D01*
X178011311Y-92388851D01*
X178094307Y-92188480D01*
X178214795Y-92008156D01*
X178368156Y-91854795D01*
X178548480Y-91734307D01*
X178648666Y-91692809D01*
X178748850Y-91651311D01*
X178855206Y-91630155D01*
X178961560Y-91609000D01*
X179178440Y-91609000D01*
X179284794Y-91630155D01*
G37*
G36*
X115784794Y-91630155D02*
G01*
X115891150Y-91651311D01*
X115991334Y-91692809D01*
X116091520Y-91734307D01*
X116271844Y-91854795D01*
X116425205Y-92008156D01*
X116545693Y-92188480D01*
X116628689Y-92388851D01*
X116671000Y-92601560D01*
X116671000Y-92818440D01*
X116628689Y-93031149D01*
X116545693Y-93231520D01*
X116425205Y-93411844D01*
X116271844Y-93565205D01*
X116091520Y-93685693D01*
X115891150Y-93768689D01*
X115784795Y-93789844D01*
X115678440Y-93811000D01*
X115461560Y-93811000D01*
X115355205Y-93789844D01*
X115248850Y-93768689D01*
X115148666Y-93727191D01*
X115048480Y-93685693D01*
X114868156Y-93565205D01*
X114714795Y-93411844D01*
X114594307Y-93231520D01*
X114511311Y-93031149D01*
X114469000Y-92818440D01*
X114469000Y-92601560D01*
X114511311Y-92388851D01*
X114594307Y-92188480D01*
X114714795Y-92008156D01*
X114868156Y-91854795D01*
X115048480Y-91734307D01*
X115148666Y-91692809D01*
X115248850Y-91651311D01*
X115355206Y-91630155D01*
X115461560Y-91609000D01*
X115678440Y-91609000D01*
X115784794Y-91630155D01*
G37*
G36*
X112154072Y-83790918D02*
G01*
X112399939Y-83892759D01*
X112511328Y-83967187D01*
X112621211Y-84040609D01*
X112809391Y-84228789D01*
X112957242Y-84450063D01*
X113059082Y-84695928D01*
X113111000Y-84956937D01*
X113111000Y-85223063D01*
X113059082Y-85484072D01*
X112957242Y-85729937D01*
X112851986Y-85887464D01*
X112809390Y-85951212D01*
X112621212Y-86139390D01*
X112399939Y-86287241D01*
X112399938Y-86287242D01*
X112399937Y-86287242D01*
X112154072Y-86389082D01*
X111893063Y-86441000D01*
X111626937Y-86441000D01*
X111365928Y-86389082D01*
X111120063Y-86287242D01*
X111120062Y-86287242D01*
X111120061Y-86287241D01*
X110898788Y-86139390D01*
X110710610Y-85951212D01*
X110668015Y-85887464D01*
X110562758Y-85729937D01*
X110460918Y-85484072D01*
X110409000Y-85223063D01*
X110409000Y-84956937D01*
X110460918Y-84695928D01*
X110562758Y-84450063D01*
X110710609Y-84228789D01*
X110898789Y-84040609D01*
X111008672Y-83967187D01*
X111120061Y-83892759D01*
X111365928Y-83790918D01*
X111626937Y-83739000D01*
X111893063Y-83739000D01*
X112154072Y-83790918D01*
G37*
G36*
X175654072Y-83790918D02*
G01*
X175899939Y-83892759D01*
X176011328Y-83967187D01*
X176121211Y-84040609D01*
X176309391Y-84228789D01*
X176457242Y-84450063D01*
X176559082Y-84695928D01*
X176611000Y-84956937D01*
X176611000Y-85223063D01*
X176559082Y-85484072D01*
X176457242Y-85729937D01*
X176351986Y-85887464D01*
X176309390Y-85951212D01*
X176121212Y-86139390D01*
X175899939Y-86287241D01*
X175899938Y-86287242D01*
X175899937Y-86287242D01*
X175654072Y-86389082D01*
X175393063Y-86441000D01*
X175126937Y-86441000D01*
X174865928Y-86389082D01*
X174620063Y-86287242D01*
X174620062Y-86287242D01*
X174620061Y-86287241D01*
X174398788Y-86139390D01*
X174210610Y-85951212D01*
X174168015Y-85887464D01*
X174062758Y-85729937D01*
X173960918Y-85484072D01*
X173909000Y-85223063D01*
X173909000Y-84956937D01*
X173960918Y-84695928D01*
X174062758Y-84450063D01*
X174210609Y-84228789D01*
X174398789Y-84040609D01*
X174508672Y-83967187D01*
X174620061Y-83892759D01*
X174865928Y-83790918D01*
X175126937Y-83739000D01*
X175393063Y-83739000D01*
X175654072Y-83790918D01*
G37*
G36*
X180734072Y-83790918D02*
G01*
X180979939Y-83892759D01*
X181091328Y-83967187D01*
X181201211Y-84040609D01*
X181389391Y-84228789D01*
X181537242Y-84450063D01*
X181639082Y-84695928D01*
X181691000Y-84956937D01*
X181691000Y-85223063D01*
X181639082Y-85484072D01*
X181537242Y-85729937D01*
X181431986Y-85887464D01*
X181389390Y-85951212D01*
X181201212Y-86139390D01*
X180979939Y-86287241D01*
X180979938Y-86287242D01*
X180979937Y-86287242D01*
X180734072Y-86389082D01*
X180473063Y-86441000D01*
X180206937Y-86441000D01*
X179945928Y-86389082D01*
X179700063Y-86287242D01*
X179700062Y-86287242D01*
X179700061Y-86287241D01*
X179478788Y-86139390D01*
X179290610Y-85951212D01*
X179248015Y-85887464D01*
X179142758Y-85729937D01*
X179040918Y-85484072D01*
X178989000Y-85223063D01*
X178989000Y-84956937D01*
X179040918Y-84695928D01*
X179142758Y-84450063D01*
X179290609Y-84228789D01*
X179478789Y-84040609D01*
X179588672Y-83967187D01*
X179700061Y-83892759D01*
X179945928Y-83790918D01*
X180206937Y-83739000D01*
X180473063Y-83739000D01*
X180734072Y-83790918D01*
G37*
G36*
X117234072Y-83790918D02*
G01*
X117479939Y-83892759D01*
X117591328Y-83967187D01*
X117701211Y-84040609D01*
X117889391Y-84228789D01*
X118037242Y-84450063D01*
X118139082Y-84695928D01*
X118191000Y-84956937D01*
X118191000Y-85223063D01*
X118139082Y-85484072D01*
X118037242Y-85729937D01*
X117931986Y-85887464D01*
X117889390Y-85951212D01*
X117701212Y-86139390D01*
X117479939Y-86287241D01*
X117479938Y-86287242D01*
X117479937Y-86287242D01*
X117234072Y-86389082D01*
X116973063Y-86441000D01*
X116706937Y-86441000D01*
X116445928Y-86389082D01*
X116200063Y-86287242D01*
X116200062Y-86287242D01*
X116200061Y-86287241D01*
X115978788Y-86139390D01*
X115790610Y-85951212D01*
X115748015Y-85887464D01*
X115642758Y-85729937D01*
X115540918Y-85484072D01*
X115489000Y-85223063D01*
X115489000Y-84956937D01*
X115540918Y-84695928D01*
X115642758Y-84450063D01*
X115790609Y-84228789D01*
X115978789Y-84040609D01*
X116088672Y-83967187D01*
X116200061Y-83892759D01*
X116445928Y-83790918D01*
X116706937Y-83739000D01*
X116973063Y-83739000D01*
X117234072Y-83790918D01*
G37*
G36*
X136284072Y-83790918D02*
G01*
X136529939Y-83892759D01*
X136641328Y-83967187D01*
X136751211Y-84040609D01*
X136939391Y-84228789D01*
X137087242Y-84450063D01*
X137189082Y-84695928D01*
X137241000Y-84956937D01*
X137241000Y-85223063D01*
X137189082Y-85484072D01*
X137087242Y-85729937D01*
X136981986Y-85887464D01*
X136939390Y-85951212D01*
X136751212Y-86139390D01*
X136529939Y-86287241D01*
X136529938Y-86287242D01*
X136529937Y-86287242D01*
X136284072Y-86389082D01*
X136023063Y-86441000D01*
X135756937Y-86441000D01*
X135495928Y-86389082D01*
X135250063Y-86287242D01*
X135250062Y-86287242D01*
X135250061Y-86287241D01*
X135028788Y-86139390D01*
X134840610Y-85951212D01*
X134798015Y-85887464D01*
X134692758Y-85729937D01*
X134590918Y-85484072D01*
X134539000Y-85223063D01*
X134539000Y-84956937D01*
X134590918Y-84695928D01*
X134692758Y-84450063D01*
X134840609Y-84228789D01*
X135028789Y-84040609D01*
X135138672Y-83967187D01*
X135250061Y-83892759D01*
X135495928Y-83790918D01*
X135756937Y-83739000D01*
X136023063Y-83739000D01*
X136284072Y-83790918D01*
G37*
G36*
X156604072Y-83790918D02*
G01*
X156849939Y-83892759D01*
X156961328Y-83967187D01*
X157071211Y-84040609D01*
X157259391Y-84228789D01*
X157407242Y-84450063D01*
X157509082Y-84695928D01*
X157561000Y-84956937D01*
X157561000Y-85223063D01*
X157509082Y-85484072D01*
X157407242Y-85729937D01*
X157301986Y-85887464D01*
X157259390Y-85951212D01*
X157071212Y-86139390D01*
X156849939Y-86287241D01*
X156849938Y-86287242D01*
X156849937Y-86287242D01*
X156604072Y-86389082D01*
X156343063Y-86441000D01*
X156076937Y-86441000D01*
X155815928Y-86389082D01*
X155570063Y-86287242D01*
X155570062Y-86287242D01*
X155570061Y-86287241D01*
X155348788Y-86139390D01*
X155160610Y-85951212D01*
X155118015Y-85887464D01*
X155012758Y-85729937D01*
X154910918Y-85484072D01*
X154859000Y-85223063D01*
X154859000Y-84956937D01*
X154910918Y-84695928D01*
X155012758Y-84450063D01*
X155160609Y-84228789D01*
X155348789Y-84040609D01*
X155458672Y-83967187D01*
X155570061Y-83892759D01*
X155815928Y-83790918D01*
X156076937Y-83739000D01*
X156343063Y-83739000D01*
X156604072Y-83790918D01*
G37*
G36*
X161684072Y-83790918D02*
G01*
X161929939Y-83892759D01*
X162041328Y-83967187D01*
X162151211Y-84040609D01*
X162339391Y-84228789D01*
X162487242Y-84450063D01*
X162589082Y-84695928D01*
X162641000Y-84956937D01*
X162641000Y-85223063D01*
X162589082Y-85484072D01*
X162487242Y-85729937D01*
X162381986Y-85887464D01*
X162339390Y-85951212D01*
X162151212Y-86139390D01*
X161929939Y-86287241D01*
X161929938Y-86287242D01*
X161929937Y-86287242D01*
X161684072Y-86389082D01*
X161423063Y-86441000D01*
X161156937Y-86441000D01*
X160895928Y-86389082D01*
X160650063Y-86287242D01*
X160650062Y-86287242D01*
X160650061Y-86287241D01*
X160428788Y-86139390D01*
X160240610Y-85951212D01*
X160198015Y-85887464D01*
X160092758Y-85729937D01*
X159990918Y-85484072D01*
X159939000Y-85223063D01*
X159939000Y-84956937D01*
X159990918Y-84695928D01*
X160092758Y-84450063D01*
X160240609Y-84228789D01*
X160428789Y-84040609D01*
X160538672Y-83967187D01*
X160650061Y-83892759D01*
X160895928Y-83790918D01*
X161156937Y-83739000D01*
X161423063Y-83739000D01*
X161684072Y-83790918D01*
G37*
G36*
X131204072Y-83790918D02*
G01*
X131449939Y-83892759D01*
X131561328Y-83967187D01*
X131671211Y-84040609D01*
X131859391Y-84228789D01*
X132007242Y-84450063D01*
X132109082Y-84695928D01*
X132161000Y-84956937D01*
X132161000Y-85223063D01*
X132109082Y-85484072D01*
X132007242Y-85729937D01*
X131901986Y-85887464D01*
X131859390Y-85951212D01*
X131671212Y-86139390D01*
X131449939Y-86287241D01*
X131449938Y-86287242D01*
X131449937Y-86287242D01*
X131204072Y-86389082D01*
X130943063Y-86441000D01*
X130676937Y-86441000D01*
X130415928Y-86389082D01*
X130170063Y-86287242D01*
X130170062Y-86287242D01*
X130170061Y-86287241D01*
X129948788Y-86139390D01*
X129760610Y-85951212D01*
X129718015Y-85887464D01*
X129612758Y-85729937D01*
X129510918Y-85484072D01*
X129459000Y-85223063D01*
X129459000Y-84956937D01*
X129510918Y-84695928D01*
X129612758Y-84450063D01*
X129760609Y-84228789D01*
X129948789Y-84040609D01*
X130058672Y-83967187D01*
X130170061Y-83892759D01*
X130415928Y-83790918D01*
X130676937Y-83739000D01*
X130943063Y-83739000D01*
X131204072Y-83790918D01*
G37*
G36*
X101964903Y-83887075D02*
G01*
X102192571Y-83981378D01*
X102397466Y-84118285D01*
X102571715Y-84292534D01*
X102708622Y-84497429D01*
X102802925Y-84725097D01*
X102851000Y-84966787D01*
X102851000Y-85213213D01*
X102802925Y-85454903D01*
X102708622Y-85682571D01*
X102571715Y-85887466D01*
X102397466Y-86061715D01*
X102192571Y-86198622D01*
X102192570Y-86198623D01*
X102192569Y-86198623D01*
X101964903Y-86292925D01*
X101723214Y-86341000D01*
X101476786Y-86341000D01*
X101235097Y-86292925D01*
X101007431Y-86198623D01*
X101007430Y-86198623D01*
X101007429Y-86198622D01*
X100802534Y-86061715D01*
X100628285Y-85887466D01*
X100491378Y-85682571D01*
X100397075Y-85454903D01*
X100349000Y-85213213D01*
X100349000Y-84966787D01*
X100397075Y-84725097D01*
X100491378Y-84497429D01*
X100628285Y-84292534D01*
X100802534Y-84118285D01*
X101007429Y-83981378D01*
X101235097Y-83887075D01*
X101476786Y-83839000D01*
X101723214Y-83839000D01*
X101964903Y-83887075D01*
G37*
G36*
X147301000Y-86341000D02*
G01*
X144799000Y-86341000D01*
X144799000Y-83839000D01*
X147301000Y-83839000D01*
X147301000Y-86341000D01*
G37*
G36*
X161684072Y-78710918D02*
G01*
X161929939Y-78812759D01*
X162151212Y-78960610D01*
X162339390Y-79148788D01*
X162487241Y-79370061D01*
X162589082Y-79615928D01*
X162641000Y-79876938D01*
X162641000Y-80143062D01*
X162589082Y-80404072D01*
X162487241Y-80649939D01*
X162339390Y-80871212D01*
X162151212Y-81059390D01*
X161929939Y-81207241D01*
X161929938Y-81207242D01*
X161929937Y-81207242D01*
X161684072Y-81309082D01*
X161423063Y-81361000D01*
X161156937Y-81361000D01*
X160895928Y-81309082D01*
X160650063Y-81207242D01*
X160650062Y-81207242D01*
X160650061Y-81207241D01*
X160428788Y-81059390D01*
X160240610Y-80871212D01*
X160092759Y-80649939D01*
X159990918Y-80404072D01*
X159939000Y-80143062D01*
X159939000Y-79876938D01*
X159990918Y-79615928D01*
X160092759Y-79370061D01*
X160240610Y-79148788D01*
X160428788Y-78960610D01*
X160650061Y-78812759D01*
X160895928Y-78710918D01*
X161156937Y-78659000D01*
X161423063Y-78659000D01*
X161684072Y-78710918D01*
G37*
G36*
X112154072Y-78710918D02*
G01*
X112399939Y-78812759D01*
X112621212Y-78960610D01*
X112809390Y-79148788D01*
X112957241Y-79370061D01*
X113059082Y-79615928D01*
X113111000Y-79876938D01*
X113111000Y-80143062D01*
X113059082Y-80404072D01*
X112957241Y-80649939D01*
X112809390Y-80871212D01*
X112621212Y-81059390D01*
X112399939Y-81207241D01*
X112399938Y-81207242D01*
X112399937Y-81207242D01*
X112154072Y-81309082D01*
X111893063Y-81361000D01*
X111626937Y-81361000D01*
X111365928Y-81309082D01*
X111120063Y-81207242D01*
X111120062Y-81207242D01*
X111120061Y-81207241D01*
X110898788Y-81059390D01*
X110710610Y-80871212D01*
X110562759Y-80649939D01*
X110460918Y-80404072D01*
X110409000Y-80143062D01*
X110409000Y-79876938D01*
X110460918Y-79615928D01*
X110562759Y-79370061D01*
X110710610Y-79148788D01*
X110898788Y-78960610D01*
X111120061Y-78812759D01*
X111365928Y-78710918D01*
X111626937Y-78659000D01*
X111893063Y-78659000D01*
X112154072Y-78710918D01*
G37*
G36*
X117234072Y-78710918D02*
G01*
X117479939Y-78812759D01*
X117701212Y-78960610D01*
X117889390Y-79148788D01*
X118037241Y-79370061D01*
X118139082Y-79615928D01*
X118191000Y-79876938D01*
X118191000Y-80143062D01*
X118139082Y-80404072D01*
X118037241Y-80649939D01*
X117889390Y-80871212D01*
X117701212Y-81059390D01*
X117479939Y-81207241D01*
X117479938Y-81207242D01*
X117479937Y-81207242D01*
X117234072Y-81309082D01*
X116973063Y-81361000D01*
X116706937Y-81361000D01*
X116445928Y-81309082D01*
X116200063Y-81207242D01*
X116200062Y-81207242D01*
X116200061Y-81207241D01*
X115978788Y-81059390D01*
X115790610Y-80871212D01*
X115642759Y-80649939D01*
X115540918Y-80404072D01*
X115489000Y-80143062D01*
X115489000Y-79876938D01*
X115540918Y-79615928D01*
X115642759Y-79370061D01*
X115790610Y-79148788D01*
X115978788Y-78960610D01*
X116200061Y-78812759D01*
X116445928Y-78710918D01*
X116706937Y-78659000D01*
X116973063Y-78659000D01*
X117234072Y-78710918D01*
G37*
G36*
X131204072Y-78710918D02*
G01*
X131449939Y-78812759D01*
X131671212Y-78960610D01*
X131859390Y-79148788D01*
X132007241Y-79370061D01*
X132109082Y-79615928D01*
X132161000Y-79876938D01*
X132161000Y-80143062D01*
X132109082Y-80404072D01*
X132007241Y-80649939D01*
X131859390Y-80871212D01*
X131671212Y-81059390D01*
X131449939Y-81207241D01*
X131449938Y-81207242D01*
X131449937Y-81207242D01*
X131204072Y-81309082D01*
X130943063Y-81361000D01*
X130676937Y-81361000D01*
X130415928Y-81309082D01*
X130170063Y-81207242D01*
X130170062Y-81207242D01*
X130170061Y-81207241D01*
X129948788Y-81059390D01*
X129760610Y-80871212D01*
X129612759Y-80649939D01*
X129510918Y-80404072D01*
X129459000Y-80143062D01*
X129459000Y-79876938D01*
X129510918Y-79615928D01*
X129612759Y-79370061D01*
X129760610Y-79148788D01*
X129948788Y-78960610D01*
X130170061Y-78812759D01*
X130415928Y-78710918D01*
X130676937Y-78659000D01*
X130943063Y-78659000D01*
X131204072Y-78710918D01*
G37*
G36*
X156604072Y-78710918D02*
G01*
X156849939Y-78812759D01*
X157071212Y-78960610D01*
X157259390Y-79148788D01*
X157407241Y-79370061D01*
X157509082Y-79615928D01*
X157561000Y-79876938D01*
X157561000Y-80143062D01*
X157509082Y-80404072D01*
X157407241Y-80649939D01*
X157259390Y-80871212D01*
X157071212Y-81059390D01*
X156849939Y-81207241D01*
X156849938Y-81207242D01*
X156849937Y-81207242D01*
X156604072Y-81309082D01*
X156343063Y-81361000D01*
X156076937Y-81361000D01*
X155815928Y-81309082D01*
X155570063Y-81207242D01*
X155570062Y-81207242D01*
X155570061Y-81207241D01*
X155348788Y-81059390D01*
X155160610Y-80871212D01*
X155012759Y-80649939D01*
X154910918Y-80404072D01*
X154859000Y-80143062D01*
X154859000Y-79876938D01*
X154910918Y-79615928D01*
X155012759Y-79370061D01*
X155160610Y-79148788D01*
X155348788Y-78960610D01*
X155570061Y-78812759D01*
X155815928Y-78710918D01*
X156076937Y-78659000D01*
X156343063Y-78659000D01*
X156604072Y-78710918D01*
G37*
G36*
X175654072Y-78710918D02*
G01*
X175899939Y-78812759D01*
X176121212Y-78960610D01*
X176309390Y-79148788D01*
X176457241Y-79370061D01*
X176559082Y-79615928D01*
X176611000Y-79876938D01*
X176611000Y-80143062D01*
X176559082Y-80404072D01*
X176457241Y-80649939D01*
X176309390Y-80871212D01*
X176121212Y-81059390D01*
X175899939Y-81207241D01*
X175899938Y-81207242D01*
X175899937Y-81207242D01*
X175654072Y-81309082D01*
X175393063Y-81361000D01*
X175126937Y-81361000D01*
X174865928Y-81309082D01*
X174620063Y-81207242D01*
X174620062Y-81207242D01*
X174620061Y-81207241D01*
X174398788Y-81059390D01*
X174210610Y-80871212D01*
X174062759Y-80649939D01*
X173960918Y-80404072D01*
X173909000Y-80143062D01*
X173909000Y-79876938D01*
X173960918Y-79615928D01*
X174062759Y-79370061D01*
X174210610Y-79148788D01*
X174398788Y-78960610D01*
X174620061Y-78812759D01*
X174865928Y-78710918D01*
X175126937Y-78659000D01*
X175393063Y-78659000D01*
X175654072Y-78710918D01*
G37*
G36*
X136284072Y-78710918D02*
G01*
X136529939Y-78812759D01*
X136751212Y-78960610D01*
X136939390Y-79148788D01*
X137087241Y-79370061D01*
X137189082Y-79615928D01*
X137241000Y-79876938D01*
X137241000Y-80143062D01*
X137189082Y-80404072D01*
X137087241Y-80649939D01*
X136939390Y-80871212D01*
X136751212Y-81059390D01*
X136529939Y-81207241D01*
X136529938Y-81207242D01*
X136529937Y-81207242D01*
X136284072Y-81309082D01*
X136023063Y-81361000D01*
X135756937Y-81361000D01*
X135495928Y-81309082D01*
X135250063Y-81207242D01*
X135250062Y-81207242D01*
X135250061Y-81207241D01*
X135028788Y-81059390D01*
X134840610Y-80871212D01*
X134692759Y-80649939D01*
X134590918Y-80404072D01*
X134539000Y-80143062D01*
X134539000Y-79876938D01*
X134590918Y-79615928D01*
X134692759Y-79370061D01*
X134840610Y-79148788D01*
X135028788Y-78960610D01*
X135250061Y-78812759D01*
X135495928Y-78710918D01*
X135756937Y-78659000D01*
X136023063Y-78659000D01*
X136284072Y-78710918D01*
G37*
G36*
X180734072Y-78710918D02*
G01*
X180979939Y-78812759D01*
X181201212Y-78960610D01*
X181389390Y-79148788D01*
X181537241Y-79370061D01*
X181639082Y-79615928D01*
X181691000Y-79876938D01*
X181691000Y-80143062D01*
X181639082Y-80404072D01*
X181537241Y-80649939D01*
X181389390Y-80871212D01*
X181201212Y-81059390D01*
X180979939Y-81207241D01*
X180979938Y-81207242D01*
X180979937Y-81207242D01*
X180734072Y-81309082D01*
X180473063Y-81361000D01*
X180206937Y-81361000D01*
X179945928Y-81309082D01*
X179700063Y-81207242D01*
X179700062Y-81207242D01*
X179700061Y-81207241D01*
X179478788Y-81059390D01*
X179290610Y-80871212D01*
X179142759Y-80649939D01*
X179040918Y-80404072D01*
X178989000Y-80143062D01*
X178989000Y-79876938D01*
X179040918Y-79615928D01*
X179142759Y-79370061D01*
X179290610Y-79148788D01*
X179478788Y-78960610D01*
X179700061Y-78812759D01*
X179945928Y-78710918D01*
X180206937Y-78659000D01*
X180473063Y-78659000D01*
X180734072Y-78710918D01*
G37*
G36*
X102851000Y-73641000D02*
G01*
X100349000Y-73641000D01*
X100349000Y-71139000D01*
X102851000Y-71139000D01*
X102851000Y-73641000D01*
G37*
G36*
X146414903Y-71187075D02*
G01*
X146642571Y-71281378D01*
X146847466Y-71418285D01*
X147021715Y-71592534D01*
X147158622Y-71797429D01*
X147252925Y-72025097D01*
X147301000Y-72266787D01*
X147301000Y-72513213D01*
X147252925Y-72754903D01*
X147158622Y-72982571D01*
X147021715Y-73187466D01*
X146847466Y-73361715D01*
X146642571Y-73498622D01*
X146642570Y-73498623D01*
X146642569Y-73498623D01*
X146414903Y-73592925D01*
X146173214Y-73641000D01*
X145926786Y-73641000D01*
X145685097Y-73592925D01*
X145457431Y-73498623D01*
X145457430Y-73498623D01*
X145457429Y-73498622D01*
X145252534Y-73361715D01*
X145078285Y-73187466D01*
X144941378Y-72982571D01*
X144847075Y-72754903D01*
X144799000Y-72513213D01*
X144799000Y-72266787D01*
X144847075Y-72025097D01*
X144941378Y-71797429D01*
X145078285Y-71592534D01*
X145252534Y-71418285D01*
X145457429Y-71281378D01*
X145685097Y-71187075D01*
X145926786Y-71139000D01*
X146173214Y-71139000D01*
X146414903Y-71187075D01*
G37*
G36*
X191134239Y-60311467D02*
G01*
X191448282Y-60373934D01*
X192039926Y-60619001D01*
X192572392Y-60974784D01*
X193025216Y-61427608D01*
X193380999Y-61960074D01*
X193626066Y-62551718D01*
X193751000Y-63179804D01*
X193751000Y-63820196D01*
X193626066Y-64448282D01*
X193380999Y-65039926D01*
X193025216Y-65572392D01*
X192572392Y-66025216D01*
X192039926Y-66380999D01*
X191448282Y-66626066D01*
X191134239Y-66688533D01*
X190820197Y-66751000D01*
X190179803Y-66751000D01*
X189865761Y-66688533D01*
X189551718Y-66626066D01*
X188960074Y-66380999D01*
X188427608Y-66025216D01*
X187974784Y-65572392D01*
X187619001Y-65039926D01*
X187373934Y-64448282D01*
X187249000Y-63820196D01*
X187249000Y-63179804D01*
X187373934Y-62551718D01*
X187619001Y-61960074D01*
X187974784Y-61427608D01*
X188427608Y-60974784D01*
X188960074Y-60619001D01*
X189551718Y-60373934D01*
X189865761Y-60311467D01*
X190179803Y-60249000D01*
X190820197Y-60249000D01*
X191134239Y-60311467D01*
G37*
G36*
X101975256Y-61891298D02*
G01*
X102081579Y-61912447D01*
X102382042Y-62036903D01*
X102652451Y-62217585D01*
X102882415Y-62447549D01*
X103063097Y-62717958D01*
X103187553Y-63018421D01*
X103251000Y-63337391D01*
X103251000Y-63662609D01*
X103187553Y-63981579D01*
X103063097Y-64282042D01*
X102882415Y-64552451D01*
X102652451Y-64782415D01*
X102382042Y-64963097D01*
X102081579Y-65087553D01*
X101975256Y-65108702D01*
X101762611Y-65151000D01*
X101437389Y-65151000D01*
X101224744Y-65108702D01*
X101118421Y-65087553D01*
X100817958Y-64963097D01*
X100547549Y-64782415D01*
X100317585Y-64552451D01*
X100136903Y-64282042D01*
X100012447Y-63981579D01*
X99949000Y-63662609D01*
X99949000Y-63337391D01*
X100012447Y-63018421D01*
X100136903Y-62717958D01*
X100317585Y-62447549D01*
X100547549Y-62217585D01*
X100817958Y-62036903D01*
X101118421Y-61912447D01*
X101224744Y-61891298D01*
X101437389Y-61849000D01*
X101762611Y-61849000D01*
X101975256Y-61891298D01*
G37*
G36*
X146425256Y-61891298D02*
G01*
X146531579Y-61912447D01*
X146832042Y-62036903D01*
X147102451Y-62217585D01*
X147332415Y-62447549D01*
X147513097Y-62717958D01*
X147637553Y-63018421D01*
X147701000Y-63337391D01*
X147701000Y-63662609D01*
X147637553Y-63981579D01*
X147513097Y-64282042D01*
X147332415Y-64552451D01*
X147102451Y-64782415D01*
X146832042Y-64963097D01*
X146531579Y-65087553D01*
X146425256Y-65108702D01*
X146212611Y-65151000D01*
X145887389Y-65151000D01*
X145674744Y-65108702D01*
X145568421Y-65087553D01*
X145267958Y-64963097D01*
X144997549Y-64782415D01*
X144767585Y-64552451D01*
X144586903Y-64282042D01*
X144462447Y-63981579D01*
X144399000Y-63662609D01*
X144399000Y-63337391D01*
X144462447Y-63018421D01*
X144586903Y-62717958D01*
X144767585Y-62447549D01*
X144997549Y-62217585D01*
X145267958Y-62036903D01*
X145568421Y-61912447D01*
X145674744Y-61891298D01*
X145887389Y-61849000D01*
X146212611Y-61849000D01*
X146425256Y-61891298D01*
G37*
M02*
