M48
; DRILL file {KiCad (5.1.5)-3} date 2020-04-17 10:42:54 PM
; FORMAT={-:-/ absolute / inch / decimal}
; #@! TF.CreationDate,2020-04-17T22:42:54-05:00
; #@! TF.GenerationSoftware,Kicad,Pcbnew,(5.1.5)-3
; #@! TF.FileFunction,Plated,1,2,PTH
FMAT,2
INCH
T1C0.0433
T2C0.0472
T3C0.0630
T4C0.1260
%
G90
G05
T1
X6.1Y-3.65
X6.2Y-3.65
X6.3Y-3.65
X6.4Y-3.65
X5.1Y-3.65
X5.2Y-3.65
X5.3Y-3.65
X5.4Y-3.65
X4.35Y-3.65
X4.45Y-3.65
X4.55Y-3.65
X4.65Y-3.65
X6.85Y-3.65
X6.95Y-3.65
X7.05Y-3.65
X7.15Y-3.65
T2
X4.0Y-2.85
X4.0Y-3.35
X5.75Y-2.85
X5.75Y-3.35
T3
X4.4Y-3.15
X4.4Y-3.35
X4.6Y-3.15
X4.6Y-3.35
X6.9Y-3.15
X6.9Y-3.35
X7.1Y-3.15
X7.1Y-3.35
X6.15Y-3.15
X6.15Y-3.35
X6.35Y-3.15
X6.35Y-3.35
X5.15Y-3.15
X5.15Y-3.35
X5.35Y-3.15
X5.35Y-3.35
T4
X7.5Y-2.5
T0
M30
