G04 #@! TF.GenerationSoftware,KiCad,Pcbnew,(5.1.5)-3*
G04 #@! TF.CreationDate,2020-04-17T22:42:38-05:00*
G04 #@! TF.ProjectId,Breadboard-Power-Connectors,42726561-6462-46f6-9172-642d506f7765,rev?*
G04 #@! TF.SameCoordinates,Original*
G04 #@! TF.FileFunction,Copper,L2,Bot*
G04 #@! TF.FilePolarity,Positive*
%FSLAX46Y46*%
G04 Gerber Fmt 4.6, Leading zero omitted, Abs format (unit mm)*
G04 Created by KiCad (PCBNEW (5.1.5)-3) date 2020-04-17 22:42:38*
%MOMM*%
%LPD*%
G04 APERTURE LIST*
%ADD10R,2.400000X2.400000*%
%ADD11O,2.400000X2.400000*%
%ADD12C,6.400000*%
%ADD13C,2.600000*%
%ADD14R,2.100000X2.100000*%
%ADD15C,2.100000*%
%ADD16C,2.000000*%
%ADD17C,0.254000*%
G04 APERTURE END LIST*
D10*
X101600000Y-72390000D03*
D11*
X101600000Y-85090000D03*
X146050000Y-72390000D03*
D10*
X146050000Y-85090000D03*
D12*
X190500000Y-63500000D03*
D13*
X116840000Y-80010000D03*
X111760000Y-80010000D03*
X116840000Y-85090000D03*
X111760000Y-85090000D03*
D14*
X110490000Y-92710000D03*
D15*
X113030000Y-92710000D03*
X115570000Y-92710000D03*
X118110000Y-92710000D03*
D13*
X130810000Y-85090000D03*
X135890000Y-85090000D03*
X130810000Y-80010000D03*
X135890000Y-80010000D03*
D15*
X137160000Y-92710000D03*
X134620000Y-92710000D03*
X132080000Y-92710000D03*
D14*
X129540000Y-92710000D03*
D13*
X161290000Y-80010000D03*
X156210000Y-80010000D03*
X161290000Y-85090000D03*
X156210000Y-85090000D03*
D14*
X154940000Y-92710000D03*
D15*
X157480000Y-92710000D03*
X160020000Y-92710000D03*
X162560000Y-92710000D03*
D13*
X175260000Y-85090000D03*
X180340000Y-85090000D03*
X175260000Y-80010000D03*
X180340000Y-80010000D03*
D14*
X173990000Y-92710000D03*
D15*
X176530000Y-92710000D03*
X179070000Y-92710000D03*
X181610000Y-92710000D03*
D16*
X111760000Y-80010000D02*
X111760000Y-85090000D01*
X130810000Y-80010000D02*
X135890000Y-80010000D01*
X138430000Y-80010000D02*
X146050000Y-72390000D01*
X135890000Y-80010000D02*
X138430000Y-80010000D01*
X130810000Y-85090000D02*
X135890000Y-85090000D01*
X144780000Y-85090000D02*
X137160000Y-92710000D01*
X146050000Y-85090000D02*
X144780000Y-85090000D01*
X137160000Y-92710000D02*
X134620000Y-92710000D01*
X134620000Y-92710000D02*
X132080000Y-92710000D01*
X132080000Y-92710000D02*
X129540000Y-92710000D01*
X156210000Y-80010000D02*
X156210000Y-85090000D01*
X173990000Y-92710000D02*
X176530000Y-92710000D01*
X176530000Y-92710000D02*
X179070000Y-92710000D01*
X179070000Y-92710000D02*
X181610000Y-92710000D01*
X173990000Y-86360000D02*
X175260000Y-85090000D01*
X173990000Y-92710000D02*
X173990000Y-86360000D01*
X175260000Y-85090000D02*
X180340000Y-85090000D01*
X175260000Y-80010000D02*
X180340000Y-80010000D01*
D17*
G36*
X193792869Y-57824722D02*
G01*
X193906246Y-57858953D01*
X194010819Y-57914555D01*
X194102596Y-57989407D01*
X194178091Y-58080664D01*
X194234419Y-58184844D01*
X194269440Y-58297976D01*
X194285000Y-58446022D01*
X194285000Y-62780986D01*
X194284178Y-62772062D01*
X194069452Y-62047792D01*
X193717555Y-61379330D01*
X193690548Y-61338912D01*
X193200881Y-60978724D01*
X190679605Y-63500000D01*
X193200881Y-66021276D01*
X193690548Y-65661088D01*
X194050849Y-64997118D01*
X194274694Y-64275615D01*
X194285000Y-64177335D01*
X194285001Y-96487711D01*
X194270278Y-96637869D01*
X194236047Y-96751246D01*
X194180446Y-96855817D01*
X194105594Y-96947595D01*
X194014335Y-97023091D01*
X193910160Y-97079419D01*
X193797024Y-97114440D01*
X193648979Y-97130000D01*
X98457279Y-97130000D01*
X98307131Y-97115278D01*
X98193754Y-97081047D01*
X98089183Y-97025446D01*
X97997405Y-96950594D01*
X97921909Y-96859335D01*
X97865581Y-96755160D01*
X97830560Y-96642024D01*
X97815000Y-96493979D01*
X97815000Y-93124872D01*
X99365000Y-93124872D01*
X99365000Y-93565128D01*
X99450890Y-93996925D01*
X99619369Y-94403669D01*
X99863962Y-94769729D01*
X100175271Y-95081038D01*
X100541331Y-95325631D01*
X100948075Y-95494110D01*
X101379872Y-95580000D01*
X101820128Y-95580000D01*
X102251925Y-95494110D01*
X102658669Y-95325631D01*
X103024729Y-95081038D01*
X103336038Y-94769729D01*
X103580631Y-94403669D01*
X103749110Y-93996925D01*
X103835000Y-93565128D01*
X103835000Y-93124872D01*
X103749110Y-92693075D01*
X103580631Y-92286331D01*
X103336038Y-91920271D01*
X103075767Y-91660000D01*
X108801928Y-91660000D01*
X108801928Y-93760000D01*
X108814188Y-93884482D01*
X108850498Y-94004180D01*
X108909463Y-94114494D01*
X108988815Y-94211185D01*
X109085506Y-94290537D01*
X109195820Y-94349502D01*
X109315518Y-94385812D01*
X109440000Y-94398072D01*
X111540000Y-94398072D01*
X111664482Y-94385812D01*
X111784180Y-94349502D01*
X111894494Y-94290537D01*
X111991185Y-94211185D01*
X112070537Y-94114494D01*
X112078042Y-94100454D01*
X112231853Y-94203228D01*
X112538504Y-94330246D01*
X112864042Y-94395000D01*
X113195958Y-94395000D01*
X113521496Y-94330246D01*
X113828147Y-94203228D01*
X114104125Y-94018825D01*
X114300000Y-93822950D01*
X114495875Y-94018825D01*
X114771853Y-94203228D01*
X115078504Y-94330246D01*
X115404042Y-94395000D01*
X115735958Y-94395000D01*
X116061496Y-94330246D01*
X116368147Y-94203228D01*
X116644125Y-94018825D01*
X116840000Y-93822950D01*
X117035875Y-94018825D01*
X117311853Y-94203228D01*
X117618504Y-94330246D01*
X117944042Y-94395000D01*
X118275958Y-94395000D01*
X118601496Y-94330246D01*
X118908147Y-94203228D01*
X119184125Y-94018825D01*
X119418825Y-93784125D01*
X119603228Y-93508147D01*
X119730246Y-93201496D01*
X119795000Y-92875958D01*
X119795000Y-92544042D01*
X119730246Y-92218504D01*
X119603228Y-91911853D01*
X119434945Y-91660000D01*
X127851928Y-91660000D01*
X127851928Y-93760000D01*
X127864188Y-93884482D01*
X127900498Y-94004180D01*
X127959463Y-94114494D01*
X128038815Y-94211185D01*
X128135506Y-94290537D01*
X128245820Y-94349502D01*
X128365518Y-94385812D01*
X128490000Y-94398072D01*
X130590000Y-94398072D01*
X130714482Y-94385812D01*
X130834180Y-94349502D01*
X130842603Y-94345000D01*
X131662677Y-94345000D01*
X131914042Y-94395000D01*
X132245958Y-94395000D01*
X132497323Y-94345000D01*
X134202677Y-94345000D01*
X134454042Y-94395000D01*
X134785958Y-94395000D01*
X135037323Y-94345000D01*
X136742677Y-94345000D01*
X136994042Y-94395000D01*
X137325958Y-94395000D01*
X137651496Y-94330246D01*
X137958147Y-94203228D01*
X138234125Y-94018825D01*
X138468825Y-93784125D01*
X138611216Y-93571022D01*
X139057366Y-93124872D01*
X143815000Y-93124872D01*
X143815000Y-93565128D01*
X143900890Y-93996925D01*
X144069369Y-94403669D01*
X144313962Y-94769729D01*
X144625271Y-95081038D01*
X144991331Y-95325631D01*
X145398075Y-95494110D01*
X145829872Y-95580000D01*
X146270128Y-95580000D01*
X146701925Y-95494110D01*
X147108669Y-95325631D01*
X147474729Y-95081038D01*
X147786038Y-94769729D01*
X148030631Y-94403669D01*
X148199110Y-93996925D01*
X148285000Y-93565128D01*
X148285000Y-93124872D01*
X148199110Y-92693075D01*
X148030631Y-92286331D01*
X147786038Y-91920271D01*
X147525767Y-91660000D01*
X153251928Y-91660000D01*
X153251928Y-93760000D01*
X153264188Y-93884482D01*
X153300498Y-94004180D01*
X153359463Y-94114494D01*
X153438815Y-94211185D01*
X153535506Y-94290537D01*
X153645820Y-94349502D01*
X153765518Y-94385812D01*
X153890000Y-94398072D01*
X155990000Y-94398072D01*
X156114482Y-94385812D01*
X156234180Y-94349502D01*
X156344494Y-94290537D01*
X156441185Y-94211185D01*
X156520537Y-94114494D01*
X156528042Y-94100454D01*
X156681853Y-94203228D01*
X156988504Y-94330246D01*
X157314042Y-94395000D01*
X157645958Y-94395000D01*
X157971496Y-94330246D01*
X158278147Y-94203228D01*
X158554125Y-94018825D01*
X158750000Y-93822950D01*
X158945875Y-94018825D01*
X159221853Y-94203228D01*
X159528504Y-94330246D01*
X159854042Y-94395000D01*
X160185958Y-94395000D01*
X160511496Y-94330246D01*
X160818147Y-94203228D01*
X161094125Y-94018825D01*
X161290000Y-93822950D01*
X161485875Y-94018825D01*
X161761853Y-94203228D01*
X162068504Y-94330246D01*
X162394042Y-94395000D01*
X162725958Y-94395000D01*
X163051496Y-94330246D01*
X163358147Y-94203228D01*
X163634125Y-94018825D01*
X163868825Y-93784125D01*
X164053228Y-93508147D01*
X164180246Y-93201496D01*
X164245000Y-92875958D01*
X164245000Y-92544042D01*
X164180246Y-92218504D01*
X164053228Y-91911853D01*
X163884945Y-91660000D01*
X172301928Y-91660000D01*
X172301928Y-93760000D01*
X172314188Y-93884482D01*
X172350498Y-94004180D01*
X172409463Y-94114494D01*
X172488815Y-94211185D01*
X172585506Y-94290537D01*
X172695820Y-94349502D01*
X172815518Y-94385812D01*
X172940000Y-94398072D01*
X175040000Y-94398072D01*
X175164482Y-94385812D01*
X175284180Y-94349502D01*
X175292603Y-94345000D01*
X176112677Y-94345000D01*
X176364042Y-94395000D01*
X176695958Y-94395000D01*
X176947323Y-94345000D01*
X178652677Y-94345000D01*
X178904042Y-94395000D01*
X179235958Y-94395000D01*
X179487323Y-94345000D01*
X181192677Y-94345000D01*
X181444042Y-94395000D01*
X181775958Y-94395000D01*
X182101496Y-94330246D01*
X182408147Y-94203228D01*
X182684125Y-94018825D01*
X182918825Y-93784125D01*
X183103228Y-93508147D01*
X183230246Y-93201496D01*
X183245487Y-93124872D01*
X188265000Y-93124872D01*
X188265000Y-93565128D01*
X188350890Y-93996925D01*
X188519369Y-94403669D01*
X188763962Y-94769729D01*
X189075271Y-95081038D01*
X189441331Y-95325631D01*
X189848075Y-95494110D01*
X190279872Y-95580000D01*
X190720128Y-95580000D01*
X191151925Y-95494110D01*
X191558669Y-95325631D01*
X191924729Y-95081038D01*
X192236038Y-94769729D01*
X192480631Y-94403669D01*
X192649110Y-93996925D01*
X192735000Y-93565128D01*
X192735000Y-93124872D01*
X192649110Y-92693075D01*
X192480631Y-92286331D01*
X192236038Y-91920271D01*
X191924729Y-91608962D01*
X191558669Y-91364369D01*
X191151925Y-91195890D01*
X190720128Y-91110000D01*
X190279872Y-91110000D01*
X189848075Y-91195890D01*
X189441331Y-91364369D01*
X189075271Y-91608962D01*
X188763962Y-91920271D01*
X188519369Y-92286331D01*
X188350890Y-92693075D01*
X188265000Y-93124872D01*
X183245487Y-93124872D01*
X183295000Y-92875958D01*
X183295000Y-92544042D01*
X183230246Y-92218504D01*
X183103228Y-91911853D01*
X182918825Y-91635875D01*
X182684125Y-91401175D01*
X182408147Y-91216772D01*
X182101496Y-91089754D01*
X181775958Y-91025000D01*
X181444042Y-91025000D01*
X181192677Y-91075000D01*
X179487323Y-91075000D01*
X179235958Y-91025000D01*
X178904042Y-91025000D01*
X178652677Y-91075000D01*
X176947323Y-91075000D01*
X176695958Y-91025000D01*
X176364042Y-91025000D01*
X176112677Y-91075000D01*
X175625000Y-91075000D01*
X175625000Y-87037238D01*
X175683586Y-86978652D01*
X175824419Y-86950639D01*
X176176566Y-86804775D01*
X176295958Y-86725000D01*
X179304042Y-86725000D01*
X179423434Y-86804775D01*
X179775581Y-86950639D01*
X180149419Y-87025000D01*
X180530581Y-87025000D01*
X180904419Y-86950639D01*
X181256566Y-86804775D01*
X181573491Y-86593013D01*
X181843013Y-86323491D01*
X182054775Y-86006566D01*
X182200639Y-85654419D01*
X182275000Y-85280581D01*
X182275000Y-84899419D01*
X182200639Y-84525581D01*
X182054775Y-84173434D01*
X181843013Y-83856509D01*
X181573491Y-83586987D01*
X181256566Y-83375225D01*
X180904419Y-83229361D01*
X180530581Y-83155000D01*
X180149419Y-83155000D01*
X179775581Y-83229361D01*
X179423434Y-83375225D01*
X179304042Y-83455000D01*
X176295958Y-83455000D01*
X176176566Y-83375225D01*
X175824419Y-83229361D01*
X175450581Y-83155000D01*
X175069419Y-83155000D01*
X174695581Y-83229361D01*
X174343434Y-83375225D01*
X174026509Y-83586987D01*
X173756987Y-83856509D01*
X173545225Y-84173434D01*
X173399361Y-84525581D01*
X173371348Y-84666414D01*
X172890682Y-85147080D01*
X172828287Y-85198286D01*
X172760750Y-85280581D01*
X172623970Y-85447248D01*
X172472148Y-85731286D01*
X172378658Y-86039484D01*
X172347089Y-86360000D01*
X172355001Y-86440329D01*
X172355000Y-91407397D01*
X172350498Y-91415820D01*
X172314188Y-91535518D01*
X172301928Y-91660000D01*
X163884945Y-91660000D01*
X163868825Y-91635875D01*
X163634125Y-91401175D01*
X163358147Y-91216772D01*
X163051496Y-91089754D01*
X162725958Y-91025000D01*
X162394042Y-91025000D01*
X162068504Y-91089754D01*
X161761853Y-91216772D01*
X161485875Y-91401175D01*
X161290000Y-91597050D01*
X161094125Y-91401175D01*
X160818147Y-91216772D01*
X160511496Y-91089754D01*
X160185958Y-91025000D01*
X159854042Y-91025000D01*
X159528504Y-91089754D01*
X159221853Y-91216772D01*
X158945875Y-91401175D01*
X158750000Y-91597050D01*
X158554125Y-91401175D01*
X158278147Y-91216772D01*
X157971496Y-91089754D01*
X157645958Y-91025000D01*
X157314042Y-91025000D01*
X156988504Y-91089754D01*
X156681853Y-91216772D01*
X156528042Y-91319546D01*
X156520537Y-91305506D01*
X156441185Y-91208815D01*
X156344494Y-91129463D01*
X156234180Y-91070498D01*
X156114482Y-91034188D01*
X155990000Y-91021928D01*
X153890000Y-91021928D01*
X153765518Y-91034188D01*
X153645820Y-91070498D01*
X153535506Y-91129463D01*
X153438815Y-91208815D01*
X153359463Y-91305506D01*
X153300498Y-91415820D01*
X153264188Y-91535518D01*
X153251928Y-91660000D01*
X147525767Y-91660000D01*
X147474729Y-91608962D01*
X147108669Y-91364369D01*
X146701925Y-91195890D01*
X146270128Y-91110000D01*
X145829872Y-91110000D01*
X145398075Y-91195890D01*
X144991331Y-91364369D01*
X144625271Y-91608962D01*
X144313962Y-91920271D01*
X144069369Y-92286331D01*
X143900890Y-92693075D01*
X143815000Y-93124872D01*
X139057366Y-93124872D01*
X145254167Y-86928072D01*
X147250000Y-86928072D01*
X147374482Y-86915812D01*
X147494180Y-86879502D01*
X147604494Y-86820537D01*
X147701185Y-86741185D01*
X147780537Y-86644494D01*
X147839502Y-86534180D01*
X147875812Y-86414482D01*
X147888072Y-86290000D01*
X147888072Y-83890000D01*
X147875812Y-83765518D01*
X147839502Y-83645820D01*
X147780537Y-83535506D01*
X147701185Y-83438815D01*
X147604494Y-83359463D01*
X147494180Y-83300498D01*
X147374482Y-83264188D01*
X147250000Y-83251928D01*
X144850000Y-83251928D01*
X144725518Y-83264188D01*
X144605820Y-83300498D01*
X144495506Y-83359463D01*
X144398815Y-83438815D01*
X144335170Y-83516367D01*
X144151285Y-83572148D01*
X143867248Y-83723969D01*
X143618286Y-83928286D01*
X143567080Y-83990681D01*
X136482762Y-91075000D01*
X135037323Y-91075000D01*
X134785958Y-91025000D01*
X134454042Y-91025000D01*
X134202677Y-91075000D01*
X132497323Y-91075000D01*
X132245958Y-91025000D01*
X131914042Y-91025000D01*
X131662677Y-91075000D01*
X130842603Y-91075000D01*
X130834180Y-91070498D01*
X130714482Y-91034188D01*
X130590000Y-91021928D01*
X128490000Y-91021928D01*
X128365518Y-91034188D01*
X128245820Y-91070498D01*
X128135506Y-91129463D01*
X128038815Y-91208815D01*
X127959463Y-91305506D01*
X127900498Y-91415820D01*
X127864188Y-91535518D01*
X127851928Y-91660000D01*
X119434945Y-91660000D01*
X119418825Y-91635875D01*
X119184125Y-91401175D01*
X118908147Y-91216772D01*
X118601496Y-91089754D01*
X118275958Y-91025000D01*
X117944042Y-91025000D01*
X117618504Y-91089754D01*
X117311853Y-91216772D01*
X117035875Y-91401175D01*
X116840000Y-91597050D01*
X116644125Y-91401175D01*
X116368147Y-91216772D01*
X116061496Y-91089754D01*
X115735958Y-91025000D01*
X115404042Y-91025000D01*
X115078504Y-91089754D01*
X114771853Y-91216772D01*
X114495875Y-91401175D01*
X114300000Y-91597050D01*
X114104125Y-91401175D01*
X113828147Y-91216772D01*
X113521496Y-91089754D01*
X113195958Y-91025000D01*
X112864042Y-91025000D01*
X112538504Y-91089754D01*
X112231853Y-91216772D01*
X112078042Y-91319546D01*
X112070537Y-91305506D01*
X111991185Y-91208815D01*
X111894494Y-91129463D01*
X111784180Y-91070498D01*
X111664482Y-91034188D01*
X111540000Y-91021928D01*
X109440000Y-91021928D01*
X109315518Y-91034188D01*
X109195820Y-91070498D01*
X109085506Y-91129463D01*
X108988815Y-91208815D01*
X108909463Y-91305506D01*
X108850498Y-91415820D01*
X108814188Y-91535518D01*
X108801928Y-91660000D01*
X103075767Y-91660000D01*
X103024729Y-91608962D01*
X102658669Y-91364369D01*
X102251925Y-91195890D01*
X101820128Y-91110000D01*
X101379872Y-91110000D01*
X100948075Y-91195890D01*
X100541331Y-91364369D01*
X100175271Y-91608962D01*
X99863962Y-91920271D01*
X99619369Y-92286331D01*
X99450890Y-92693075D01*
X99365000Y-93124872D01*
X97815000Y-93124872D01*
X97815000Y-84909268D01*
X99765000Y-84909268D01*
X99765000Y-85270732D01*
X99835518Y-85625250D01*
X99973844Y-85959199D01*
X100174662Y-86259744D01*
X100430256Y-86515338D01*
X100730801Y-86716156D01*
X101064750Y-86854482D01*
X101419268Y-86925000D01*
X101780732Y-86925000D01*
X102135250Y-86854482D01*
X102469199Y-86716156D01*
X102769744Y-86515338D01*
X103025338Y-86259744D01*
X103226156Y-85959199D01*
X103364482Y-85625250D01*
X103435000Y-85270732D01*
X103435000Y-84909268D01*
X103364482Y-84554750D01*
X103226156Y-84220801D01*
X103025338Y-83920256D01*
X102769744Y-83664662D01*
X102469199Y-83463844D01*
X102135250Y-83325518D01*
X101780732Y-83255000D01*
X101419268Y-83255000D01*
X101064750Y-83325518D01*
X100730801Y-83463844D01*
X100430256Y-83664662D01*
X100174662Y-83920256D01*
X99973844Y-84220801D01*
X99835518Y-84554750D01*
X99765000Y-84909268D01*
X97815000Y-84909268D01*
X97815000Y-79819419D01*
X109825000Y-79819419D01*
X109825000Y-80200581D01*
X109899361Y-80574419D01*
X110045225Y-80926566D01*
X110125000Y-81045958D01*
X110125001Y-84054041D01*
X110045225Y-84173434D01*
X109899361Y-84525581D01*
X109825000Y-84899419D01*
X109825000Y-85280581D01*
X109899361Y-85654419D01*
X110045225Y-86006566D01*
X110256987Y-86323491D01*
X110526509Y-86593013D01*
X110843434Y-86804775D01*
X111195581Y-86950639D01*
X111569419Y-87025000D01*
X111950581Y-87025000D01*
X112324419Y-86950639D01*
X112676566Y-86804775D01*
X112993491Y-86593013D01*
X113263013Y-86323491D01*
X113474775Y-86006566D01*
X113620639Y-85654419D01*
X113695000Y-85280581D01*
X113695000Y-84899419D01*
X114905000Y-84899419D01*
X114905000Y-85280581D01*
X114979361Y-85654419D01*
X115125225Y-86006566D01*
X115336987Y-86323491D01*
X115606509Y-86593013D01*
X115923434Y-86804775D01*
X116275581Y-86950639D01*
X116649419Y-87025000D01*
X117030581Y-87025000D01*
X117404419Y-86950639D01*
X117756566Y-86804775D01*
X118073491Y-86593013D01*
X118343013Y-86323491D01*
X118554775Y-86006566D01*
X118700639Y-85654419D01*
X118775000Y-85280581D01*
X118775000Y-84899419D01*
X128875000Y-84899419D01*
X128875000Y-85280581D01*
X128949361Y-85654419D01*
X129095225Y-86006566D01*
X129306987Y-86323491D01*
X129576509Y-86593013D01*
X129893434Y-86804775D01*
X130245581Y-86950639D01*
X130619419Y-87025000D01*
X131000581Y-87025000D01*
X131374419Y-86950639D01*
X131726566Y-86804775D01*
X131845958Y-86725000D01*
X134854042Y-86725000D01*
X134973434Y-86804775D01*
X135325581Y-86950639D01*
X135699419Y-87025000D01*
X136080581Y-87025000D01*
X136454419Y-86950639D01*
X136806566Y-86804775D01*
X137123491Y-86593013D01*
X137393013Y-86323491D01*
X137604775Y-86006566D01*
X137750639Y-85654419D01*
X137825000Y-85280581D01*
X137825000Y-84899419D01*
X137750639Y-84525581D01*
X137604775Y-84173434D01*
X137393013Y-83856509D01*
X137123491Y-83586987D01*
X136806566Y-83375225D01*
X136454419Y-83229361D01*
X136080581Y-83155000D01*
X135699419Y-83155000D01*
X135325581Y-83229361D01*
X134973434Y-83375225D01*
X134854042Y-83455000D01*
X131845958Y-83455000D01*
X131726566Y-83375225D01*
X131374419Y-83229361D01*
X131000581Y-83155000D01*
X130619419Y-83155000D01*
X130245581Y-83229361D01*
X129893434Y-83375225D01*
X129576509Y-83586987D01*
X129306987Y-83856509D01*
X129095225Y-84173434D01*
X128949361Y-84525581D01*
X128875000Y-84899419D01*
X118775000Y-84899419D01*
X118700639Y-84525581D01*
X118554775Y-84173434D01*
X118343013Y-83856509D01*
X118073491Y-83586987D01*
X117756566Y-83375225D01*
X117404419Y-83229361D01*
X117030581Y-83155000D01*
X116649419Y-83155000D01*
X116275581Y-83229361D01*
X115923434Y-83375225D01*
X115606509Y-83586987D01*
X115336987Y-83856509D01*
X115125225Y-84173434D01*
X114979361Y-84525581D01*
X114905000Y-84899419D01*
X113695000Y-84899419D01*
X113620639Y-84525581D01*
X113474775Y-84173434D01*
X113395000Y-84054042D01*
X113395000Y-81045958D01*
X113474775Y-80926566D01*
X113620639Y-80574419D01*
X113695000Y-80200581D01*
X113695000Y-79819419D01*
X114905000Y-79819419D01*
X114905000Y-80200581D01*
X114979361Y-80574419D01*
X115125225Y-80926566D01*
X115336987Y-81243491D01*
X115606509Y-81513013D01*
X115923434Y-81724775D01*
X116275581Y-81870639D01*
X116649419Y-81945000D01*
X117030581Y-81945000D01*
X117404419Y-81870639D01*
X117756566Y-81724775D01*
X118073491Y-81513013D01*
X118343013Y-81243491D01*
X118554775Y-80926566D01*
X118700639Y-80574419D01*
X118775000Y-80200581D01*
X118775000Y-79819419D01*
X128875000Y-79819419D01*
X128875000Y-80200581D01*
X128949361Y-80574419D01*
X129095225Y-80926566D01*
X129306987Y-81243491D01*
X129576509Y-81513013D01*
X129893434Y-81724775D01*
X130245581Y-81870639D01*
X130619419Y-81945000D01*
X131000581Y-81945000D01*
X131374419Y-81870639D01*
X131726566Y-81724775D01*
X131845958Y-81645000D01*
X134854042Y-81645000D01*
X134973434Y-81724775D01*
X135325581Y-81870639D01*
X135699419Y-81945000D01*
X136080581Y-81945000D01*
X136454419Y-81870639D01*
X136806566Y-81724775D01*
X136925958Y-81645000D01*
X138349681Y-81645000D01*
X138430000Y-81652911D01*
X138510319Y-81645000D01*
X138510322Y-81645000D01*
X138750516Y-81621343D01*
X139058715Y-81527852D01*
X139342752Y-81376031D01*
X139591714Y-81171714D01*
X139642925Y-81109313D01*
X140932819Y-79819419D01*
X154275000Y-79819419D01*
X154275000Y-80200581D01*
X154349361Y-80574419D01*
X154495225Y-80926566D01*
X154575000Y-81045958D01*
X154575001Y-84054041D01*
X154495225Y-84173434D01*
X154349361Y-84525581D01*
X154275000Y-84899419D01*
X154275000Y-85280581D01*
X154349361Y-85654419D01*
X154495225Y-86006566D01*
X154706987Y-86323491D01*
X154976509Y-86593013D01*
X155293434Y-86804775D01*
X155645581Y-86950639D01*
X156019419Y-87025000D01*
X156400581Y-87025000D01*
X156774419Y-86950639D01*
X157126566Y-86804775D01*
X157443491Y-86593013D01*
X157713013Y-86323491D01*
X157924775Y-86006566D01*
X158070639Y-85654419D01*
X158145000Y-85280581D01*
X158145000Y-84899419D01*
X159355000Y-84899419D01*
X159355000Y-85280581D01*
X159429361Y-85654419D01*
X159575225Y-86006566D01*
X159786987Y-86323491D01*
X160056509Y-86593013D01*
X160373434Y-86804775D01*
X160725581Y-86950639D01*
X161099419Y-87025000D01*
X161480581Y-87025000D01*
X161854419Y-86950639D01*
X162206566Y-86804775D01*
X162523491Y-86593013D01*
X162793013Y-86323491D01*
X163004775Y-86006566D01*
X163150639Y-85654419D01*
X163225000Y-85280581D01*
X163225000Y-84899419D01*
X163150639Y-84525581D01*
X163004775Y-84173434D01*
X162793013Y-83856509D01*
X162523491Y-83586987D01*
X162206566Y-83375225D01*
X161854419Y-83229361D01*
X161480581Y-83155000D01*
X161099419Y-83155000D01*
X160725581Y-83229361D01*
X160373434Y-83375225D01*
X160056509Y-83586987D01*
X159786987Y-83856509D01*
X159575225Y-84173434D01*
X159429361Y-84525581D01*
X159355000Y-84899419D01*
X158145000Y-84899419D01*
X158070639Y-84525581D01*
X157924775Y-84173434D01*
X157845000Y-84054042D01*
X157845000Y-81045958D01*
X157924775Y-80926566D01*
X158070639Y-80574419D01*
X158145000Y-80200581D01*
X158145000Y-79819419D01*
X159355000Y-79819419D01*
X159355000Y-80200581D01*
X159429361Y-80574419D01*
X159575225Y-80926566D01*
X159786987Y-81243491D01*
X160056509Y-81513013D01*
X160373434Y-81724775D01*
X160725581Y-81870639D01*
X161099419Y-81945000D01*
X161480581Y-81945000D01*
X161854419Y-81870639D01*
X162206566Y-81724775D01*
X162523491Y-81513013D01*
X162793013Y-81243491D01*
X163004775Y-80926566D01*
X163150639Y-80574419D01*
X163225000Y-80200581D01*
X163225000Y-79819419D01*
X173325000Y-79819419D01*
X173325000Y-80200581D01*
X173399361Y-80574419D01*
X173545225Y-80926566D01*
X173756987Y-81243491D01*
X174026509Y-81513013D01*
X174343434Y-81724775D01*
X174695581Y-81870639D01*
X175069419Y-81945000D01*
X175450581Y-81945000D01*
X175824419Y-81870639D01*
X176176566Y-81724775D01*
X176295958Y-81645000D01*
X179304042Y-81645000D01*
X179423434Y-81724775D01*
X179775581Y-81870639D01*
X180149419Y-81945000D01*
X180530581Y-81945000D01*
X180904419Y-81870639D01*
X181256566Y-81724775D01*
X181573491Y-81513013D01*
X181843013Y-81243491D01*
X182054775Y-80926566D01*
X182200639Y-80574419D01*
X182275000Y-80200581D01*
X182275000Y-79819419D01*
X182200639Y-79445581D01*
X182054775Y-79093434D01*
X181843013Y-78776509D01*
X181573491Y-78506987D01*
X181256566Y-78295225D01*
X180904419Y-78149361D01*
X180530581Y-78075000D01*
X180149419Y-78075000D01*
X179775581Y-78149361D01*
X179423434Y-78295225D01*
X179304042Y-78375000D01*
X176295958Y-78375000D01*
X176176566Y-78295225D01*
X175824419Y-78149361D01*
X175450581Y-78075000D01*
X175069419Y-78075000D01*
X174695581Y-78149361D01*
X174343434Y-78295225D01*
X174026509Y-78506987D01*
X173756987Y-78776509D01*
X173545225Y-79093434D01*
X173399361Y-79445581D01*
X173325000Y-79819419D01*
X163225000Y-79819419D01*
X163150639Y-79445581D01*
X163004775Y-79093434D01*
X162793013Y-78776509D01*
X162523491Y-78506987D01*
X162206566Y-78295225D01*
X161854419Y-78149361D01*
X161480581Y-78075000D01*
X161099419Y-78075000D01*
X160725581Y-78149361D01*
X160373434Y-78295225D01*
X160056509Y-78506987D01*
X159786987Y-78776509D01*
X159575225Y-79093434D01*
X159429361Y-79445581D01*
X159355000Y-79819419D01*
X158145000Y-79819419D01*
X158070639Y-79445581D01*
X157924775Y-79093434D01*
X157713013Y-78776509D01*
X157443491Y-78506987D01*
X157126566Y-78295225D01*
X156774419Y-78149361D01*
X156400581Y-78075000D01*
X156019419Y-78075000D01*
X155645581Y-78149361D01*
X155293434Y-78295225D01*
X154976509Y-78506987D01*
X154706987Y-78776509D01*
X154495225Y-79093434D01*
X154349361Y-79445581D01*
X154275000Y-79819419D01*
X140932819Y-79819419D01*
X146606601Y-74145638D01*
X146919199Y-74016156D01*
X147219744Y-73815338D01*
X147475338Y-73559744D01*
X147676156Y-73259199D01*
X147814482Y-72925250D01*
X147885000Y-72570732D01*
X147885000Y-72209268D01*
X147814482Y-71854750D01*
X147676156Y-71520801D01*
X147475338Y-71220256D01*
X147219744Y-70964662D01*
X146919199Y-70763844D01*
X146585250Y-70625518D01*
X146230732Y-70555000D01*
X145869268Y-70555000D01*
X145514750Y-70625518D01*
X145180801Y-70763844D01*
X144880256Y-70964662D01*
X144624662Y-71220256D01*
X144423844Y-71520801D01*
X144294362Y-71833399D01*
X137752762Y-78375000D01*
X136925958Y-78375000D01*
X136806566Y-78295225D01*
X136454419Y-78149361D01*
X136080581Y-78075000D01*
X135699419Y-78075000D01*
X135325581Y-78149361D01*
X134973434Y-78295225D01*
X134854042Y-78375000D01*
X131845958Y-78375000D01*
X131726566Y-78295225D01*
X131374419Y-78149361D01*
X131000581Y-78075000D01*
X130619419Y-78075000D01*
X130245581Y-78149361D01*
X129893434Y-78295225D01*
X129576509Y-78506987D01*
X129306987Y-78776509D01*
X129095225Y-79093434D01*
X128949361Y-79445581D01*
X128875000Y-79819419D01*
X118775000Y-79819419D01*
X118700639Y-79445581D01*
X118554775Y-79093434D01*
X118343013Y-78776509D01*
X118073491Y-78506987D01*
X117756566Y-78295225D01*
X117404419Y-78149361D01*
X117030581Y-78075000D01*
X116649419Y-78075000D01*
X116275581Y-78149361D01*
X115923434Y-78295225D01*
X115606509Y-78506987D01*
X115336987Y-78776509D01*
X115125225Y-79093434D01*
X114979361Y-79445581D01*
X114905000Y-79819419D01*
X113695000Y-79819419D01*
X113620639Y-79445581D01*
X113474775Y-79093434D01*
X113263013Y-78776509D01*
X112993491Y-78506987D01*
X112676566Y-78295225D01*
X112324419Y-78149361D01*
X111950581Y-78075000D01*
X111569419Y-78075000D01*
X111195581Y-78149361D01*
X110843434Y-78295225D01*
X110526509Y-78506987D01*
X110256987Y-78776509D01*
X110045225Y-79093434D01*
X109899361Y-79445581D01*
X109825000Y-79819419D01*
X97815000Y-79819419D01*
X97815000Y-71190000D01*
X99761928Y-71190000D01*
X99761928Y-73590000D01*
X99774188Y-73714482D01*
X99810498Y-73834180D01*
X99869463Y-73944494D01*
X99948815Y-74041185D01*
X100045506Y-74120537D01*
X100155820Y-74179502D01*
X100275518Y-74215812D01*
X100400000Y-74228072D01*
X102800000Y-74228072D01*
X102924482Y-74215812D01*
X103044180Y-74179502D01*
X103154494Y-74120537D01*
X103251185Y-74041185D01*
X103330537Y-73944494D01*
X103389502Y-73834180D01*
X103425812Y-73714482D01*
X103438072Y-73590000D01*
X103438072Y-71190000D01*
X103425812Y-71065518D01*
X103389502Y-70945820D01*
X103330537Y-70835506D01*
X103251185Y-70738815D01*
X103154494Y-70659463D01*
X103044180Y-70600498D01*
X102924482Y-70564188D01*
X102800000Y-70551928D01*
X100400000Y-70551928D01*
X100275518Y-70564188D01*
X100155820Y-70600498D01*
X100045506Y-70659463D01*
X99948815Y-70738815D01*
X99869463Y-70835506D01*
X99810498Y-70945820D01*
X99774188Y-71065518D01*
X99761928Y-71190000D01*
X97815000Y-71190000D01*
X97815000Y-66200881D01*
X187978724Y-66200881D01*
X188338912Y-66690548D01*
X189002882Y-67050849D01*
X189724385Y-67274694D01*
X190475695Y-67353480D01*
X191227938Y-67284178D01*
X191952208Y-67069452D01*
X192620670Y-66717555D01*
X192661088Y-66690548D01*
X193021276Y-66200881D01*
X190500000Y-63679605D01*
X187978724Y-66200881D01*
X97815000Y-66200881D01*
X97815000Y-63279872D01*
X99365000Y-63279872D01*
X99365000Y-63720128D01*
X99450890Y-64151925D01*
X99619369Y-64558669D01*
X99863962Y-64924729D01*
X100175271Y-65236038D01*
X100541331Y-65480631D01*
X100948075Y-65649110D01*
X101379872Y-65735000D01*
X101820128Y-65735000D01*
X102251925Y-65649110D01*
X102658669Y-65480631D01*
X103024729Y-65236038D01*
X103336038Y-64924729D01*
X103580631Y-64558669D01*
X103749110Y-64151925D01*
X103835000Y-63720128D01*
X103835000Y-63279872D01*
X143815000Y-63279872D01*
X143815000Y-63720128D01*
X143900890Y-64151925D01*
X144069369Y-64558669D01*
X144313962Y-64924729D01*
X144625271Y-65236038D01*
X144991331Y-65480631D01*
X145398075Y-65649110D01*
X145829872Y-65735000D01*
X146270128Y-65735000D01*
X146701925Y-65649110D01*
X147108669Y-65480631D01*
X147474729Y-65236038D01*
X147786038Y-64924729D01*
X148030631Y-64558669D01*
X148199110Y-64151925D01*
X148285000Y-63720128D01*
X148285000Y-63475695D01*
X186646520Y-63475695D01*
X186715822Y-64227938D01*
X186930548Y-64952208D01*
X187282445Y-65620670D01*
X187309452Y-65661088D01*
X187799119Y-66021276D01*
X190320395Y-63500000D01*
X187799119Y-60978724D01*
X187309452Y-61338912D01*
X186949151Y-62002882D01*
X186725306Y-62724385D01*
X186646520Y-63475695D01*
X148285000Y-63475695D01*
X148285000Y-63279872D01*
X148199110Y-62848075D01*
X148030631Y-62441331D01*
X147786038Y-62075271D01*
X147474729Y-61763962D01*
X147108669Y-61519369D01*
X146701925Y-61350890D01*
X146270128Y-61265000D01*
X145829872Y-61265000D01*
X145398075Y-61350890D01*
X144991331Y-61519369D01*
X144625271Y-61763962D01*
X144313962Y-62075271D01*
X144069369Y-62441331D01*
X143900890Y-62848075D01*
X143815000Y-63279872D01*
X103835000Y-63279872D01*
X103749110Y-62848075D01*
X103580631Y-62441331D01*
X103336038Y-62075271D01*
X103024729Y-61763962D01*
X102658669Y-61519369D01*
X102251925Y-61350890D01*
X101820128Y-61265000D01*
X101379872Y-61265000D01*
X100948075Y-61350890D01*
X100541331Y-61519369D01*
X100175271Y-61763962D01*
X99863962Y-62075271D01*
X99619369Y-62441331D01*
X99450890Y-62848075D01*
X99365000Y-63279872D01*
X97815000Y-63279872D01*
X97815000Y-60799119D01*
X187978724Y-60799119D01*
X190500000Y-63320395D01*
X193021276Y-60799119D01*
X192661088Y-60309452D01*
X191997118Y-59949151D01*
X191275615Y-59725306D01*
X190524305Y-59646520D01*
X189772062Y-59715822D01*
X189047792Y-59930548D01*
X188379330Y-60282445D01*
X188338912Y-60309452D01*
X187978724Y-60799119D01*
X97815000Y-60799119D01*
X97815000Y-58452279D01*
X97829722Y-58302131D01*
X97863953Y-58188754D01*
X97919555Y-58084181D01*
X97994407Y-57992404D01*
X98085664Y-57916909D01*
X98189844Y-57860581D01*
X98302976Y-57825560D01*
X98451022Y-57810000D01*
X193642721Y-57810000D01*
X193792869Y-57824722D01*
G37*
X193792869Y-57824722D02*
X193906246Y-57858953D01*
X194010819Y-57914555D01*
X194102596Y-57989407D01*
X194178091Y-58080664D01*
X194234419Y-58184844D01*
X194269440Y-58297976D01*
X194285000Y-58446022D01*
X194285000Y-62780986D01*
X194284178Y-62772062D01*
X194069452Y-62047792D01*
X193717555Y-61379330D01*
X193690548Y-61338912D01*
X193200881Y-60978724D01*
X190679605Y-63500000D01*
X193200881Y-66021276D01*
X193690548Y-65661088D01*
X194050849Y-64997118D01*
X194274694Y-64275615D01*
X194285000Y-64177335D01*
X194285001Y-96487711D01*
X194270278Y-96637869D01*
X194236047Y-96751246D01*
X194180446Y-96855817D01*
X194105594Y-96947595D01*
X194014335Y-97023091D01*
X193910160Y-97079419D01*
X193797024Y-97114440D01*
X193648979Y-97130000D01*
X98457279Y-97130000D01*
X98307131Y-97115278D01*
X98193754Y-97081047D01*
X98089183Y-97025446D01*
X97997405Y-96950594D01*
X97921909Y-96859335D01*
X97865581Y-96755160D01*
X97830560Y-96642024D01*
X97815000Y-96493979D01*
X97815000Y-93124872D01*
X99365000Y-93124872D01*
X99365000Y-93565128D01*
X99450890Y-93996925D01*
X99619369Y-94403669D01*
X99863962Y-94769729D01*
X100175271Y-95081038D01*
X100541331Y-95325631D01*
X100948075Y-95494110D01*
X101379872Y-95580000D01*
X101820128Y-95580000D01*
X102251925Y-95494110D01*
X102658669Y-95325631D01*
X103024729Y-95081038D01*
X103336038Y-94769729D01*
X103580631Y-94403669D01*
X103749110Y-93996925D01*
X103835000Y-93565128D01*
X103835000Y-93124872D01*
X103749110Y-92693075D01*
X103580631Y-92286331D01*
X103336038Y-91920271D01*
X103075767Y-91660000D01*
X108801928Y-91660000D01*
X108801928Y-93760000D01*
X108814188Y-93884482D01*
X108850498Y-94004180D01*
X108909463Y-94114494D01*
X108988815Y-94211185D01*
X109085506Y-94290537D01*
X109195820Y-94349502D01*
X109315518Y-94385812D01*
X109440000Y-94398072D01*
X111540000Y-94398072D01*
X111664482Y-94385812D01*
X111784180Y-94349502D01*
X111894494Y-94290537D01*
X111991185Y-94211185D01*
X112070537Y-94114494D01*
X112078042Y-94100454D01*
X112231853Y-94203228D01*
X112538504Y-94330246D01*
X112864042Y-94395000D01*
X113195958Y-94395000D01*
X113521496Y-94330246D01*
X113828147Y-94203228D01*
X114104125Y-94018825D01*
X114300000Y-93822950D01*
X114495875Y-94018825D01*
X114771853Y-94203228D01*
X115078504Y-94330246D01*
X115404042Y-94395000D01*
X115735958Y-94395000D01*
X116061496Y-94330246D01*
X116368147Y-94203228D01*
X116644125Y-94018825D01*
X116840000Y-93822950D01*
X117035875Y-94018825D01*
X117311853Y-94203228D01*
X117618504Y-94330246D01*
X117944042Y-94395000D01*
X118275958Y-94395000D01*
X118601496Y-94330246D01*
X118908147Y-94203228D01*
X119184125Y-94018825D01*
X119418825Y-93784125D01*
X119603228Y-93508147D01*
X119730246Y-93201496D01*
X119795000Y-92875958D01*
X119795000Y-92544042D01*
X119730246Y-92218504D01*
X119603228Y-91911853D01*
X119434945Y-91660000D01*
X127851928Y-91660000D01*
X127851928Y-93760000D01*
X127864188Y-93884482D01*
X127900498Y-94004180D01*
X127959463Y-94114494D01*
X128038815Y-94211185D01*
X128135506Y-94290537D01*
X128245820Y-94349502D01*
X128365518Y-94385812D01*
X128490000Y-94398072D01*
X130590000Y-94398072D01*
X130714482Y-94385812D01*
X130834180Y-94349502D01*
X130842603Y-94345000D01*
X131662677Y-94345000D01*
X131914042Y-94395000D01*
X132245958Y-94395000D01*
X132497323Y-94345000D01*
X134202677Y-94345000D01*
X134454042Y-94395000D01*
X134785958Y-94395000D01*
X135037323Y-94345000D01*
X136742677Y-94345000D01*
X136994042Y-94395000D01*
X137325958Y-94395000D01*
X137651496Y-94330246D01*
X137958147Y-94203228D01*
X138234125Y-94018825D01*
X138468825Y-93784125D01*
X138611216Y-93571022D01*
X139057366Y-93124872D01*
X143815000Y-93124872D01*
X143815000Y-93565128D01*
X143900890Y-93996925D01*
X144069369Y-94403669D01*
X144313962Y-94769729D01*
X144625271Y-95081038D01*
X144991331Y-95325631D01*
X145398075Y-95494110D01*
X145829872Y-95580000D01*
X146270128Y-95580000D01*
X146701925Y-95494110D01*
X147108669Y-95325631D01*
X147474729Y-95081038D01*
X147786038Y-94769729D01*
X148030631Y-94403669D01*
X148199110Y-93996925D01*
X148285000Y-93565128D01*
X148285000Y-93124872D01*
X148199110Y-92693075D01*
X148030631Y-92286331D01*
X147786038Y-91920271D01*
X147525767Y-91660000D01*
X153251928Y-91660000D01*
X153251928Y-93760000D01*
X153264188Y-93884482D01*
X153300498Y-94004180D01*
X153359463Y-94114494D01*
X153438815Y-94211185D01*
X153535506Y-94290537D01*
X153645820Y-94349502D01*
X153765518Y-94385812D01*
X153890000Y-94398072D01*
X155990000Y-94398072D01*
X156114482Y-94385812D01*
X156234180Y-94349502D01*
X156344494Y-94290537D01*
X156441185Y-94211185D01*
X156520537Y-94114494D01*
X156528042Y-94100454D01*
X156681853Y-94203228D01*
X156988504Y-94330246D01*
X157314042Y-94395000D01*
X157645958Y-94395000D01*
X157971496Y-94330246D01*
X158278147Y-94203228D01*
X158554125Y-94018825D01*
X158750000Y-93822950D01*
X158945875Y-94018825D01*
X159221853Y-94203228D01*
X159528504Y-94330246D01*
X159854042Y-94395000D01*
X160185958Y-94395000D01*
X160511496Y-94330246D01*
X160818147Y-94203228D01*
X161094125Y-94018825D01*
X161290000Y-93822950D01*
X161485875Y-94018825D01*
X161761853Y-94203228D01*
X162068504Y-94330246D01*
X162394042Y-94395000D01*
X162725958Y-94395000D01*
X163051496Y-94330246D01*
X163358147Y-94203228D01*
X163634125Y-94018825D01*
X163868825Y-93784125D01*
X164053228Y-93508147D01*
X164180246Y-93201496D01*
X164245000Y-92875958D01*
X164245000Y-92544042D01*
X164180246Y-92218504D01*
X164053228Y-91911853D01*
X163884945Y-91660000D01*
X172301928Y-91660000D01*
X172301928Y-93760000D01*
X172314188Y-93884482D01*
X172350498Y-94004180D01*
X172409463Y-94114494D01*
X172488815Y-94211185D01*
X172585506Y-94290537D01*
X172695820Y-94349502D01*
X172815518Y-94385812D01*
X172940000Y-94398072D01*
X175040000Y-94398072D01*
X175164482Y-94385812D01*
X175284180Y-94349502D01*
X175292603Y-94345000D01*
X176112677Y-94345000D01*
X176364042Y-94395000D01*
X176695958Y-94395000D01*
X176947323Y-94345000D01*
X178652677Y-94345000D01*
X178904042Y-94395000D01*
X179235958Y-94395000D01*
X179487323Y-94345000D01*
X181192677Y-94345000D01*
X181444042Y-94395000D01*
X181775958Y-94395000D01*
X182101496Y-94330246D01*
X182408147Y-94203228D01*
X182684125Y-94018825D01*
X182918825Y-93784125D01*
X183103228Y-93508147D01*
X183230246Y-93201496D01*
X183245487Y-93124872D01*
X188265000Y-93124872D01*
X188265000Y-93565128D01*
X188350890Y-93996925D01*
X188519369Y-94403669D01*
X188763962Y-94769729D01*
X189075271Y-95081038D01*
X189441331Y-95325631D01*
X189848075Y-95494110D01*
X190279872Y-95580000D01*
X190720128Y-95580000D01*
X191151925Y-95494110D01*
X191558669Y-95325631D01*
X191924729Y-95081038D01*
X192236038Y-94769729D01*
X192480631Y-94403669D01*
X192649110Y-93996925D01*
X192735000Y-93565128D01*
X192735000Y-93124872D01*
X192649110Y-92693075D01*
X192480631Y-92286331D01*
X192236038Y-91920271D01*
X191924729Y-91608962D01*
X191558669Y-91364369D01*
X191151925Y-91195890D01*
X190720128Y-91110000D01*
X190279872Y-91110000D01*
X189848075Y-91195890D01*
X189441331Y-91364369D01*
X189075271Y-91608962D01*
X188763962Y-91920271D01*
X188519369Y-92286331D01*
X188350890Y-92693075D01*
X188265000Y-93124872D01*
X183245487Y-93124872D01*
X183295000Y-92875958D01*
X183295000Y-92544042D01*
X183230246Y-92218504D01*
X183103228Y-91911853D01*
X182918825Y-91635875D01*
X182684125Y-91401175D01*
X182408147Y-91216772D01*
X182101496Y-91089754D01*
X181775958Y-91025000D01*
X181444042Y-91025000D01*
X181192677Y-91075000D01*
X179487323Y-91075000D01*
X179235958Y-91025000D01*
X178904042Y-91025000D01*
X178652677Y-91075000D01*
X176947323Y-91075000D01*
X176695958Y-91025000D01*
X176364042Y-91025000D01*
X176112677Y-91075000D01*
X175625000Y-91075000D01*
X175625000Y-87037238D01*
X175683586Y-86978652D01*
X175824419Y-86950639D01*
X176176566Y-86804775D01*
X176295958Y-86725000D01*
X179304042Y-86725000D01*
X179423434Y-86804775D01*
X179775581Y-86950639D01*
X180149419Y-87025000D01*
X180530581Y-87025000D01*
X180904419Y-86950639D01*
X181256566Y-86804775D01*
X181573491Y-86593013D01*
X181843013Y-86323491D01*
X182054775Y-86006566D01*
X182200639Y-85654419D01*
X182275000Y-85280581D01*
X182275000Y-84899419D01*
X182200639Y-84525581D01*
X182054775Y-84173434D01*
X181843013Y-83856509D01*
X181573491Y-83586987D01*
X181256566Y-83375225D01*
X180904419Y-83229361D01*
X180530581Y-83155000D01*
X180149419Y-83155000D01*
X179775581Y-83229361D01*
X179423434Y-83375225D01*
X179304042Y-83455000D01*
X176295958Y-83455000D01*
X176176566Y-83375225D01*
X175824419Y-83229361D01*
X175450581Y-83155000D01*
X175069419Y-83155000D01*
X174695581Y-83229361D01*
X174343434Y-83375225D01*
X174026509Y-83586987D01*
X173756987Y-83856509D01*
X173545225Y-84173434D01*
X173399361Y-84525581D01*
X173371348Y-84666414D01*
X172890682Y-85147080D01*
X172828287Y-85198286D01*
X172760750Y-85280581D01*
X172623970Y-85447248D01*
X172472148Y-85731286D01*
X172378658Y-86039484D01*
X172347089Y-86360000D01*
X172355001Y-86440329D01*
X172355000Y-91407397D01*
X172350498Y-91415820D01*
X172314188Y-91535518D01*
X172301928Y-91660000D01*
X163884945Y-91660000D01*
X163868825Y-91635875D01*
X163634125Y-91401175D01*
X163358147Y-91216772D01*
X163051496Y-91089754D01*
X162725958Y-91025000D01*
X162394042Y-91025000D01*
X162068504Y-91089754D01*
X161761853Y-91216772D01*
X161485875Y-91401175D01*
X161290000Y-91597050D01*
X161094125Y-91401175D01*
X160818147Y-91216772D01*
X160511496Y-91089754D01*
X160185958Y-91025000D01*
X159854042Y-91025000D01*
X159528504Y-91089754D01*
X159221853Y-91216772D01*
X158945875Y-91401175D01*
X158750000Y-91597050D01*
X158554125Y-91401175D01*
X158278147Y-91216772D01*
X157971496Y-91089754D01*
X157645958Y-91025000D01*
X157314042Y-91025000D01*
X156988504Y-91089754D01*
X156681853Y-91216772D01*
X156528042Y-91319546D01*
X156520537Y-91305506D01*
X156441185Y-91208815D01*
X156344494Y-91129463D01*
X156234180Y-91070498D01*
X156114482Y-91034188D01*
X155990000Y-91021928D01*
X153890000Y-91021928D01*
X153765518Y-91034188D01*
X153645820Y-91070498D01*
X153535506Y-91129463D01*
X153438815Y-91208815D01*
X153359463Y-91305506D01*
X153300498Y-91415820D01*
X153264188Y-91535518D01*
X153251928Y-91660000D01*
X147525767Y-91660000D01*
X147474729Y-91608962D01*
X147108669Y-91364369D01*
X146701925Y-91195890D01*
X146270128Y-91110000D01*
X145829872Y-91110000D01*
X145398075Y-91195890D01*
X144991331Y-91364369D01*
X144625271Y-91608962D01*
X144313962Y-91920271D01*
X144069369Y-92286331D01*
X143900890Y-92693075D01*
X143815000Y-93124872D01*
X139057366Y-93124872D01*
X145254167Y-86928072D01*
X147250000Y-86928072D01*
X147374482Y-86915812D01*
X147494180Y-86879502D01*
X147604494Y-86820537D01*
X147701185Y-86741185D01*
X147780537Y-86644494D01*
X147839502Y-86534180D01*
X147875812Y-86414482D01*
X147888072Y-86290000D01*
X147888072Y-83890000D01*
X147875812Y-83765518D01*
X147839502Y-83645820D01*
X147780537Y-83535506D01*
X147701185Y-83438815D01*
X147604494Y-83359463D01*
X147494180Y-83300498D01*
X147374482Y-83264188D01*
X147250000Y-83251928D01*
X144850000Y-83251928D01*
X144725518Y-83264188D01*
X144605820Y-83300498D01*
X144495506Y-83359463D01*
X144398815Y-83438815D01*
X144335170Y-83516367D01*
X144151285Y-83572148D01*
X143867248Y-83723969D01*
X143618286Y-83928286D01*
X143567080Y-83990681D01*
X136482762Y-91075000D01*
X135037323Y-91075000D01*
X134785958Y-91025000D01*
X134454042Y-91025000D01*
X134202677Y-91075000D01*
X132497323Y-91075000D01*
X132245958Y-91025000D01*
X131914042Y-91025000D01*
X131662677Y-91075000D01*
X130842603Y-91075000D01*
X130834180Y-91070498D01*
X130714482Y-91034188D01*
X130590000Y-91021928D01*
X128490000Y-91021928D01*
X128365518Y-91034188D01*
X128245820Y-91070498D01*
X128135506Y-91129463D01*
X128038815Y-91208815D01*
X127959463Y-91305506D01*
X127900498Y-91415820D01*
X127864188Y-91535518D01*
X127851928Y-91660000D01*
X119434945Y-91660000D01*
X119418825Y-91635875D01*
X119184125Y-91401175D01*
X118908147Y-91216772D01*
X118601496Y-91089754D01*
X118275958Y-91025000D01*
X117944042Y-91025000D01*
X117618504Y-91089754D01*
X117311853Y-91216772D01*
X117035875Y-91401175D01*
X116840000Y-91597050D01*
X116644125Y-91401175D01*
X116368147Y-91216772D01*
X116061496Y-91089754D01*
X115735958Y-91025000D01*
X115404042Y-91025000D01*
X115078504Y-91089754D01*
X114771853Y-91216772D01*
X114495875Y-91401175D01*
X114300000Y-91597050D01*
X114104125Y-91401175D01*
X113828147Y-91216772D01*
X113521496Y-91089754D01*
X113195958Y-91025000D01*
X112864042Y-91025000D01*
X112538504Y-91089754D01*
X112231853Y-91216772D01*
X112078042Y-91319546D01*
X112070537Y-91305506D01*
X111991185Y-91208815D01*
X111894494Y-91129463D01*
X111784180Y-91070498D01*
X111664482Y-91034188D01*
X111540000Y-91021928D01*
X109440000Y-91021928D01*
X109315518Y-91034188D01*
X109195820Y-91070498D01*
X109085506Y-91129463D01*
X108988815Y-91208815D01*
X108909463Y-91305506D01*
X108850498Y-91415820D01*
X108814188Y-91535518D01*
X108801928Y-91660000D01*
X103075767Y-91660000D01*
X103024729Y-91608962D01*
X102658669Y-91364369D01*
X102251925Y-91195890D01*
X101820128Y-91110000D01*
X101379872Y-91110000D01*
X100948075Y-91195890D01*
X100541331Y-91364369D01*
X100175271Y-91608962D01*
X99863962Y-91920271D01*
X99619369Y-92286331D01*
X99450890Y-92693075D01*
X99365000Y-93124872D01*
X97815000Y-93124872D01*
X97815000Y-84909268D01*
X99765000Y-84909268D01*
X99765000Y-85270732D01*
X99835518Y-85625250D01*
X99973844Y-85959199D01*
X100174662Y-86259744D01*
X100430256Y-86515338D01*
X100730801Y-86716156D01*
X101064750Y-86854482D01*
X101419268Y-86925000D01*
X101780732Y-86925000D01*
X102135250Y-86854482D01*
X102469199Y-86716156D01*
X102769744Y-86515338D01*
X103025338Y-86259744D01*
X103226156Y-85959199D01*
X103364482Y-85625250D01*
X103435000Y-85270732D01*
X103435000Y-84909268D01*
X103364482Y-84554750D01*
X103226156Y-84220801D01*
X103025338Y-83920256D01*
X102769744Y-83664662D01*
X102469199Y-83463844D01*
X102135250Y-83325518D01*
X101780732Y-83255000D01*
X101419268Y-83255000D01*
X101064750Y-83325518D01*
X100730801Y-83463844D01*
X100430256Y-83664662D01*
X100174662Y-83920256D01*
X99973844Y-84220801D01*
X99835518Y-84554750D01*
X99765000Y-84909268D01*
X97815000Y-84909268D01*
X97815000Y-79819419D01*
X109825000Y-79819419D01*
X109825000Y-80200581D01*
X109899361Y-80574419D01*
X110045225Y-80926566D01*
X110125000Y-81045958D01*
X110125001Y-84054041D01*
X110045225Y-84173434D01*
X109899361Y-84525581D01*
X109825000Y-84899419D01*
X109825000Y-85280581D01*
X109899361Y-85654419D01*
X110045225Y-86006566D01*
X110256987Y-86323491D01*
X110526509Y-86593013D01*
X110843434Y-86804775D01*
X111195581Y-86950639D01*
X111569419Y-87025000D01*
X111950581Y-87025000D01*
X112324419Y-86950639D01*
X112676566Y-86804775D01*
X112993491Y-86593013D01*
X113263013Y-86323491D01*
X113474775Y-86006566D01*
X113620639Y-85654419D01*
X113695000Y-85280581D01*
X113695000Y-84899419D01*
X114905000Y-84899419D01*
X114905000Y-85280581D01*
X114979361Y-85654419D01*
X115125225Y-86006566D01*
X115336987Y-86323491D01*
X115606509Y-86593013D01*
X115923434Y-86804775D01*
X116275581Y-86950639D01*
X116649419Y-87025000D01*
X117030581Y-87025000D01*
X117404419Y-86950639D01*
X117756566Y-86804775D01*
X118073491Y-86593013D01*
X118343013Y-86323491D01*
X118554775Y-86006566D01*
X118700639Y-85654419D01*
X118775000Y-85280581D01*
X118775000Y-84899419D01*
X128875000Y-84899419D01*
X128875000Y-85280581D01*
X128949361Y-85654419D01*
X129095225Y-86006566D01*
X129306987Y-86323491D01*
X129576509Y-86593013D01*
X129893434Y-86804775D01*
X130245581Y-86950639D01*
X130619419Y-87025000D01*
X131000581Y-87025000D01*
X131374419Y-86950639D01*
X131726566Y-86804775D01*
X131845958Y-86725000D01*
X134854042Y-86725000D01*
X134973434Y-86804775D01*
X135325581Y-86950639D01*
X135699419Y-87025000D01*
X136080581Y-87025000D01*
X136454419Y-86950639D01*
X136806566Y-86804775D01*
X137123491Y-86593013D01*
X137393013Y-86323491D01*
X137604775Y-86006566D01*
X137750639Y-85654419D01*
X137825000Y-85280581D01*
X137825000Y-84899419D01*
X137750639Y-84525581D01*
X137604775Y-84173434D01*
X137393013Y-83856509D01*
X137123491Y-83586987D01*
X136806566Y-83375225D01*
X136454419Y-83229361D01*
X136080581Y-83155000D01*
X135699419Y-83155000D01*
X135325581Y-83229361D01*
X134973434Y-83375225D01*
X134854042Y-83455000D01*
X131845958Y-83455000D01*
X131726566Y-83375225D01*
X131374419Y-83229361D01*
X131000581Y-83155000D01*
X130619419Y-83155000D01*
X130245581Y-83229361D01*
X129893434Y-83375225D01*
X129576509Y-83586987D01*
X129306987Y-83856509D01*
X129095225Y-84173434D01*
X128949361Y-84525581D01*
X128875000Y-84899419D01*
X118775000Y-84899419D01*
X118700639Y-84525581D01*
X118554775Y-84173434D01*
X118343013Y-83856509D01*
X118073491Y-83586987D01*
X117756566Y-83375225D01*
X117404419Y-83229361D01*
X117030581Y-83155000D01*
X116649419Y-83155000D01*
X116275581Y-83229361D01*
X115923434Y-83375225D01*
X115606509Y-83586987D01*
X115336987Y-83856509D01*
X115125225Y-84173434D01*
X114979361Y-84525581D01*
X114905000Y-84899419D01*
X113695000Y-84899419D01*
X113620639Y-84525581D01*
X113474775Y-84173434D01*
X113395000Y-84054042D01*
X113395000Y-81045958D01*
X113474775Y-80926566D01*
X113620639Y-80574419D01*
X113695000Y-80200581D01*
X113695000Y-79819419D01*
X114905000Y-79819419D01*
X114905000Y-80200581D01*
X114979361Y-80574419D01*
X115125225Y-80926566D01*
X115336987Y-81243491D01*
X115606509Y-81513013D01*
X115923434Y-81724775D01*
X116275581Y-81870639D01*
X116649419Y-81945000D01*
X117030581Y-81945000D01*
X117404419Y-81870639D01*
X117756566Y-81724775D01*
X118073491Y-81513013D01*
X118343013Y-81243491D01*
X118554775Y-80926566D01*
X118700639Y-80574419D01*
X118775000Y-80200581D01*
X118775000Y-79819419D01*
X128875000Y-79819419D01*
X128875000Y-80200581D01*
X128949361Y-80574419D01*
X129095225Y-80926566D01*
X129306987Y-81243491D01*
X129576509Y-81513013D01*
X129893434Y-81724775D01*
X130245581Y-81870639D01*
X130619419Y-81945000D01*
X131000581Y-81945000D01*
X131374419Y-81870639D01*
X131726566Y-81724775D01*
X131845958Y-81645000D01*
X134854042Y-81645000D01*
X134973434Y-81724775D01*
X135325581Y-81870639D01*
X135699419Y-81945000D01*
X136080581Y-81945000D01*
X136454419Y-81870639D01*
X136806566Y-81724775D01*
X136925958Y-81645000D01*
X138349681Y-81645000D01*
X138430000Y-81652911D01*
X138510319Y-81645000D01*
X138510322Y-81645000D01*
X138750516Y-81621343D01*
X139058715Y-81527852D01*
X139342752Y-81376031D01*
X139591714Y-81171714D01*
X139642925Y-81109313D01*
X140932819Y-79819419D01*
X154275000Y-79819419D01*
X154275000Y-80200581D01*
X154349361Y-80574419D01*
X154495225Y-80926566D01*
X154575000Y-81045958D01*
X154575001Y-84054041D01*
X154495225Y-84173434D01*
X154349361Y-84525581D01*
X154275000Y-84899419D01*
X154275000Y-85280581D01*
X154349361Y-85654419D01*
X154495225Y-86006566D01*
X154706987Y-86323491D01*
X154976509Y-86593013D01*
X155293434Y-86804775D01*
X155645581Y-86950639D01*
X156019419Y-87025000D01*
X156400581Y-87025000D01*
X156774419Y-86950639D01*
X157126566Y-86804775D01*
X157443491Y-86593013D01*
X157713013Y-86323491D01*
X157924775Y-86006566D01*
X158070639Y-85654419D01*
X158145000Y-85280581D01*
X158145000Y-84899419D01*
X159355000Y-84899419D01*
X159355000Y-85280581D01*
X159429361Y-85654419D01*
X159575225Y-86006566D01*
X159786987Y-86323491D01*
X160056509Y-86593013D01*
X160373434Y-86804775D01*
X160725581Y-86950639D01*
X161099419Y-87025000D01*
X161480581Y-87025000D01*
X161854419Y-86950639D01*
X162206566Y-86804775D01*
X162523491Y-86593013D01*
X162793013Y-86323491D01*
X163004775Y-86006566D01*
X163150639Y-85654419D01*
X163225000Y-85280581D01*
X163225000Y-84899419D01*
X163150639Y-84525581D01*
X163004775Y-84173434D01*
X162793013Y-83856509D01*
X162523491Y-83586987D01*
X162206566Y-83375225D01*
X161854419Y-83229361D01*
X161480581Y-83155000D01*
X161099419Y-83155000D01*
X160725581Y-83229361D01*
X160373434Y-83375225D01*
X160056509Y-83586987D01*
X159786987Y-83856509D01*
X159575225Y-84173434D01*
X159429361Y-84525581D01*
X159355000Y-84899419D01*
X158145000Y-84899419D01*
X158070639Y-84525581D01*
X157924775Y-84173434D01*
X157845000Y-84054042D01*
X157845000Y-81045958D01*
X157924775Y-80926566D01*
X158070639Y-80574419D01*
X158145000Y-80200581D01*
X158145000Y-79819419D01*
X159355000Y-79819419D01*
X159355000Y-80200581D01*
X159429361Y-80574419D01*
X159575225Y-80926566D01*
X159786987Y-81243491D01*
X160056509Y-81513013D01*
X160373434Y-81724775D01*
X160725581Y-81870639D01*
X161099419Y-81945000D01*
X161480581Y-81945000D01*
X161854419Y-81870639D01*
X162206566Y-81724775D01*
X162523491Y-81513013D01*
X162793013Y-81243491D01*
X163004775Y-80926566D01*
X163150639Y-80574419D01*
X163225000Y-80200581D01*
X163225000Y-79819419D01*
X173325000Y-79819419D01*
X173325000Y-80200581D01*
X173399361Y-80574419D01*
X173545225Y-80926566D01*
X173756987Y-81243491D01*
X174026509Y-81513013D01*
X174343434Y-81724775D01*
X174695581Y-81870639D01*
X175069419Y-81945000D01*
X175450581Y-81945000D01*
X175824419Y-81870639D01*
X176176566Y-81724775D01*
X176295958Y-81645000D01*
X179304042Y-81645000D01*
X179423434Y-81724775D01*
X179775581Y-81870639D01*
X180149419Y-81945000D01*
X180530581Y-81945000D01*
X180904419Y-81870639D01*
X181256566Y-81724775D01*
X181573491Y-81513013D01*
X181843013Y-81243491D01*
X182054775Y-80926566D01*
X182200639Y-80574419D01*
X182275000Y-80200581D01*
X182275000Y-79819419D01*
X182200639Y-79445581D01*
X182054775Y-79093434D01*
X181843013Y-78776509D01*
X181573491Y-78506987D01*
X181256566Y-78295225D01*
X180904419Y-78149361D01*
X180530581Y-78075000D01*
X180149419Y-78075000D01*
X179775581Y-78149361D01*
X179423434Y-78295225D01*
X179304042Y-78375000D01*
X176295958Y-78375000D01*
X176176566Y-78295225D01*
X175824419Y-78149361D01*
X175450581Y-78075000D01*
X175069419Y-78075000D01*
X174695581Y-78149361D01*
X174343434Y-78295225D01*
X174026509Y-78506987D01*
X173756987Y-78776509D01*
X173545225Y-79093434D01*
X173399361Y-79445581D01*
X173325000Y-79819419D01*
X163225000Y-79819419D01*
X163150639Y-79445581D01*
X163004775Y-79093434D01*
X162793013Y-78776509D01*
X162523491Y-78506987D01*
X162206566Y-78295225D01*
X161854419Y-78149361D01*
X161480581Y-78075000D01*
X161099419Y-78075000D01*
X160725581Y-78149361D01*
X160373434Y-78295225D01*
X160056509Y-78506987D01*
X159786987Y-78776509D01*
X159575225Y-79093434D01*
X159429361Y-79445581D01*
X159355000Y-79819419D01*
X158145000Y-79819419D01*
X158070639Y-79445581D01*
X157924775Y-79093434D01*
X157713013Y-78776509D01*
X157443491Y-78506987D01*
X157126566Y-78295225D01*
X156774419Y-78149361D01*
X156400581Y-78075000D01*
X156019419Y-78075000D01*
X155645581Y-78149361D01*
X155293434Y-78295225D01*
X154976509Y-78506987D01*
X154706987Y-78776509D01*
X154495225Y-79093434D01*
X154349361Y-79445581D01*
X154275000Y-79819419D01*
X140932819Y-79819419D01*
X146606601Y-74145638D01*
X146919199Y-74016156D01*
X147219744Y-73815338D01*
X147475338Y-73559744D01*
X147676156Y-73259199D01*
X147814482Y-72925250D01*
X147885000Y-72570732D01*
X147885000Y-72209268D01*
X147814482Y-71854750D01*
X147676156Y-71520801D01*
X147475338Y-71220256D01*
X147219744Y-70964662D01*
X146919199Y-70763844D01*
X146585250Y-70625518D01*
X146230732Y-70555000D01*
X145869268Y-70555000D01*
X145514750Y-70625518D01*
X145180801Y-70763844D01*
X144880256Y-70964662D01*
X144624662Y-71220256D01*
X144423844Y-71520801D01*
X144294362Y-71833399D01*
X137752762Y-78375000D01*
X136925958Y-78375000D01*
X136806566Y-78295225D01*
X136454419Y-78149361D01*
X136080581Y-78075000D01*
X135699419Y-78075000D01*
X135325581Y-78149361D01*
X134973434Y-78295225D01*
X134854042Y-78375000D01*
X131845958Y-78375000D01*
X131726566Y-78295225D01*
X131374419Y-78149361D01*
X131000581Y-78075000D01*
X130619419Y-78075000D01*
X130245581Y-78149361D01*
X129893434Y-78295225D01*
X129576509Y-78506987D01*
X129306987Y-78776509D01*
X129095225Y-79093434D01*
X128949361Y-79445581D01*
X128875000Y-79819419D01*
X118775000Y-79819419D01*
X118700639Y-79445581D01*
X118554775Y-79093434D01*
X118343013Y-78776509D01*
X118073491Y-78506987D01*
X117756566Y-78295225D01*
X117404419Y-78149361D01*
X117030581Y-78075000D01*
X116649419Y-78075000D01*
X116275581Y-78149361D01*
X115923434Y-78295225D01*
X115606509Y-78506987D01*
X115336987Y-78776509D01*
X115125225Y-79093434D01*
X114979361Y-79445581D01*
X114905000Y-79819419D01*
X113695000Y-79819419D01*
X113620639Y-79445581D01*
X113474775Y-79093434D01*
X113263013Y-78776509D01*
X112993491Y-78506987D01*
X112676566Y-78295225D01*
X112324419Y-78149361D01*
X111950581Y-78075000D01*
X111569419Y-78075000D01*
X111195581Y-78149361D01*
X110843434Y-78295225D01*
X110526509Y-78506987D01*
X110256987Y-78776509D01*
X110045225Y-79093434D01*
X109899361Y-79445581D01*
X109825000Y-79819419D01*
X97815000Y-79819419D01*
X97815000Y-71190000D01*
X99761928Y-71190000D01*
X99761928Y-73590000D01*
X99774188Y-73714482D01*
X99810498Y-73834180D01*
X99869463Y-73944494D01*
X99948815Y-74041185D01*
X100045506Y-74120537D01*
X100155820Y-74179502D01*
X100275518Y-74215812D01*
X100400000Y-74228072D01*
X102800000Y-74228072D01*
X102924482Y-74215812D01*
X103044180Y-74179502D01*
X103154494Y-74120537D01*
X103251185Y-74041185D01*
X103330537Y-73944494D01*
X103389502Y-73834180D01*
X103425812Y-73714482D01*
X103438072Y-73590000D01*
X103438072Y-71190000D01*
X103425812Y-71065518D01*
X103389502Y-70945820D01*
X103330537Y-70835506D01*
X103251185Y-70738815D01*
X103154494Y-70659463D01*
X103044180Y-70600498D01*
X102924482Y-70564188D01*
X102800000Y-70551928D01*
X100400000Y-70551928D01*
X100275518Y-70564188D01*
X100155820Y-70600498D01*
X100045506Y-70659463D01*
X99948815Y-70738815D01*
X99869463Y-70835506D01*
X99810498Y-70945820D01*
X99774188Y-71065518D01*
X99761928Y-71190000D01*
X97815000Y-71190000D01*
X97815000Y-66200881D01*
X187978724Y-66200881D01*
X188338912Y-66690548D01*
X189002882Y-67050849D01*
X189724385Y-67274694D01*
X190475695Y-67353480D01*
X191227938Y-67284178D01*
X191952208Y-67069452D01*
X192620670Y-66717555D01*
X192661088Y-66690548D01*
X193021276Y-66200881D01*
X190500000Y-63679605D01*
X187978724Y-66200881D01*
X97815000Y-66200881D01*
X97815000Y-63279872D01*
X99365000Y-63279872D01*
X99365000Y-63720128D01*
X99450890Y-64151925D01*
X99619369Y-64558669D01*
X99863962Y-64924729D01*
X100175271Y-65236038D01*
X100541331Y-65480631D01*
X100948075Y-65649110D01*
X101379872Y-65735000D01*
X101820128Y-65735000D01*
X102251925Y-65649110D01*
X102658669Y-65480631D01*
X103024729Y-65236038D01*
X103336038Y-64924729D01*
X103580631Y-64558669D01*
X103749110Y-64151925D01*
X103835000Y-63720128D01*
X103835000Y-63279872D01*
X143815000Y-63279872D01*
X143815000Y-63720128D01*
X143900890Y-64151925D01*
X144069369Y-64558669D01*
X144313962Y-64924729D01*
X144625271Y-65236038D01*
X144991331Y-65480631D01*
X145398075Y-65649110D01*
X145829872Y-65735000D01*
X146270128Y-65735000D01*
X146701925Y-65649110D01*
X147108669Y-65480631D01*
X147474729Y-65236038D01*
X147786038Y-64924729D01*
X148030631Y-64558669D01*
X148199110Y-64151925D01*
X148285000Y-63720128D01*
X148285000Y-63475695D01*
X186646520Y-63475695D01*
X186715822Y-64227938D01*
X186930548Y-64952208D01*
X187282445Y-65620670D01*
X187309452Y-65661088D01*
X187799119Y-66021276D01*
X190320395Y-63500000D01*
X187799119Y-60978724D01*
X187309452Y-61338912D01*
X186949151Y-62002882D01*
X186725306Y-62724385D01*
X186646520Y-63475695D01*
X148285000Y-63475695D01*
X148285000Y-63279872D01*
X148199110Y-62848075D01*
X148030631Y-62441331D01*
X147786038Y-62075271D01*
X147474729Y-61763962D01*
X147108669Y-61519369D01*
X146701925Y-61350890D01*
X146270128Y-61265000D01*
X145829872Y-61265000D01*
X145398075Y-61350890D01*
X144991331Y-61519369D01*
X144625271Y-61763962D01*
X144313962Y-62075271D01*
X144069369Y-62441331D01*
X143900890Y-62848075D01*
X143815000Y-63279872D01*
X103835000Y-63279872D01*
X103749110Y-62848075D01*
X103580631Y-62441331D01*
X103336038Y-62075271D01*
X103024729Y-61763962D01*
X102658669Y-61519369D01*
X102251925Y-61350890D01*
X101820128Y-61265000D01*
X101379872Y-61265000D01*
X100948075Y-61350890D01*
X100541331Y-61519369D01*
X100175271Y-61763962D01*
X99863962Y-62075271D01*
X99619369Y-62441331D01*
X99450890Y-62848075D01*
X99365000Y-63279872D01*
X97815000Y-63279872D01*
X97815000Y-60799119D01*
X187978724Y-60799119D01*
X190500000Y-63320395D01*
X193021276Y-60799119D01*
X192661088Y-60309452D01*
X191997118Y-59949151D01*
X191275615Y-59725306D01*
X190524305Y-59646520D01*
X189772062Y-59715822D01*
X189047792Y-59930548D01*
X188379330Y-60282445D01*
X188338912Y-60309452D01*
X187978724Y-60799119D01*
X97815000Y-60799119D01*
X97815000Y-58452279D01*
X97829722Y-58302131D01*
X97863953Y-58188754D01*
X97919555Y-58084181D01*
X97994407Y-57992404D01*
X98085664Y-57916909D01*
X98189844Y-57860581D01*
X98302976Y-57825560D01*
X98451022Y-57810000D01*
X193642721Y-57810000D01*
X193792869Y-57824722D01*
M02*
