G04 #@! TF.GenerationSoftware,KiCad,Pcbnew,(5.1.5)-3*
G04 #@! TF.CreationDate,2020-04-17T22:42:38-05:00*
G04 #@! TF.ProjectId,Breadboard-Power-Connectors,42726561-6462-46f6-9172-642d506f7765,rev?*
G04 #@! TF.SameCoordinates,Original*
G04 #@! TF.FileFunction,Legend,Top*
G04 #@! TF.FilePolarity,Positive*
%FSLAX46Y46*%
G04 Gerber Fmt 4.6, Leading zero omitted, Abs format (unit mm)*
G04 Created by KiCad (PCBNEW (5.1.5)-3) date 2020-04-17 22:42:38*
%MOMM*%
%LPD*%
G04 APERTURE LIST*
%ADD10C,0.250000*%
%ADD11C,0.300000*%
%ADD12C,0.120000*%
%ADD13C,0.150000*%
G04 APERTURE END LIST*
D10*
X192825714Y-87700238D02*
X193635238Y-87700238D01*
X193730476Y-87747857D01*
X193778095Y-87795476D01*
X193825714Y-87890714D01*
X193825714Y-88033571D01*
X193778095Y-88128809D01*
X193444761Y-87700238D02*
X193492380Y-87795476D01*
X193492380Y-87985952D01*
X193444761Y-88081190D01*
X193397142Y-88128809D01*
X193301904Y-88176428D01*
X193016190Y-88176428D01*
X192920952Y-88128809D01*
X192873333Y-88081190D01*
X192825714Y-87985952D01*
X192825714Y-87795476D01*
X192873333Y-87700238D01*
X193492380Y-87224047D02*
X192825714Y-87224047D01*
X192492380Y-87224047D02*
X192540000Y-87271666D01*
X192587619Y-87224047D01*
X192540000Y-87176428D01*
X192492380Y-87224047D01*
X192587619Y-87224047D01*
X192825714Y-86890714D02*
X192825714Y-86509761D01*
X192492380Y-86747857D02*
X193349523Y-86747857D01*
X193444761Y-86700238D01*
X193492380Y-86605000D01*
X193492380Y-86509761D01*
X193492380Y-86176428D02*
X192492380Y-86176428D01*
X193492380Y-85747857D02*
X192968571Y-85747857D01*
X192873333Y-85795476D01*
X192825714Y-85890714D01*
X192825714Y-86033571D01*
X192873333Y-86128809D01*
X192920952Y-86176428D01*
X192825714Y-84843095D02*
X193492380Y-84843095D01*
X192825714Y-85271666D02*
X193349523Y-85271666D01*
X193444761Y-85224047D01*
X193492380Y-85128809D01*
X193492380Y-84985952D01*
X193444761Y-84890714D01*
X193397142Y-84843095D01*
X193492380Y-84366904D02*
X192492380Y-84366904D01*
X192873333Y-84366904D02*
X192825714Y-84271666D01*
X192825714Y-84081190D01*
X192873333Y-83985952D01*
X192920952Y-83938333D01*
X193016190Y-83890714D01*
X193301904Y-83890714D01*
X193397142Y-83938333D01*
X193444761Y-83985952D01*
X193492380Y-84081190D01*
X193492380Y-84271666D01*
X193444761Y-84366904D01*
X193397142Y-83462142D02*
X193444761Y-83414523D01*
X193492380Y-83462142D01*
X193444761Y-83509761D01*
X193397142Y-83462142D01*
X193492380Y-83462142D01*
X193444761Y-82557380D02*
X193492380Y-82652619D01*
X193492380Y-82843095D01*
X193444761Y-82938333D01*
X193397142Y-82985952D01*
X193301904Y-83033571D01*
X193016190Y-83033571D01*
X192920952Y-82985952D01*
X192873333Y-82938333D01*
X192825714Y-82843095D01*
X192825714Y-82652619D01*
X192873333Y-82557380D01*
X193492380Y-81985952D02*
X193444761Y-82081190D01*
X193397142Y-82128809D01*
X193301904Y-82176428D01*
X193016190Y-82176428D01*
X192920952Y-82128809D01*
X192873333Y-82081190D01*
X192825714Y-81985952D01*
X192825714Y-81843095D01*
X192873333Y-81747857D01*
X192920952Y-81700238D01*
X193016190Y-81652619D01*
X193301904Y-81652619D01*
X193397142Y-81700238D01*
X193444761Y-81747857D01*
X193492380Y-81843095D01*
X193492380Y-81985952D01*
X193492380Y-81224047D02*
X192825714Y-81224047D01*
X192920952Y-81224047D02*
X192873333Y-81176428D01*
X192825714Y-81081190D01*
X192825714Y-80938333D01*
X192873333Y-80843095D01*
X192968571Y-80795476D01*
X193492380Y-80795476D01*
X192968571Y-80795476D02*
X192873333Y-80747857D01*
X192825714Y-80652619D01*
X192825714Y-80509761D01*
X192873333Y-80414523D01*
X192968571Y-80366904D01*
X193492380Y-80366904D01*
X192444761Y-79176428D02*
X193730476Y-80033571D01*
X193492380Y-78843095D02*
X192492380Y-78843095D01*
X193206666Y-78509761D01*
X192492380Y-78176428D01*
X193492380Y-78176428D01*
X193492380Y-77271666D02*
X192968571Y-77271666D01*
X192873333Y-77319285D01*
X192825714Y-77414523D01*
X192825714Y-77605000D01*
X192873333Y-77700238D01*
X193444761Y-77271666D02*
X193492380Y-77366904D01*
X193492380Y-77605000D01*
X193444761Y-77700238D01*
X193349523Y-77747857D01*
X193254285Y-77747857D01*
X193159047Y-77700238D01*
X193111428Y-77605000D01*
X193111428Y-77366904D01*
X193063809Y-77271666D01*
X193492380Y-76795476D02*
X192825714Y-76795476D01*
X193016190Y-76795476D02*
X192920952Y-76747857D01*
X192873333Y-76700238D01*
X192825714Y-76605000D01*
X192825714Y-76509761D01*
X193492380Y-76176428D02*
X192492380Y-76176428D01*
X193111428Y-76081190D02*
X193492380Y-75795476D01*
X192825714Y-75795476D02*
X193206666Y-76176428D01*
X192968571Y-75033571D02*
X192968571Y-75366904D01*
X193492380Y-75366904D02*
X192492380Y-75366904D01*
X192492380Y-74890714D01*
X193492380Y-74509761D02*
X192825714Y-74509761D01*
X193016190Y-74509761D02*
X192920952Y-74462142D01*
X192873333Y-74414523D01*
X192825714Y-74319285D01*
X192825714Y-74224047D01*
X193492380Y-73747857D02*
X193444761Y-73843095D01*
X193397142Y-73890714D01*
X193301904Y-73938333D01*
X193016190Y-73938333D01*
X192920952Y-73890714D01*
X192873333Y-73843095D01*
X192825714Y-73747857D01*
X192825714Y-73605000D01*
X192873333Y-73509761D01*
X192920952Y-73462142D01*
X193016190Y-73414523D01*
X193301904Y-73414523D01*
X193397142Y-73462142D01*
X193444761Y-73509761D01*
X193492380Y-73605000D01*
X193492380Y-73747857D01*
X193492380Y-72985952D02*
X192825714Y-72985952D01*
X192920952Y-72985952D02*
X192873333Y-72938333D01*
X192825714Y-72843095D01*
X192825714Y-72700238D01*
X192873333Y-72605000D01*
X192968571Y-72557380D01*
X193492380Y-72557380D01*
X192968571Y-72557380D02*
X192873333Y-72509761D01*
X192825714Y-72414523D01*
X192825714Y-72271666D01*
X192873333Y-72176428D01*
X192968571Y-72128809D01*
X193492380Y-72128809D01*
X193444761Y-71700238D02*
X193492380Y-71557380D01*
X193492380Y-71319285D01*
X193444761Y-71224047D01*
X193397142Y-71176428D01*
X193301904Y-71128809D01*
X193206666Y-71128809D01*
X193111428Y-71176428D01*
X193063809Y-71224047D01*
X193016190Y-71319285D01*
X192968571Y-71509761D01*
X192920952Y-71605000D01*
X192873333Y-71652619D01*
X192778095Y-71700238D01*
X192682857Y-71700238D01*
X192587619Y-71652619D01*
X192540000Y-71605000D01*
X192492380Y-71509761D01*
X192492380Y-71271666D01*
X192540000Y-71128809D01*
X193492380Y-70271666D02*
X192968571Y-70271666D01*
X192873333Y-70319285D01*
X192825714Y-70414523D01*
X192825714Y-70605000D01*
X192873333Y-70700238D01*
X193444761Y-70271666D02*
X193492380Y-70366904D01*
X193492380Y-70605000D01*
X193444761Y-70700238D01*
X193349523Y-70747857D01*
X193254285Y-70747857D01*
X193159047Y-70700238D01*
X193111428Y-70605000D01*
X193111428Y-70366904D01*
X193063809Y-70271666D01*
X193492380Y-69652619D02*
X193444761Y-69747857D01*
X193349523Y-69795476D01*
X192492380Y-69795476D01*
X193444761Y-68890714D02*
X193492380Y-68985952D01*
X193492380Y-69176428D01*
X193444761Y-69271666D01*
X193349523Y-69319285D01*
X192968571Y-69319285D01*
X192873333Y-69271666D01*
X192825714Y-69176428D01*
X192825714Y-68985952D01*
X192873333Y-68890714D01*
X192968571Y-68843095D01*
X193063809Y-68843095D01*
X193159047Y-69319285D01*
X193444761Y-68462142D02*
X193492380Y-68366904D01*
X193492380Y-68176428D01*
X193444761Y-68081190D01*
X193349523Y-68033571D01*
X193301904Y-68033571D01*
X193206666Y-68081190D01*
X193159047Y-68176428D01*
X193159047Y-68319285D01*
X193111428Y-68414523D01*
X193016190Y-68462142D01*
X192968571Y-68462142D01*
X192873333Y-68414523D01*
X192825714Y-68319285D01*
X192825714Y-68176428D01*
X192873333Y-68081190D01*
D11*
X189908571Y-86176428D02*
X188408571Y-86176428D01*
X189480000Y-85676428D01*
X188408571Y-85176428D01*
X189908571Y-85176428D01*
X189908571Y-83819285D02*
X189122857Y-83819285D01*
X188980000Y-83890714D01*
X188908571Y-84033571D01*
X188908571Y-84319285D01*
X188980000Y-84462142D01*
X189837142Y-83819285D02*
X189908571Y-83962142D01*
X189908571Y-84319285D01*
X189837142Y-84462142D01*
X189694285Y-84533571D01*
X189551428Y-84533571D01*
X189408571Y-84462142D01*
X189337142Y-84319285D01*
X189337142Y-83962142D01*
X189265714Y-83819285D01*
X189908571Y-83105000D02*
X188908571Y-83105000D01*
X189194285Y-83105000D02*
X189051428Y-83033571D01*
X188980000Y-82962142D01*
X188908571Y-82819285D01*
X188908571Y-82676428D01*
X189908571Y-82176428D02*
X188408571Y-82176428D01*
X189337142Y-82033571D02*
X189908571Y-81605000D01*
X188908571Y-81605000D02*
X189480000Y-82176428D01*
X189122857Y-80462142D02*
X189122857Y-80962142D01*
X189908571Y-80962142D02*
X188408571Y-80962142D01*
X188408571Y-80247857D01*
X189908571Y-79676428D02*
X188908571Y-79676428D01*
X189194285Y-79676428D02*
X189051428Y-79605000D01*
X188980000Y-79533571D01*
X188908571Y-79390714D01*
X188908571Y-79247857D01*
X189908571Y-78533571D02*
X189837142Y-78676428D01*
X189765714Y-78747857D01*
X189622857Y-78819285D01*
X189194285Y-78819285D01*
X189051428Y-78747857D01*
X188980000Y-78676428D01*
X188908571Y-78533571D01*
X188908571Y-78319285D01*
X188980000Y-78176428D01*
X189051428Y-78105000D01*
X189194285Y-78033571D01*
X189622857Y-78033571D01*
X189765714Y-78105000D01*
X189837142Y-78176428D01*
X189908571Y-78319285D01*
X189908571Y-78533571D01*
X189908571Y-77390714D02*
X188908571Y-77390714D01*
X189051428Y-77390714D02*
X188980000Y-77319285D01*
X188908571Y-77176428D01*
X188908571Y-76962142D01*
X188980000Y-76819285D01*
X189122857Y-76747857D01*
X189908571Y-76747857D01*
X189122857Y-76747857D02*
X188980000Y-76676428D01*
X188908571Y-76533571D01*
X188908571Y-76319285D01*
X188980000Y-76176428D01*
X189122857Y-76105000D01*
X189908571Y-76105000D01*
X189837142Y-75462142D02*
X189908571Y-75247857D01*
X189908571Y-74890714D01*
X189837142Y-74747857D01*
X189765714Y-74676428D01*
X189622857Y-74605000D01*
X189480000Y-74605000D01*
X189337142Y-74676428D01*
X189265714Y-74747857D01*
X189194285Y-74890714D01*
X189122857Y-75176428D01*
X189051428Y-75319285D01*
X188980000Y-75390714D01*
X188837142Y-75462142D01*
X188694285Y-75462142D01*
X188551428Y-75390714D01*
X188480000Y-75319285D01*
X188408571Y-75176428D01*
X188408571Y-74819285D01*
X188480000Y-74605000D01*
X189908571Y-73319285D02*
X189122857Y-73319285D01*
X188980000Y-73390714D01*
X188908571Y-73533571D01*
X188908571Y-73819285D01*
X188980000Y-73962142D01*
X189837142Y-73319285D02*
X189908571Y-73462142D01*
X189908571Y-73819285D01*
X189837142Y-73962142D01*
X189694285Y-74033571D01*
X189551428Y-74033571D01*
X189408571Y-73962142D01*
X189337142Y-73819285D01*
X189337142Y-73462142D01*
X189265714Y-73319285D01*
X189908571Y-72390714D02*
X189837142Y-72533571D01*
X189694285Y-72605000D01*
X188408571Y-72605000D01*
X189837142Y-71247857D02*
X189908571Y-71390714D01*
X189908571Y-71676428D01*
X189837142Y-71819285D01*
X189694285Y-71890714D01*
X189122857Y-71890714D01*
X188980000Y-71819285D01*
X188908571Y-71676428D01*
X188908571Y-71390714D01*
X188980000Y-71247857D01*
X189122857Y-71176428D01*
X189265714Y-71176428D01*
X189408571Y-71890714D01*
X189837142Y-70605000D02*
X189908571Y-70462142D01*
X189908571Y-70176428D01*
X189837142Y-70033571D01*
X189694285Y-69962142D01*
X189622857Y-69962142D01*
X189480000Y-70033571D01*
X189408571Y-70176428D01*
X189408571Y-70390714D01*
X189337142Y-70533571D01*
X189194285Y-70605000D01*
X189122857Y-70605000D01*
X188980000Y-70533571D01*
X188908571Y-70390714D01*
X188908571Y-70176428D01*
X188980000Y-70033571D01*
D12*
X104385000Y-73860000D02*
X98815000Y-73860000D01*
X98815000Y-73860000D02*
X98815000Y-83620000D01*
X98815000Y-83620000D02*
X104385000Y-83620000D01*
X104385000Y-83620000D02*
X104385000Y-73860000D01*
X101600000Y-73830000D02*
X101600000Y-73860000D01*
X101600000Y-83650000D02*
X101600000Y-83620000D01*
X104385000Y-75408000D02*
X98815000Y-75408000D01*
X104385000Y-75528000D02*
X98815000Y-75528000D01*
X104385000Y-75288000D02*
X98815000Y-75288000D01*
X143265000Y-82192000D02*
X148835000Y-82192000D01*
X143265000Y-81952000D02*
X148835000Y-81952000D01*
X143265000Y-82072000D02*
X148835000Y-82072000D01*
X146050000Y-73830000D02*
X146050000Y-73860000D01*
X146050000Y-83650000D02*
X146050000Y-83620000D01*
X143265000Y-73860000D02*
X143265000Y-83620000D01*
X148835000Y-73860000D02*
X143265000Y-73860000D01*
X148835000Y-83620000D02*
X148835000Y-73860000D01*
X143265000Y-83620000D02*
X148835000Y-83620000D01*
X110920000Y-83663000D02*
X110920000Y-81427000D01*
X110137000Y-79449000D02*
X109430000Y-79449000D01*
X109430000Y-79449000D02*
X107430000Y-70220000D01*
X107430000Y-70220000D02*
X107430000Y-60990000D01*
X107430000Y-60990000D02*
X108430000Y-60990000D01*
X108430000Y-60990000D02*
X108430000Y-57990000D01*
X108430000Y-57990000D02*
X120170000Y-57990000D01*
X120170000Y-57990000D02*
X120170000Y-60990000D01*
X120170000Y-60990000D02*
X121170000Y-60990000D01*
X121170000Y-60990000D02*
X121170000Y-70220000D01*
X121170000Y-70220000D02*
X119170000Y-79449000D01*
X119170000Y-79449000D02*
X118463000Y-79449000D01*
X117680000Y-81427000D02*
X117680000Y-83662000D01*
X115415000Y-85930000D02*
X113184000Y-85930000D01*
X108870000Y-95560000D02*
X119731000Y-95560000D01*
X108870000Y-90460000D02*
X119731000Y-90460000D01*
X108870000Y-89340000D02*
X119731000Y-89340000D01*
X108870000Y-96080000D02*
X119731000Y-96080000D01*
X108870000Y-89340000D02*
X108870000Y-96080000D01*
X119731000Y-89340000D02*
X119731000Y-96080000D01*
X108630000Y-95680000D02*
X108630000Y-96320000D01*
X108630000Y-96320000D02*
X109030000Y-96320000D01*
X134465000Y-85930000D02*
X132234000Y-85930000D01*
X136730000Y-81427000D02*
X136730000Y-83662000D01*
X138220000Y-79449000D02*
X137513000Y-79449000D01*
X140220000Y-70220000D02*
X138220000Y-79449000D01*
X140220000Y-60990000D02*
X140220000Y-70220000D01*
X139220000Y-60990000D02*
X140220000Y-60990000D01*
X139220000Y-57990000D02*
X139220000Y-60990000D01*
X127480000Y-57990000D02*
X139220000Y-57990000D01*
X127480000Y-60990000D02*
X127480000Y-57990000D01*
X126480000Y-60990000D02*
X127480000Y-60990000D01*
X126480000Y-70220000D02*
X126480000Y-60990000D01*
X128480000Y-79449000D02*
X126480000Y-70220000D01*
X129187000Y-79449000D02*
X128480000Y-79449000D01*
X129970000Y-83663000D02*
X129970000Y-81427000D01*
X127680000Y-96320000D02*
X128080000Y-96320000D01*
X127680000Y-95680000D02*
X127680000Y-96320000D01*
X138781000Y-89340000D02*
X138781000Y-96080000D01*
X127920000Y-89340000D02*
X127920000Y-96080000D01*
X127920000Y-96080000D02*
X138781000Y-96080000D01*
X127920000Y-89340000D02*
X138781000Y-89340000D01*
X127920000Y-90460000D02*
X138781000Y-90460000D01*
X127920000Y-95560000D02*
X138781000Y-95560000D01*
X155370000Y-83663000D02*
X155370000Y-81427000D01*
X154587000Y-79449000D02*
X153880000Y-79449000D01*
X153880000Y-79449000D02*
X151880000Y-70220000D01*
X151880000Y-70220000D02*
X151880000Y-60990000D01*
X151880000Y-60990000D02*
X152880000Y-60990000D01*
X152880000Y-60990000D02*
X152880000Y-57990000D01*
X152880000Y-57990000D02*
X164620000Y-57990000D01*
X164620000Y-57990000D02*
X164620000Y-60990000D01*
X164620000Y-60990000D02*
X165620000Y-60990000D01*
X165620000Y-60990000D02*
X165620000Y-70220000D01*
X165620000Y-70220000D02*
X163620000Y-79449000D01*
X163620000Y-79449000D02*
X162913000Y-79449000D01*
X162130000Y-81427000D02*
X162130000Y-83662000D01*
X159865000Y-85930000D02*
X157634000Y-85930000D01*
X153320000Y-95560000D02*
X164181000Y-95560000D01*
X153320000Y-90460000D02*
X164181000Y-90460000D01*
X153320000Y-89340000D02*
X164181000Y-89340000D01*
X153320000Y-96080000D02*
X164181000Y-96080000D01*
X153320000Y-89340000D02*
X153320000Y-96080000D01*
X164181000Y-89340000D02*
X164181000Y-96080000D01*
X153080000Y-95680000D02*
X153080000Y-96320000D01*
X153080000Y-96320000D02*
X153480000Y-96320000D01*
X178915000Y-85930000D02*
X176684000Y-85930000D01*
X181180000Y-81427000D02*
X181180000Y-83662000D01*
X182670000Y-79449000D02*
X181963000Y-79449000D01*
X184670000Y-70220000D02*
X182670000Y-79449000D01*
X184670000Y-60990000D02*
X184670000Y-70220000D01*
X183670000Y-60990000D02*
X184670000Y-60990000D01*
X183670000Y-57990000D02*
X183670000Y-60990000D01*
X171930000Y-57990000D02*
X183670000Y-57990000D01*
X171930000Y-60990000D02*
X171930000Y-57990000D01*
X170930000Y-60990000D02*
X171930000Y-60990000D01*
X170930000Y-70220000D02*
X170930000Y-60990000D01*
X172930000Y-79449000D02*
X170930000Y-70220000D01*
X173637000Y-79449000D02*
X172930000Y-79449000D01*
X174420000Y-83663000D02*
X174420000Y-81427000D01*
X172370000Y-95560000D02*
X183231000Y-95560000D01*
X172370000Y-90460000D02*
X183231000Y-90460000D01*
X172370000Y-89340000D02*
X183231000Y-89340000D01*
X172370000Y-96080000D02*
X183231000Y-96080000D01*
X172370000Y-89340000D02*
X172370000Y-96080000D01*
X183231000Y-89340000D02*
X183231000Y-96080000D01*
X172130000Y-95680000D02*
X172130000Y-96320000D01*
X172130000Y-96320000D02*
X172530000Y-96320000D01*
D13*
X100861904Y-79827380D02*
X100861904Y-78827380D01*
X101100000Y-78827380D01*
X101242857Y-78875000D01*
X101338095Y-78970238D01*
X101385714Y-79065476D01*
X101433333Y-79255952D01*
X101433333Y-79398809D01*
X101385714Y-79589285D01*
X101338095Y-79684523D01*
X101242857Y-79779761D01*
X101100000Y-79827380D01*
X100861904Y-79827380D01*
X102385714Y-79827380D02*
X101814285Y-79827380D01*
X102100000Y-79827380D02*
X102100000Y-78827380D01*
X102004761Y-78970238D01*
X101909523Y-79065476D01*
X101814285Y-79113095D01*
X145311904Y-79827380D02*
X145311904Y-78827380D01*
X145550000Y-78827380D01*
X145692857Y-78875000D01*
X145788095Y-78970238D01*
X145835714Y-79065476D01*
X145883333Y-79255952D01*
X145883333Y-79398809D01*
X145835714Y-79589285D01*
X145788095Y-79684523D01*
X145692857Y-79779761D01*
X145550000Y-79827380D01*
X145311904Y-79827380D01*
X146264285Y-78922619D02*
X146311904Y-78875000D01*
X146407142Y-78827380D01*
X146645238Y-78827380D01*
X146740476Y-78875000D01*
X146788095Y-78922619D01*
X146835714Y-79017857D01*
X146835714Y-79113095D01*
X146788095Y-79255952D01*
X146216666Y-79827380D01*
X146835714Y-79827380D01*
X113966666Y-71842380D02*
X113966666Y-72556666D01*
X113919047Y-72699523D01*
X113823809Y-72794761D01*
X113680952Y-72842380D01*
X113585714Y-72842380D01*
X114966666Y-72842380D02*
X114395238Y-72842380D01*
X114680952Y-72842380D02*
X114680952Y-71842380D01*
X114585714Y-71985238D01*
X114490476Y-72080476D01*
X114395238Y-72128095D01*
X113906666Y-94142380D02*
X113906666Y-94856666D01*
X113859047Y-94999523D01*
X113763809Y-95094761D01*
X113620952Y-95142380D01*
X113525714Y-95142380D01*
X114335238Y-94237619D02*
X114382857Y-94190000D01*
X114478095Y-94142380D01*
X114716190Y-94142380D01*
X114811428Y-94190000D01*
X114859047Y-94237619D01*
X114906666Y-94332857D01*
X114906666Y-94428095D01*
X114859047Y-94570952D01*
X114287619Y-95142380D01*
X114906666Y-95142380D01*
X133016666Y-71842380D02*
X133016666Y-72556666D01*
X132969047Y-72699523D01*
X132873809Y-72794761D01*
X132730952Y-72842380D01*
X132635714Y-72842380D01*
X133397619Y-71842380D02*
X134016666Y-71842380D01*
X133683333Y-72223333D01*
X133826190Y-72223333D01*
X133921428Y-72270952D01*
X133969047Y-72318571D01*
X134016666Y-72413809D01*
X134016666Y-72651904D01*
X133969047Y-72747142D01*
X133921428Y-72794761D01*
X133826190Y-72842380D01*
X133540476Y-72842380D01*
X133445238Y-72794761D01*
X133397619Y-72747142D01*
X133056666Y-94152380D02*
X133056666Y-94866666D01*
X133009047Y-95009523D01*
X132913809Y-95104761D01*
X132770952Y-95152380D01*
X132675714Y-95152380D01*
X133961428Y-94485714D02*
X133961428Y-95152380D01*
X133723333Y-94104761D02*
X133485238Y-94819047D01*
X134104285Y-94819047D01*
X158416666Y-71842380D02*
X158416666Y-72556666D01*
X158369047Y-72699523D01*
X158273809Y-72794761D01*
X158130952Y-72842380D01*
X158035714Y-72842380D01*
X159369047Y-71842380D02*
X158892857Y-71842380D01*
X158845238Y-72318571D01*
X158892857Y-72270952D01*
X158988095Y-72223333D01*
X159226190Y-72223333D01*
X159321428Y-72270952D01*
X159369047Y-72318571D01*
X159416666Y-72413809D01*
X159416666Y-72651904D01*
X159369047Y-72747142D01*
X159321428Y-72794761D01*
X159226190Y-72842380D01*
X158988095Y-72842380D01*
X158892857Y-72794761D01*
X158845238Y-72747142D01*
X158416666Y-94252380D02*
X158416666Y-94966666D01*
X158369047Y-95109523D01*
X158273809Y-95204761D01*
X158130952Y-95252380D01*
X158035714Y-95252380D01*
X159321428Y-94252380D02*
X159130952Y-94252380D01*
X159035714Y-94300000D01*
X158988095Y-94347619D01*
X158892857Y-94490476D01*
X158845238Y-94680952D01*
X158845238Y-95061904D01*
X158892857Y-95157142D01*
X158940476Y-95204761D01*
X159035714Y-95252380D01*
X159226190Y-95252380D01*
X159321428Y-95204761D01*
X159369047Y-95157142D01*
X159416666Y-95061904D01*
X159416666Y-94823809D01*
X159369047Y-94728571D01*
X159321428Y-94680952D01*
X159226190Y-94633333D01*
X159035714Y-94633333D01*
X158940476Y-94680952D01*
X158892857Y-94728571D01*
X158845238Y-94823809D01*
X177466666Y-71842380D02*
X177466666Y-72556666D01*
X177419047Y-72699523D01*
X177323809Y-72794761D01*
X177180952Y-72842380D01*
X177085714Y-72842380D01*
X177847619Y-71842380D02*
X178514285Y-71842380D01*
X178085714Y-72842380D01*
X177406666Y-94252380D02*
X177406666Y-94966666D01*
X177359047Y-95109523D01*
X177263809Y-95204761D01*
X177120952Y-95252380D01*
X177025714Y-95252380D01*
X178025714Y-94680952D02*
X177930476Y-94633333D01*
X177882857Y-94585714D01*
X177835238Y-94490476D01*
X177835238Y-94442857D01*
X177882857Y-94347619D01*
X177930476Y-94300000D01*
X178025714Y-94252380D01*
X178216190Y-94252380D01*
X178311428Y-94300000D01*
X178359047Y-94347619D01*
X178406666Y-94442857D01*
X178406666Y-94490476D01*
X178359047Y-94585714D01*
X178311428Y-94633333D01*
X178216190Y-94680952D01*
X178025714Y-94680952D01*
X177930476Y-94728571D01*
X177882857Y-94776190D01*
X177835238Y-94871428D01*
X177835238Y-95061904D01*
X177882857Y-95157142D01*
X177930476Y-95204761D01*
X178025714Y-95252380D01*
X178216190Y-95252380D01*
X178311428Y-95204761D01*
X178359047Y-95157142D01*
X178406666Y-95061904D01*
X178406666Y-94871428D01*
X178359047Y-94776190D01*
X178311428Y-94728571D01*
X178216190Y-94680952D01*
M02*
