G04 #@! TF.GenerationSoftware,KiCad,Pcbnew,(5.0.2)-1*
G04 #@! TF.CreationDate,2019-05-12T21:22:09-05:00*
G04 #@! TF.ProjectId,C64-Power-Supply,4336342d-506f-4776-9572-2d537570706c,0.1*
G04 #@! TF.SameCoordinates,Original*
G04 #@! TF.FileFunction,Legend,Bot*
G04 #@! TF.FilePolarity,Positive*
%FSLAX46Y46*%
G04 Gerber Fmt 4.6, Leading zero omitted, Abs format (unit mm)*
G04 Created by KiCad (PCBNEW (5.0.2)-1) date 5/12/2019 9:22:09 PM*
%MOMM*%
%LPD*%
G01*
G04 APERTURE LIST*
%ADD10C,0.300000*%
G04 APERTURE END LIST*
D10*
X78408571Y-63862857D02*
X79408571Y-64148571D01*
X78694285Y-64434285D01*
X79408571Y-64720000D01*
X78408571Y-65005714D01*
X78408571Y-65434285D02*
X79408571Y-65720000D01*
X78694285Y-66005714D01*
X79408571Y-66291428D01*
X78408571Y-66577142D01*
X78408571Y-67005714D02*
X79408571Y-67291428D01*
X78694285Y-67577142D01*
X79408571Y-67862857D01*
X78408571Y-68148571D01*
X79265714Y-68720000D02*
X79337142Y-68791428D01*
X79408571Y-68720000D01*
X79337142Y-68648571D01*
X79265714Y-68720000D01*
X79408571Y-68720000D01*
X79408571Y-69434285D02*
X77908571Y-69434285D01*
X78980000Y-69934285D01*
X77908571Y-70434285D01*
X79408571Y-70434285D01*
X79408571Y-71791428D02*
X78622857Y-71791428D01*
X78480000Y-71720000D01*
X78408571Y-71577142D01*
X78408571Y-71291428D01*
X78480000Y-71148571D01*
X79337142Y-71791428D02*
X79408571Y-71648571D01*
X79408571Y-71291428D01*
X79337142Y-71148571D01*
X79194285Y-71077142D01*
X79051428Y-71077142D01*
X78908571Y-71148571D01*
X78837142Y-71291428D01*
X78837142Y-71648571D01*
X78765714Y-71791428D01*
X79408571Y-72505714D02*
X78408571Y-72505714D01*
X78694285Y-72505714D02*
X78551428Y-72577142D01*
X78480000Y-72648571D01*
X78408571Y-72791428D01*
X78408571Y-72934285D01*
X79408571Y-73434285D02*
X77908571Y-73434285D01*
X78837142Y-73577142D02*
X79408571Y-74005714D01*
X78408571Y-74005714D02*
X78980000Y-73434285D01*
X78622857Y-75148571D02*
X78622857Y-74648571D01*
X79408571Y-74648571D02*
X77908571Y-74648571D01*
X77908571Y-75362857D01*
X79408571Y-75934285D02*
X78408571Y-75934285D01*
X78694285Y-75934285D02*
X78551428Y-76005714D01*
X78480000Y-76077142D01*
X78408571Y-76220000D01*
X78408571Y-76362857D01*
X79408571Y-77077142D02*
X79337142Y-76934285D01*
X79265714Y-76862857D01*
X79122857Y-76791428D01*
X78694285Y-76791428D01*
X78551428Y-76862857D01*
X78480000Y-76934285D01*
X78408571Y-77077142D01*
X78408571Y-77291428D01*
X78480000Y-77434285D01*
X78551428Y-77505714D01*
X78694285Y-77577142D01*
X79122857Y-77577142D01*
X79265714Y-77505714D01*
X79337142Y-77434285D01*
X79408571Y-77291428D01*
X79408571Y-77077142D01*
X79408571Y-78219999D02*
X78408571Y-78219999D01*
X78551428Y-78219999D02*
X78480000Y-78291428D01*
X78408571Y-78434285D01*
X78408571Y-78648571D01*
X78480000Y-78791428D01*
X78622857Y-78862857D01*
X79408571Y-78862857D01*
X78622857Y-78862857D02*
X78480000Y-78934285D01*
X78408571Y-79077142D01*
X78408571Y-79291428D01*
X78480000Y-79434285D01*
X78622857Y-79505714D01*
X79408571Y-79505714D01*
X79337142Y-80148571D02*
X79408571Y-80362857D01*
X79408571Y-80719999D01*
X79337142Y-80862857D01*
X79265714Y-80934285D01*
X79122857Y-81005714D01*
X78980000Y-81005714D01*
X78837142Y-80934285D01*
X78765714Y-80862857D01*
X78694285Y-80719999D01*
X78622857Y-80434285D01*
X78551428Y-80291428D01*
X78480000Y-80219999D01*
X78337142Y-80148571D01*
X78194285Y-80148571D01*
X78051428Y-80219999D01*
X77980000Y-80291428D01*
X77908571Y-80434285D01*
X77908571Y-80791428D01*
X77980000Y-81005714D01*
X79408571Y-82291428D02*
X78622857Y-82291428D01*
X78480000Y-82220000D01*
X78408571Y-82077142D01*
X78408571Y-81791428D01*
X78480000Y-81648571D01*
X79337142Y-82291428D02*
X79408571Y-82148571D01*
X79408571Y-81791428D01*
X79337142Y-81648571D01*
X79194285Y-81577142D01*
X79051428Y-81577142D01*
X78908571Y-81648571D01*
X78837142Y-81791428D01*
X78837142Y-82148571D01*
X78765714Y-82291428D01*
X79408571Y-83219999D02*
X79337142Y-83077142D01*
X79194285Y-83005714D01*
X77908571Y-83005714D01*
X79337142Y-84362857D02*
X79408571Y-84219999D01*
X79408571Y-83934285D01*
X79337142Y-83791428D01*
X79194285Y-83719999D01*
X78622857Y-83719999D01*
X78480000Y-83791428D01*
X78408571Y-83934285D01*
X78408571Y-84219999D01*
X78480000Y-84362857D01*
X78622857Y-84434285D01*
X78765714Y-84434285D01*
X78908571Y-83719999D01*
X79337142Y-85005714D02*
X79408571Y-85148571D01*
X79408571Y-85434285D01*
X79337142Y-85577142D01*
X79194285Y-85648571D01*
X79122857Y-85648571D01*
X78980000Y-85577142D01*
X78908571Y-85434285D01*
X78908571Y-85219999D01*
X78837142Y-85077142D01*
X78694285Y-85005714D01*
X78622857Y-85005714D01*
X78480000Y-85077142D01*
X78408571Y-85219999D01*
X78408571Y-85434285D01*
X78480000Y-85577142D01*
X79265714Y-86291428D02*
X79337142Y-86362857D01*
X79408571Y-86291428D01*
X79337142Y-86219999D01*
X79265714Y-86291428D01*
X79408571Y-86291428D01*
X79337142Y-87648571D02*
X79408571Y-87505714D01*
X79408571Y-87219999D01*
X79337142Y-87077142D01*
X79265714Y-87005714D01*
X79122857Y-86934285D01*
X78694285Y-86934285D01*
X78551428Y-87005714D01*
X78480000Y-87077142D01*
X78408571Y-87219999D01*
X78408571Y-87505714D01*
X78480000Y-87648571D01*
X79408571Y-88505714D02*
X79337142Y-88362857D01*
X79265714Y-88291428D01*
X79122857Y-88219999D01*
X78694285Y-88219999D01*
X78551428Y-88291428D01*
X78480000Y-88362857D01*
X78408571Y-88505714D01*
X78408571Y-88719999D01*
X78480000Y-88862857D01*
X78551428Y-88934285D01*
X78694285Y-89005714D01*
X79122857Y-89005714D01*
X79265714Y-88934285D01*
X79337142Y-88862857D01*
X79408571Y-88719999D01*
X79408571Y-88505714D01*
X79408571Y-89648571D02*
X78408571Y-89648571D01*
X78551428Y-89648571D02*
X78480000Y-89720000D01*
X78408571Y-89862857D01*
X78408571Y-90077142D01*
X78480000Y-90220000D01*
X78622857Y-90291428D01*
X79408571Y-90291428D01*
X78622857Y-90291428D02*
X78480000Y-90362857D01*
X78408571Y-90505714D01*
X78408571Y-90720000D01*
X78480000Y-90862857D01*
X78622857Y-90934285D01*
X79408571Y-90934285D01*
X81815714Y-68327142D02*
X81887142Y-68255714D01*
X81958571Y-68041428D01*
X81958571Y-67898571D01*
X81887142Y-67684285D01*
X81744285Y-67541428D01*
X81601428Y-67470000D01*
X81315714Y-67398571D01*
X81101428Y-67398571D01*
X80815714Y-67470000D01*
X80672857Y-67541428D01*
X80530000Y-67684285D01*
X80458571Y-67898571D01*
X80458571Y-68041428D01*
X80530000Y-68255714D01*
X80601428Y-68327142D01*
X80458571Y-69612857D02*
X80458571Y-69327142D01*
X80530000Y-69184285D01*
X80601428Y-69112857D01*
X80815714Y-68970000D01*
X81101428Y-68898571D01*
X81672857Y-68898571D01*
X81815714Y-68970000D01*
X81887142Y-69041428D01*
X81958571Y-69184285D01*
X81958571Y-69470000D01*
X81887142Y-69612857D01*
X81815714Y-69684285D01*
X81672857Y-69755714D01*
X81315714Y-69755714D01*
X81172857Y-69684285D01*
X81101428Y-69612857D01*
X81030000Y-69470000D01*
X81030000Y-69184285D01*
X81101428Y-69041428D01*
X81172857Y-68970000D01*
X81315714Y-68898571D01*
X80958571Y-71041428D02*
X81958571Y-71041428D01*
X80387142Y-70684285D02*
X81458571Y-70327142D01*
X81458571Y-71255714D01*
X81958571Y-72970000D02*
X80458571Y-72970000D01*
X80458571Y-73541428D01*
X80530000Y-73684285D01*
X80601428Y-73755714D01*
X80744285Y-73827142D01*
X80958571Y-73827142D01*
X81101428Y-73755714D01*
X81172857Y-73684285D01*
X81244285Y-73541428D01*
X81244285Y-72970000D01*
X81958571Y-74684285D02*
X81887142Y-74541428D01*
X81815714Y-74470000D01*
X81672857Y-74398571D01*
X81244285Y-74398571D01*
X81101428Y-74470000D01*
X81030000Y-74541428D01*
X80958571Y-74684285D01*
X80958571Y-74898571D01*
X81030000Y-75041428D01*
X81101428Y-75112857D01*
X81244285Y-75184285D01*
X81672857Y-75184285D01*
X81815714Y-75112857D01*
X81887142Y-75041428D01*
X81958571Y-74898571D01*
X81958571Y-74684285D01*
X80958571Y-75684285D02*
X81958571Y-75970000D01*
X81244285Y-76255714D01*
X81958571Y-76541428D01*
X80958571Y-76827142D01*
X81887142Y-77970000D02*
X81958571Y-77827142D01*
X81958571Y-77541428D01*
X81887142Y-77398571D01*
X81744285Y-77327142D01*
X81172857Y-77327142D01*
X81030000Y-77398571D01*
X80958571Y-77541428D01*
X80958571Y-77827142D01*
X81030000Y-77970000D01*
X81172857Y-78041428D01*
X81315714Y-78041428D01*
X81458571Y-77327142D01*
X81958571Y-78684285D02*
X80958571Y-78684285D01*
X81244285Y-78684285D02*
X81101428Y-78755714D01*
X81030000Y-78827142D01*
X80958571Y-78970000D01*
X80958571Y-79112857D01*
X81887142Y-80684285D02*
X81958571Y-80898571D01*
X81958571Y-81255714D01*
X81887142Y-81398571D01*
X81815714Y-81470000D01*
X81672857Y-81541428D01*
X81530000Y-81541428D01*
X81387142Y-81470000D01*
X81315714Y-81398571D01*
X81244285Y-81255714D01*
X81172857Y-80970000D01*
X81101428Y-80827142D01*
X81030000Y-80755714D01*
X80887142Y-80684285D01*
X80744285Y-80684285D01*
X80601428Y-80755714D01*
X80530000Y-80827142D01*
X80458571Y-80970000D01*
X80458571Y-81327142D01*
X80530000Y-81541428D01*
X80958571Y-82827142D02*
X81958571Y-82827142D01*
X80958571Y-82184285D02*
X81744285Y-82184285D01*
X81887142Y-82255714D01*
X81958571Y-82398571D01*
X81958571Y-82612857D01*
X81887142Y-82755714D01*
X81815714Y-82827142D01*
X80958571Y-83541428D02*
X82458571Y-83541428D01*
X81030000Y-83541428D02*
X80958571Y-83684285D01*
X80958571Y-83970000D01*
X81030000Y-84112857D01*
X81101428Y-84184285D01*
X81244285Y-84255714D01*
X81672857Y-84255714D01*
X81815714Y-84184285D01*
X81887142Y-84112857D01*
X81958571Y-83970000D01*
X81958571Y-83684285D01*
X81887142Y-83541428D01*
X80958571Y-84898571D02*
X82458571Y-84898571D01*
X81030000Y-84898571D02*
X80958571Y-85041428D01*
X80958571Y-85327142D01*
X81030000Y-85470000D01*
X81101428Y-85541428D01*
X81244285Y-85612857D01*
X81672857Y-85612857D01*
X81815714Y-85541428D01*
X81887142Y-85470000D01*
X81958571Y-85327142D01*
X81958571Y-85041428D01*
X81887142Y-84898571D01*
X81958571Y-86470000D02*
X81887142Y-86327142D01*
X81744285Y-86255714D01*
X80458571Y-86255714D01*
X80958571Y-86898571D02*
X81958571Y-87255714D01*
X80958571Y-87612857D02*
X81958571Y-87255714D01*
X82315714Y-87112857D01*
X82387142Y-87041428D01*
X82458571Y-86898571D01*
X83508571Y-67970000D02*
X84508571Y-68327142D01*
X83508571Y-68684285D01*
X83151428Y-69184285D02*
X83080000Y-69255714D01*
X83008571Y-69398571D01*
X83008571Y-69755714D01*
X83080000Y-69898571D01*
X83151428Y-69970000D01*
X83294285Y-70041428D01*
X83437142Y-70041428D01*
X83651428Y-69970000D01*
X84508571Y-69112857D01*
X84508571Y-70041428D01*
X83008571Y-70970000D02*
X83008571Y-71112857D01*
X83080000Y-71255714D01*
X83151428Y-71327142D01*
X83294285Y-71398571D01*
X83580000Y-71470000D01*
X83937142Y-71470000D01*
X84222857Y-71398571D01*
X84365714Y-71327142D01*
X84437142Y-71255714D01*
X84508571Y-71112857D01*
X84508571Y-70970000D01*
X84437142Y-70827142D01*
X84365714Y-70755714D01*
X84222857Y-70684285D01*
X83937142Y-70612857D01*
X83580000Y-70612857D01*
X83294285Y-70684285D01*
X83151428Y-70755714D01*
X83080000Y-70827142D01*
X83008571Y-70970000D01*
X84508571Y-72898571D02*
X84508571Y-72041428D01*
X84508571Y-72470000D02*
X83008571Y-72470000D01*
X83222857Y-72327142D01*
X83365714Y-72184285D01*
X83437142Y-72041428D01*
X83008571Y-74184285D02*
X83008571Y-73898571D01*
X83080000Y-73755714D01*
X83151428Y-73684285D01*
X83365714Y-73541428D01*
X83651428Y-73470000D01*
X84222857Y-73470000D01*
X84365714Y-73541428D01*
X84437142Y-73612857D01*
X84508571Y-73755714D01*
X84508571Y-74041428D01*
X84437142Y-74184285D01*
X84365714Y-74255714D01*
X84222857Y-74327142D01*
X83865714Y-74327142D01*
X83722857Y-74255714D01*
X83651428Y-74184285D01*
X83580000Y-74041428D01*
X83580000Y-73755714D01*
X83651428Y-73612857D01*
X83722857Y-73541428D01*
X83865714Y-73470000D01*
X83008571Y-75255714D02*
X83008571Y-75398571D01*
X83080000Y-75541428D01*
X83151428Y-75612857D01*
X83294285Y-75684285D01*
X83580000Y-75755714D01*
X83937142Y-75755714D01*
X84222857Y-75684285D01*
X84365714Y-75612857D01*
X84437142Y-75541428D01*
X84508571Y-75398571D01*
X84508571Y-75255714D01*
X84437142Y-75112857D01*
X84365714Y-75041428D01*
X84222857Y-74970000D01*
X83937142Y-74898571D01*
X83580000Y-74898571D01*
X83294285Y-74970000D01*
X83151428Y-75041428D01*
X83080000Y-75112857D01*
X83008571Y-75255714D01*
X83008571Y-77112857D02*
X83008571Y-76398571D01*
X83722857Y-76327142D01*
X83651428Y-76398571D01*
X83580000Y-76541428D01*
X83580000Y-76898571D01*
X83651428Y-77041428D01*
X83722857Y-77112857D01*
X83865714Y-77184285D01*
X84222857Y-77184285D01*
X84365714Y-77112857D01*
X84437142Y-77041428D01*
X84508571Y-76898571D01*
X84508571Y-76541428D01*
X84437142Y-76398571D01*
X84365714Y-76327142D01*
X84508571Y-78612857D02*
X84508571Y-77755714D01*
X84508571Y-78184285D02*
X83008571Y-78184285D01*
X83222857Y-78041428D01*
X83365714Y-77898571D01*
X83437142Y-77755714D01*
X83151428Y-79184285D02*
X83080000Y-79255714D01*
X83008571Y-79398571D01*
X83008571Y-79755714D01*
X83080000Y-79898571D01*
X83151428Y-79970000D01*
X83294285Y-80041428D01*
X83437142Y-80041428D01*
X83651428Y-79970000D01*
X84508571Y-79112857D01*
X84508571Y-80041428D01*
X84651428Y-80327142D02*
X84651428Y-81470000D01*
X83151428Y-81755714D02*
X83080000Y-81827142D01*
X83008571Y-81970000D01*
X83008571Y-82327142D01*
X83080000Y-82470000D01*
X83151428Y-82541428D01*
X83294285Y-82612857D01*
X83437142Y-82612857D01*
X83651428Y-82541428D01*
X84508571Y-81684285D01*
X84508571Y-82612857D01*
X84508571Y-84041428D02*
X84508571Y-83184285D01*
X84508571Y-83612857D02*
X83008571Y-83612857D01*
X83222857Y-83470000D01*
X83365714Y-83327142D01*
X83437142Y-83184285D01*
X83008571Y-84970000D02*
X83008571Y-85112857D01*
X83080000Y-85255714D01*
X83151428Y-85327142D01*
X83294285Y-85398571D01*
X83580000Y-85470000D01*
X83937142Y-85470000D01*
X84222857Y-85398571D01*
X84365714Y-85327142D01*
X84437142Y-85255714D01*
X84508571Y-85112857D01*
X84508571Y-84970000D01*
X84437142Y-84827142D01*
X84365714Y-84755714D01*
X84222857Y-84684285D01*
X83937142Y-84612857D01*
X83580000Y-84612857D01*
X83294285Y-84684285D01*
X83151428Y-84755714D01*
X83080000Y-84827142D01*
X83008571Y-84970000D01*
X83008571Y-86398571D02*
X83008571Y-86541428D01*
X83080000Y-86684285D01*
X83151428Y-86755714D01*
X83294285Y-86827142D01*
X83580000Y-86898571D01*
X83937142Y-86898571D01*
X84222857Y-86827142D01*
X84365714Y-86755714D01*
X84437142Y-86684285D01*
X84508571Y-86541428D01*
X84508571Y-86398571D01*
X84437142Y-86255714D01*
X84365714Y-86184285D01*
X84222857Y-86112857D01*
X83937142Y-86041428D01*
X83580000Y-86041428D01*
X83294285Y-86112857D01*
X83151428Y-86184285D01*
X83080000Y-86255714D01*
X83008571Y-86398571D01*
M02*
