G04 #@! TF.GenerationSoftware,KiCad,Pcbnew,(5.0.2)-1*
G04 #@! TF.CreationDate,2019-05-12T21:22:09-05:00*
G04 #@! TF.ProjectId,C64-Power-Supply,4336342d-506f-4776-9572-2d537570706c,0.1*
G04 #@! TF.SameCoordinates,Original*
G04 #@! TF.FileFunction,Legend,Top*
G04 #@! TF.FilePolarity,Positive*
%FSLAX46Y46*%
G04 Gerber Fmt 4.6, Leading zero omitted, Abs format (unit mm)*
G04 Created by KiCad (PCBNEW (5.0.2)-1) date 5/12/2019 9:22:09 PM*
%MOMM*%
%LPD*%
G01*
G04 APERTURE LIST*
%ADD10C,0.150000*%
%ADD11C,0.300000*%
%ADD12C,0.120000*%
G04 APERTURE END LIST*
D10*
X210748571Y-105854285D02*
X210748571Y-105520952D01*
X211272380Y-105378095D02*
X211272380Y-105854285D01*
X210272380Y-105854285D01*
X210272380Y-105378095D01*
X211272380Y-104520952D02*
X210748571Y-104520952D01*
X210653333Y-104568571D01*
X210605714Y-104663809D01*
X210605714Y-104854285D01*
X210653333Y-104949523D01*
X211224761Y-104520952D02*
X211272380Y-104616190D01*
X211272380Y-104854285D01*
X211224761Y-104949523D01*
X211129523Y-104997142D01*
X211034285Y-104997142D01*
X210939047Y-104949523D01*
X210891428Y-104854285D01*
X210891428Y-104616190D01*
X210843809Y-104520952D01*
X211272380Y-104044761D02*
X210605714Y-104044761D01*
X210796190Y-104044761D02*
X210700952Y-103997142D01*
X210653333Y-103949523D01*
X210605714Y-103854285D01*
X210605714Y-103759047D01*
X210605714Y-103568571D02*
X210605714Y-103187619D01*
X210272380Y-103425714D02*
X211129523Y-103425714D01*
X211224761Y-103378095D01*
X211272380Y-103282857D01*
X211272380Y-103187619D01*
X211272380Y-102854285D02*
X210272380Y-102854285D01*
X211272380Y-102425714D02*
X210748571Y-102425714D01*
X210653333Y-102473333D01*
X210605714Y-102568571D01*
X210605714Y-102711428D01*
X210653333Y-102806666D01*
X210700952Y-102854285D01*
X211272380Y-100440952D02*
X210272380Y-100440952D01*
X210272380Y-100202857D01*
X210320000Y-100060000D01*
X210415238Y-99964761D01*
X210510476Y-99917142D01*
X210700952Y-99869523D01*
X210843809Y-99869523D01*
X211034285Y-99917142D01*
X211129523Y-99964761D01*
X211224761Y-100060000D01*
X211272380Y-100202857D01*
X211272380Y-100440952D01*
X211177142Y-98869523D02*
X211224761Y-98917142D01*
X211272380Y-99060000D01*
X211272380Y-99155238D01*
X211224761Y-99298095D01*
X211129523Y-99393333D01*
X211034285Y-99440952D01*
X210843809Y-99488571D01*
X210700952Y-99488571D01*
X210510476Y-99440952D01*
X210415238Y-99393333D01*
X210320000Y-99298095D01*
X210272380Y-99155238D01*
X210272380Y-99060000D01*
X210320000Y-98917142D01*
X210367619Y-98869523D01*
X210891428Y-98440952D02*
X210891428Y-97679047D01*
X211272380Y-96630952D02*
X210272380Y-96630952D01*
X210272380Y-96392857D01*
X210320000Y-96250000D01*
X210415238Y-96154761D01*
X210510476Y-96107142D01*
X210700952Y-96059523D01*
X210843809Y-96059523D01*
X211034285Y-96107142D01*
X211129523Y-96154761D01*
X211224761Y-96250000D01*
X211272380Y-96392857D01*
X211272380Y-96630952D01*
X211177142Y-95059523D02*
X211224761Y-95107142D01*
X211272380Y-95250000D01*
X211272380Y-95345238D01*
X211224761Y-95488095D01*
X211129523Y-95583333D01*
X211034285Y-95630952D01*
X210843809Y-95678571D01*
X210700952Y-95678571D01*
X210510476Y-95630952D01*
X210415238Y-95583333D01*
X210320000Y-95488095D01*
X210272380Y-95345238D01*
X210272380Y-95250000D01*
X210320000Y-95107142D01*
X210367619Y-95059523D01*
X210891428Y-94630952D02*
X210891428Y-93869047D01*
X211272380Y-94250000D02*
X210510476Y-94250000D01*
X210986666Y-109942142D02*
X210986666Y-109465952D01*
X211272380Y-110037380D02*
X210272380Y-109704047D01*
X211272380Y-109370714D01*
X211177142Y-108465952D02*
X211224761Y-108513571D01*
X211272380Y-108656428D01*
X211272380Y-108751666D01*
X211224761Y-108894523D01*
X211129523Y-108989761D01*
X211034285Y-109037380D01*
X210843809Y-109085000D01*
X210700952Y-109085000D01*
X210510476Y-109037380D01*
X210415238Y-108989761D01*
X210320000Y-108894523D01*
X210272380Y-108751666D01*
X210272380Y-108656428D01*
X210320000Y-108513571D01*
X210367619Y-108465952D01*
X210891428Y-108037380D02*
X210891428Y-107275476D01*
X211272380Y-107656428D02*
X210510476Y-107656428D01*
X210986666Y-113752142D02*
X210986666Y-113275952D01*
X211272380Y-113847380D02*
X210272380Y-113514047D01*
X211272380Y-113180714D01*
X211177142Y-112275952D02*
X211224761Y-112323571D01*
X211272380Y-112466428D01*
X211272380Y-112561666D01*
X211224761Y-112704523D01*
X211129523Y-112799761D01*
X211034285Y-112847380D01*
X210843809Y-112895000D01*
X210700952Y-112895000D01*
X210510476Y-112847380D01*
X210415238Y-112799761D01*
X210320000Y-112704523D01*
X210272380Y-112561666D01*
X210272380Y-112466428D01*
X210320000Y-112323571D01*
X210367619Y-112275952D01*
X210891428Y-111847380D02*
X210891428Y-111085476D01*
D11*
X199755714Y-92118571D02*
X199755714Y-90618571D01*
X200327142Y-90618571D01*
X200470000Y-90690000D01*
X200541428Y-90761428D01*
X200612857Y-90904285D01*
X200612857Y-91118571D01*
X200541428Y-91261428D01*
X200470000Y-91332857D01*
X200327142Y-91404285D01*
X199755714Y-91404285D01*
X201112857Y-90618571D02*
X201470000Y-92118571D01*
X201755714Y-91047142D01*
X202041428Y-92118571D01*
X202398571Y-90618571D01*
X203827142Y-92118571D02*
X203327142Y-91404285D01*
X202970000Y-92118571D02*
X202970000Y-90618571D01*
X203541428Y-90618571D01*
X203684285Y-90690000D01*
X203755714Y-90761428D01*
X203827142Y-90904285D01*
X203827142Y-91118571D01*
X203755714Y-91261428D01*
X203684285Y-91332857D01*
X203541428Y-91404285D01*
X202970000Y-91404285D01*
X204112857Y-92261428D02*
X205255714Y-92261428D01*
X205898571Y-90618571D02*
X206184285Y-90618571D01*
X206327142Y-90690000D01*
X206470000Y-90832857D01*
X206541428Y-91118571D01*
X206541428Y-91618571D01*
X206470000Y-91904285D01*
X206327142Y-92047142D01*
X206184285Y-92118571D01*
X205898571Y-92118571D01*
X205755714Y-92047142D01*
X205612857Y-91904285D01*
X205541428Y-91618571D01*
X205541428Y-91118571D01*
X205612857Y-90832857D01*
X205755714Y-90690000D01*
X205898571Y-90618571D01*
X207184285Y-90618571D02*
X207184285Y-91832857D01*
X207255714Y-91975714D01*
X207327142Y-92047142D01*
X207470000Y-92118571D01*
X207755714Y-92118571D01*
X207898571Y-92047142D01*
X207970000Y-91975714D01*
X208041428Y-91832857D01*
X208041428Y-90618571D01*
X208541428Y-90618571D02*
X209398571Y-90618571D01*
X208970000Y-92118571D02*
X208970000Y-90618571D01*
X90714285Y-49978571D02*
X91214285Y-51478571D01*
X91714285Y-49978571D01*
X91857142Y-51621428D02*
X93000000Y-51621428D01*
X93285714Y-51407142D02*
X93500000Y-51478571D01*
X93857142Y-51478571D01*
X94000000Y-51407142D01*
X94071428Y-51335714D01*
X94142857Y-51192857D01*
X94142857Y-51050000D01*
X94071428Y-50907142D01*
X94000000Y-50835714D01*
X93857142Y-50764285D01*
X93571428Y-50692857D01*
X93428571Y-50621428D01*
X93357142Y-50550000D01*
X93285714Y-50407142D01*
X93285714Y-50264285D01*
X93357142Y-50121428D01*
X93428571Y-50050000D01*
X93571428Y-49978571D01*
X93928571Y-49978571D01*
X94142857Y-50050000D01*
X95357142Y-51407142D02*
X95214285Y-51478571D01*
X94928571Y-51478571D01*
X94785714Y-51407142D01*
X94714285Y-51264285D01*
X94714285Y-50692857D01*
X94785714Y-50550000D01*
X94928571Y-50478571D01*
X95214285Y-50478571D01*
X95357142Y-50550000D01*
X95428571Y-50692857D01*
X95428571Y-50835714D01*
X94714285Y-50978571D01*
X96285714Y-51478571D02*
X96142857Y-51407142D01*
X96071428Y-51264285D01*
X96071428Y-49978571D01*
X97428571Y-51407142D02*
X97285714Y-51478571D01*
X97000000Y-51478571D01*
X96857142Y-51407142D01*
X96785714Y-51264285D01*
X96785714Y-50692857D01*
X96857142Y-50550000D01*
X97000000Y-50478571D01*
X97285714Y-50478571D01*
X97428571Y-50550000D01*
X97500000Y-50692857D01*
X97500000Y-50835714D01*
X96785714Y-50978571D01*
X98785714Y-51407142D02*
X98642857Y-51478571D01*
X98357142Y-51478571D01*
X98214285Y-51407142D01*
X98142857Y-51335714D01*
X98071428Y-51192857D01*
X98071428Y-50764285D01*
X98142857Y-50621428D01*
X98214285Y-50550000D01*
X98357142Y-50478571D01*
X98642857Y-50478571D01*
X98785714Y-50550000D01*
X99214285Y-50478571D02*
X99785714Y-50478571D01*
X99428571Y-49978571D02*
X99428571Y-51264285D01*
X99500000Y-51407142D01*
X99642857Y-51478571D01*
X99785714Y-51478571D01*
X93920714Y-114192857D02*
X93420714Y-114192857D01*
X93420714Y-114978571D02*
X93420714Y-113478571D01*
X94135000Y-113478571D01*
X94706428Y-113478571D02*
X94706428Y-114692857D01*
X94777857Y-114835714D01*
X94849285Y-114907142D01*
X94992142Y-114978571D01*
X95277857Y-114978571D01*
X95420714Y-114907142D01*
X95492142Y-114835714D01*
X95563571Y-114692857D01*
X95563571Y-113478571D01*
X96206428Y-114907142D02*
X96420714Y-114978571D01*
X96777857Y-114978571D01*
X96920714Y-114907142D01*
X96992142Y-114835714D01*
X97063571Y-114692857D01*
X97063571Y-114550000D01*
X96992142Y-114407142D01*
X96920714Y-114335714D01*
X96777857Y-114264285D01*
X96492142Y-114192857D01*
X96349285Y-114121428D01*
X96277857Y-114050000D01*
X96206428Y-113907142D01*
X96206428Y-113764285D01*
X96277857Y-113621428D01*
X96349285Y-113550000D01*
X96492142Y-113478571D01*
X96849285Y-113478571D01*
X97063571Y-113550000D01*
X97706428Y-114192857D02*
X98206428Y-114192857D01*
X98420714Y-114978571D02*
X97706428Y-114978571D01*
X97706428Y-113478571D01*
X98420714Y-113478571D01*
X78835714Y-95928571D02*
X78835714Y-94428571D01*
X79407142Y-94428571D01*
X79550000Y-94500000D01*
X79621428Y-94571428D01*
X79692857Y-94714285D01*
X79692857Y-94928571D01*
X79621428Y-95071428D01*
X79550000Y-95142857D01*
X79407142Y-95214285D01*
X78835714Y-95214285D01*
X80192857Y-94428571D02*
X80550000Y-95928571D01*
X80835714Y-94857142D01*
X81121428Y-95928571D01*
X81478571Y-94428571D01*
X82907142Y-95928571D02*
X82407142Y-95214285D01*
X82050000Y-95928571D02*
X82050000Y-94428571D01*
X82621428Y-94428571D01*
X82764285Y-94500000D01*
X82835714Y-94571428D01*
X82907142Y-94714285D01*
X82907142Y-94928571D01*
X82835714Y-95071428D01*
X82764285Y-95142857D01*
X82621428Y-95214285D01*
X82050000Y-95214285D01*
X83192857Y-96071428D02*
X84335714Y-96071428D01*
X84692857Y-95928571D02*
X84692857Y-94428571D01*
X85407142Y-95928571D02*
X85407142Y-94428571D01*
X86264285Y-95928571D01*
X86264285Y-94428571D01*
X78408571Y-91077142D02*
X79408571Y-90791428D01*
X78694285Y-90505714D01*
X79408571Y-90220000D01*
X78408571Y-89934285D01*
X78408571Y-89505714D02*
X79408571Y-89220000D01*
X78694285Y-88934285D01*
X79408571Y-88648571D01*
X78408571Y-88362857D01*
X78408571Y-87934285D02*
X79408571Y-87648571D01*
X78694285Y-87362857D01*
X79408571Y-87077142D01*
X78408571Y-86791428D01*
X79265714Y-86220000D02*
X79337142Y-86148571D01*
X79408571Y-86220000D01*
X79337142Y-86291428D01*
X79265714Y-86220000D01*
X79408571Y-86220000D01*
X79408571Y-85505714D02*
X77908571Y-85505714D01*
X78980000Y-85005714D01*
X77908571Y-84505714D01*
X79408571Y-84505714D01*
X79408571Y-83148571D02*
X78622857Y-83148571D01*
X78480000Y-83220000D01*
X78408571Y-83362857D01*
X78408571Y-83648571D01*
X78480000Y-83791428D01*
X79337142Y-83148571D02*
X79408571Y-83291428D01*
X79408571Y-83648571D01*
X79337142Y-83791428D01*
X79194285Y-83862857D01*
X79051428Y-83862857D01*
X78908571Y-83791428D01*
X78837142Y-83648571D01*
X78837142Y-83291428D01*
X78765714Y-83148571D01*
X79408571Y-82434285D02*
X78408571Y-82434285D01*
X78694285Y-82434285D02*
X78551428Y-82362857D01*
X78480000Y-82291428D01*
X78408571Y-82148571D01*
X78408571Y-82005714D01*
X79408571Y-81505714D02*
X77908571Y-81505714D01*
X78837142Y-81362857D02*
X79408571Y-80934285D01*
X78408571Y-80934285D02*
X78980000Y-81505714D01*
X78622857Y-79791428D02*
X78622857Y-80291428D01*
X79408571Y-80291428D02*
X77908571Y-80291428D01*
X77908571Y-79577142D01*
X79408571Y-79005714D02*
X78408571Y-79005714D01*
X78694285Y-79005714D02*
X78551428Y-78934285D01*
X78480000Y-78862857D01*
X78408571Y-78720000D01*
X78408571Y-78577142D01*
X79408571Y-77862857D02*
X79337142Y-78005714D01*
X79265714Y-78077142D01*
X79122857Y-78148571D01*
X78694285Y-78148571D01*
X78551428Y-78077142D01*
X78480000Y-78005714D01*
X78408571Y-77862857D01*
X78408571Y-77648571D01*
X78480000Y-77505714D01*
X78551428Y-77434285D01*
X78694285Y-77362857D01*
X79122857Y-77362857D01*
X79265714Y-77434285D01*
X79337142Y-77505714D01*
X79408571Y-77648571D01*
X79408571Y-77862857D01*
X79408571Y-76720000D02*
X78408571Y-76720000D01*
X78551428Y-76720000D02*
X78480000Y-76648571D01*
X78408571Y-76505714D01*
X78408571Y-76291428D01*
X78480000Y-76148571D01*
X78622857Y-76077142D01*
X79408571Y-76077142D01*
X78622857Y-76077142D02*
X78480000Y-76005714D01*
X78408571Y-75862857D01*
X78408571Y-75648571D01*
X78480000Y-75505714D01*
X78622857Y-75434285D01*
X79408571Y-75434285D01*
X79337142Y-74791428D02*
X79408571Y-74577142D01*
X79408571Y-74220000D01*
X79337142Y-74077142D01*
X79265714Y-74005714D01*
X79122857Y-73934285D01*
X78980000Y-73934285D01*
X78837142Y-74005714D01*
X78765714Y-74077142D01*
X78694285Y-74220000D01*
X78622857Y-74505714D01*
X78551428Y-74648571D01*
X78480000Y-74720000D01*
X78337142Y-74791428D01*
X78194285Y-74791428D01*
X78051428Y-74720000D01*
X77980000Y-74648571D01*
X77908571Y-74505714D01*
X77908571Y-74148571D01*
X77980000Y-73934285D01*
X79408571Y-72648571D02*
X78622857Y-72648571D01*
X78480000Y-72720000D01*
X78408571Y-72862857D01*
X78408571Y-73148571D01*
X78480000Y-73291428D01*
X79337142Y-72648571D02*
X79408571Y-72791428D01*
X79408571Y-73148571D01*
X79337142Y-73291428D01*
X79194285Y-73362857D01*
X79051428Y-73362857D01*
X78908571Y-73291428D01*
X78837142Y-73148571D01*
X78837142Y-72791428D01*
X78765714Y-72648571D01*
X79408571Y-71720000D02*
X79337142Y-71862857D01*
X79194285Y-71934285D01*
X77908571Y-71934285D01*
X79337142Y-70577142D02*
X79408571Y-70720000D01*
X79408571Y-71005714D01*
X79337142Y-71148571D01*
X79194285Y-71220000D01*
X78622857Y-71220000D01*
X78480000Y-71148571D01*
X78408571Y-71005714D01*
X78408571Y-70720000D01*
X78480000Y-70577142D01*
X78622857Y-70505714D01*
X78765714Y-70505714D01*
X78908571Y-71220000D01*
X79337142Y-69934285D02*
X79408571Y-69791428D01*
X79408571Y-69505714D01*
X79337142Y-69362857D01*
X79194285Y-69291428D01*
X79122857Y-69291428D01*
X78980000Y-69362857D01*
X78908571Y-69505714D01*
X78908571Y-69720000D01*
X78837142Y-69862857D01*
X78694285Y-69934285D01*
X78622857Y-69934285D01*
X78480000Y-69862857D01*
X78408571Y-69720000D01*
X78408571Y-69505714D01*
X78480000Y-69362857D01*
X79265714Y-68648571D02*
X79337142Y-68577142D01*
X79408571Y-68648571D01*
X79337142Y-68720000D01*
X79265714Y-68648571D01*
X79408571Y-68648571D01*
X79337142Y-67291428D02*
X79408571Y-67434285D01*
X79408571Y-67720000D01*
X79337142Y-67862857D01*
X79265714Y-67934285D01*
X79122857Y-68005714D01*
X78694285Y-68005714D01*
X78551428Y-67934285D01*
X78480000Y-67862857D01*
X78408571Y-67720000D01*
X78408571Y-67434285D01*
X78480000Y-67291428D01*
X79408571Y-66434285D02*
X79337142Y-66577142D01*
X79265714Y-66648571D01*
X79122857Y-66720000D01*
X78694285Y-66720000D01*
X78551428Y-66648571D01*
X78480000Y-66577142D01*
X78408571Y-66434285D01*
X78408571Y-66220000D01*
X78480000Y-66077142D01*
X78551428Y-66005714D01*
X78694285Y-65934285D01*
X79122857Y-65934285D01*
X79265714Y-66005714D01*
X79337142Y-66077142D01*
X79408571Y-66220000D01*
X79408571Y-66434285D01*
X79408571Y-65291428D02*
X78408571Y-65291428D01*
X78551428Y-65291428D02*
X78480000Y-65220000D01*
X78408571Y-65077142D01*
X78408571Y-64862857D01*
X78480000Y-64720000D01*
X78622857Y-64648571D01*
X79408571Y-64648571D01*
X78622857Y-64648571D02*
X78480000Y-64577142D01*
X78408571Y-64434285D01*
X78408571Y-64220000D01*
X78480000Y-64077142D01*
X78622857Y-64005714D01*
X79408571Y-64005714D01*
X81815714Y-86612857D02*
X81887142Y-86684285D01*
X81958571Y-86898571D01*
X81958571Y-87041428D01*
X81887142Y-87255714D01*
X81744285Y-87398571D01*
X81601428Y-87470000D01*
X81315714Y-87541428D01*
X81101428Y-87541428D01*
X80815714Y-87470000D01*
X80672857Y-87398571D01*
X80530000Y-87255714D01*
X80458571Y-87041428D01*
X80458571Y-86898571D01*
X80530000Y-86684285D01*
X80601428Y-86612857D01*
X80458571Y-85327142D02*
X80458571Y-85612857D01*
X80530000Y-85755714D01*
X80601428Y-85827142D01*
X80815714Y-85970000D01*
X81101428Y-86041428D01*
X81672857Y-86041428D01*
X81815714Y-85970000D01*
X81887142Y-85898571D01*
X81958571Y-85755714D01*
X81958571Y-85470000D01*
X81887142Y-85327142D01*
X81815714Y-85255714D01*
X81672857Y-85184285D01*
X81315714Y-85184285D01*
X81172857Y-85255714D01*
X81101428Y-85327142D01*
X81030000Y-85470000D01*
X81030000Y-85755714D01*
X81101428Y-85898571D01*
X81172857Y-85970000D01*
X81315714Y-86041428D01*
X80958571Y-83898571D02*
X81958571Y-83898571D01*
X80387142Y-84255714D02*
X81458571Y-84612857D01*
X81458571Y-83684285D01*
X81958571Y-81970000D02*
X80458571Y-81970000D01*
X80458571Y-81398571D01*
X80530000Y-81255714D01*
X80601428Y-81184285D01*
X80744285Y-81112857D01*
X80958571Y-81112857D01*
X81101428Y-81184285D01*
X81172857Y-81255714D01*
X81244285Y-81398571D01*
X81244285Y-81970000D01*
X81958571Y-80255714D02*
X81887142Y-80398571D01*
X81815714Y-80470000D01*
X81672857Y-80541428D01*
X81244285Y-80541428D01*
X81101428Y-80470000D01*
X81030000Y-80398571D01*
X80958571Y-80255714D01*
X80958571Y-80041428D01*
X81030000Y-79898571D01*
X81101428Y-79827142D01*
X81244285Y-79755714D01*
X81672857Y-79755714D01*
X81815714Y-79827142D01*
X81887142Y-79898571D01*
X81958571Y-80041428D01*
X81958571Y-80255714D01*
X80958571Y-79255714D02*
X81958571Y-78970000D01*
X81244285Y-78684285D01*
X81958571Y-78398571D01*
X80958571Y-78112857D01*
X81887142Y-76970000D02*
X81958571Y-77112857D01*
X81958571Y-77398571D01*
X81887142Y-77541428D01*
X81744285Y-77612857D01*
X81172857Y-77612857D01*
X81030000Y-77541428D01*
X80958571Y-77398571D01*
X80958571Y-77112857D01*
X81030000Y-76970000D01*
X81172857Y-76898571D01*
X81315714Y-76898571D01*
X81458571Y-77612857D01*
X81958571Y-76255714D02*
X80958571Y-76255714D01*
X81244285Y-76255714D02*
X81101428Y-76184285D01*
X81030000Y-76112857D01*
X80958571Y-75970000D01*
X80958571Y-75827142D01*
X81887142Y-74255714D02*
X81958571Y-74041428D01*
X81958571Y-73684285D01*
X81887142Y-73541428D01*
X81815714Y-73470000D01*
X81672857Y-73398571D01*
X81530000Y-73398571D01*
X81387142Y-73470000D01*
X81315714Y-73541428D01*
X81244285Y-73684285D01*
X81172857Y-73970000D01*
X81101428Y-74112857D01*
X81030000Y-74184285D01*
X80887142Y-74255714D01*
X80744285Y-74255714D01*
X80601428Y-74184285D01*
X80530000Y-74112857D01*
X80458571Y-73970000D01*
X80458571Y-73612857D01*
X80530000Y-73398571D01*
X80958571Y-72112857D02*
X81958571Y-72112857D01*
X80958571Y-72755714D02*
X81744285Y-72755714D01*
X81887142Y-72684285D01*
X81958571Y-72541428D01*
X81958571Y-72327142D01*
X81887142Y-72184285D01*
X81815714Y-72112857D01*
X80958571Y-71398571D02*
X82458571Y-71398571D01*
X81030000Y-71398571D02*
X80958571Y-71255714D01*
X80958571Y-70970000D01*
X81030000Y-70827142D01*
X81101428Y-70755714D01*
X81244285Y-70684285D01*
X81672857Y-70684285D01*
X81815714Y-70755714D01*
X81887142Y-70827142D01*
X81958571Y-70970000D01*
X81958571Y-71255714D01*
X81887142Y-71398571D01*
X80958571Y-70041428D02*
X82458571Y-70041428D01*
X81030000Y-70041428D02*
X80958571Y-69898571D01*
X80958571Y-69612857D01*
X81030000Y-69470000D01*
X81101428Y-69398571D01*
X81244285Y-69327142D01*
X81672857Y-69327142D01*
X81815714Y-69398571D01*
X81887142Y-69470000D01*
X81958571Y-69612857D01*
X81958571Y-69898571D01*
X81887142Y-70041428D01*
X81958571Y-68470000D02*
X81887142Y-68612857D01*
X81744285Y-68684285D01*
X80458571Y-68684285D01*
X80958571Y-68041428D02*
X81958571Y-67684285D01*
X80958571Y-67327142D02*
X81958571Y-67684285D01*
X82315714Y-67827142D01*
X82387142Y-67898571D01*
X82458571Y-68041428D01*
X83508571Y-86970000D02*
X84508571Y-86612857D01*
X83508571Y-86255714D01*
X83151428Y-85755714D02*
X83080000Y-85684285D01*
X83008571Y-85541428D01*
X83008571Y-85184285D01*
X83080000Y-85041428D01*
X83151428Y-84970000D01*
X83294285Y-84898571D01*
X83437142Y-84898571D01*
X83651428Y-84970000D01*
X84508571Y-85827142D01*
X84508571Y-84898571D01*
X83008571Y-83970000D02*
X83008571Y-83827142D01*
X83080000Y-83684285D01*
X83151428Y-83612857D01*
X83294285Y-83541428D01*
X83580000Y-83470000D01*
X83937142Y-83470000D01*
X84222857Y-83541428D01*
X84365714Y-83612857D01*
X84437142Y-83684285D01*
X84508571Y-83827142D01*
X84508571Y-83970000D01*
X84437142Y-84112857D01*
X84365714Y-84184285D01*
X84222857Y-84255714D01*
X83937142Y-84327142D01*
X83580000Y-84327142D01*
X83294285Y-84255714D01*
X83151428Y-84184285D01*
X83080000Y-84112857D01*
X83008571Y-83970000D01*
X84508571Y-82041428D02*
X84508571Y-82898571D01*
X84508571Y-82470000D02*
X83008571Y-82470000D01*
X83222857Y-82612857D01*
X83365714Y-82755714D01*
X83437142Y-82898571D01*
X83008571Y-80755714D02*
X83008571Y-81041428D01*
X83080000Y-81184285D01*
X83151428Y-81255714D01*
X83365714Y-81398571D01*
X83651428Y-81470000D01*
X84222857Y-81470000D01*
X84365714Y-81398571D01*
X84437142Y-81327142D01*
X84508571Y-81184285D01*
X84508571Y-80898571D01*
X84437142Y-80755714D01*
X84365714Y-80684285D01*
X84222857Y-80612857D01*
X83865714Y-80612857D01*
X83722857Y-80684285D01*
X83651428Y-80755714D01*
X83580000Y-80898571D01*
X83580000Y-81184285D01*
X83651428Y-81327142D01*
X83722857Y-81398571D01*
X83865714Y-81470000D01*
X83008571Y-79684285D02*
X83008571Y-79541428D01*
X83080000Y-79398571D01*
X83151428Y-79327142D01*
X83294285Y-79255714D01*
X83580000Y-79184285D01*
X83937142Y-79184285D01*
X84222857Y-79255714D01*
X84365714Y-79327142D01*
X84437142Y-79398571D01*
X84508571Y-79541428D01*
X84508571Y-79684285D01*
X84437142Y-79827142D01*
X84365714Y-79898571D01*
X84222857Y-79970000D01*
X83937142Y-80041428D01*
X83580000Y-80041428D01*
X83294285Y-79970000D01*
X83151428Y-79898571D01*
X83080000Y-79827142D01*
X83008571Y-79684285D01*
X83008571Y-77827142D02*
X83008571Y-78541428D01*
X83722857Y-78612857D01*
X83651428Y-78541428D01*
X83580000Y-78398571D01*
X83580000Y-78041428D01*
X83651428Y-77898571D01*
X83722857Y-77827142D01*
X83865714Y-77755714D01*
X84222857Y-77755714D01*
X84365714Y-77827142D01*
X84437142Y-77898571D01*
X84508571Y-78041428D01*
X84508571Y-78398571D01*
X84437142Y-78541428D01*
X84365714Y-78612857D01*
X84508571Y-76327142D02*
X84508571Y-77184285D01*
X84508571Y-76755714D02*
X83008571Y-76755714D01*
X83222857Y-76898571D01*
X83365714Y-77041428D01*
X83437142Y-77184285D01*
X83151428Y-75755714D02*
X83080000Y-75684285D01*
X83008571Y-75541428D01*
X83008571Y-75184285D01*
X83080000Y-75041428D01*
X83151428Y-74970000D01*
X83294285Y-74898571D01*
X83437142Y-74898571D01*
X83651428Y-74970000D01*
X84508571Y-75827142D01*
X84508571Y-74898571D01*
X84651428Y-74612857D02*
X84651428Y-73470000D01*
X83151428Y-73184285D02*
X83080000Y-73112857D01*
X83008571Y-72970000D01*
X83008571Y-72612857D01*
X83080000Y-72470000D01*
X83151428Y-72398571D01*
X83294285Y-72327142D01*
X83437142Y-72327142D01*
X83651428Y-72398571D01*
X84508571Y-73255714D01*
X84508571Y-72327142D01*
X84508571Y-70898571D02*
X84508571Y-71755714D01*
X84508571Y-71327142D02*
X83008571Y-71327142D01*
X83222857Y-71470000D01*
X83365714Y-71612857D01*
X83437142Y-71755714D01*
X83008571Y-69970000D02*
X83008571Y-69827142D01*
X83080000Y-69684285D01*
X83151428Y-69612857D01*
X83294285Y-69541428D01*
X83580000Y-69470000D01*
X83937142Y-69470000D01*
X84222857Y-69541428D01*
X84365714Y-69612857D01*
X84437142Y-69684285D01*
X84508571Y-69827142D01*
X84508571Y-69970000D01*
X84437142Y-70112857D01*
X84365714Y-70184285D01*
X84222857Y-70255714D01*
X83937142Y-70327142D01*
X83580000Y-70327142D01*
X83294285Y-70255714D01*
X83151428Y-70184285D01*
X83080000Y-70112857D01*
X83008571Y-69970000D01*
X83008571Y-68541428D02*
X83008571Y-68398571D01*
X83080000Y-68255714D01*
X83151428Y-68184285D01*
X83294285Y-68112857D01*
X83580000Y-68041428D01*
X83937142Y-68041428D01*
X84222857Y-68112857D01*
X84365714Y-68184285D01*
X84437142Y-68255714D01*
X84508571Y-68398571D01*
X84508571Y-68541428D01*
X84437142Y-68684285D01*
X84365714Y-68755714D01*
X84222857Y-68827142D01*
X83937142Y-68898571D01*
X83580000Y-68898571D01*
X83294285Y-68827142D01*
X83151428Y-68755714D01*
X83080000Y-68684285D01*
X83008571Y-68541428D01*
D12*
G04 #@! TO.C,J1*
X78275000Y-98270000D02*
X85295000Y-98270000D01*
X85295000Y-98270000D02*
X85295000Y-99470000D01*
X85295000Y-99470000D02*
X86995000Y-99470000D01*
X86995000Y-99470000D02*
X86995000Y-109110000D01*
X86995000Y-109110000D02*
X85295000Y-109110000D01*
X85295000Y-109110000D02*
X85295000Y-110310000D01*
X85295000Y-110310000D02*
X78275000Y-110310000D01*
X78275000Y-110310000D02*
X78275000Y-98270000D01*
X83185000Y-98070000D02*
X82885000Y-97470000D01*
X82885000Y-97470000D02*
X83485000Y-97470000D01*
X83485000Y-97470000D02*
X83185000Y-98070000D01*
G04 #@! TO.C,C1*
X89245000Y-105625000D02*
X89245000Y-78885000D01*
X99985000Y-105625000D02*
X99985000Y-78885000D01*
X89245000Y-105625000D02*
X99985000Y-105625000D01*
X89245000Y-78885000D02*
X99985000Y-78885000D01*
G04 #@! TO.C,C2*
X182185000Y-84175000D02*
X182185000Y-82375000D01*
X181285000Y-83275000D02*
X183085000Y-83275000D01*
X179665000Y-82075000D02*
X189905000Y-82075000D01*
X179665000Y-56835000D02*
X189905000Y-56835000D01*
X179665000Y-82075000D02*
X179665000Y-80275000D01*
X179665000Y-80275000D02*
X180565000Y-79375000D01*
X180565000Y-79375000D02*
X179665000Y-78475000D01*
X179665000Y-78475000D02*
X179665000Y-56835000D01*
X189905000Y-82075000D02*
X189905000Y-80275000D01*
X189905000Y-80275000D02*
X189005000Y-79375000D01*
X189005000Y-79375000D02*
X189905000Y-78475000D01*
X189905000Y-78475000D02*
X189905000Y-56835000D01*
X184785000Y-83015000D02*
X184785000Y-82075000D01*
X184785000Y-55895000D02*
X184785000Y-56835000D01*
G04 #@! TO.C,D1*
X199885000Y-71420000D02*
X199385000Y-71420000D01*
X199885000Y-74620000D02*
X196285000Y-74620000D01*
X199885000Y-52320000D02*
X199885000Y-74620000D01*
X196285000Y-52320000D02*
X199885000Y-52320000D01*
X196285000Y-54320000D02*
X196285000Y-52320000D01*
X196285000Y-59420000D02*
X196285000Y-57420000D01*
X196285000Y-64420000D02*
X196285000Y-62520000D01*
X196285000Y-69120000D02*
X196285000Y-67620000D01*
X196285000Y-74620000D02*
X196285000Y-73120000D01*
G04 #@! TO.C,F1*
X100160000Y-123980000D02*
X93140000Y-123980000D01*
X93140000Y-123980000D02*
X93140000Y-122780000D01*
X93140000Y-122780000D02*
X91440000Y-122780000D01*
X91440000Y-122780000D02*
X91440000Y-117100000D01*
X91440000Y-117100000D02*
X93140000Y-117100000D01*
X93140000Y-117100000D02*
X93140000Y-115900000D01*
X93140000Y-115900000D02*
X100160000Y-115900000D01*
X100160000Y-115900000D02*
X100160000Y-123980000D01*
X95250000Y-124180000D02*
X95550000Y-124780000D01*
X95550000Y-124780000D02*
X94950000Y-124780000D01*
X94950000Y-124780000D02*
X95250000Y-124180000D01*
G04 #@! TO.C,J2*
X99525000Y-76355000D02*
X92505000Y-76355000D01*
X92505000Y-76355000D02*
X92505000Y-75155000D01*
X92505000Y-75155000D02*
X90805000Y-75155000D01*
X90805000Y-75155000D02*
X90805000Y-53635000D01*
X90805000Y-53635000D02*
X92505000Y-53635000D01*
X92505000Y-53635000D02*
X92505000Y-52435000D01*
X92505000Y-52435000D02*
X99525000Y-52435000D01*
X99525000Y-52435000D02*
X99525000Y-76355000D01*
X94615000Y-76555000D02*
X94915000Y-77155000D01*
X94915000Y-77155000D02*
X94315000Y-77155000D01*
X94315000Y-77155000D02*
X94615000Y-76555000D01*
G04 #@! TO.C,R1*
X203560000Y-67694564D02*
X203560000Y-66490436D01*
X205380000Y-67694564D02*
X205380000Y-66490436D01*
G04 #@! TO.C,TP1*
X194490000Y-90170000D02*
G75*
G03X194490000Y-90170000I-1450000J0D01*
G01*
G04 #@! TO.C,TP2*
X202110000Y-86360000D02*
G75*
G03X202110000Y-86360000I-1450000J0D01*
G01*
G04 #@! TO.C,TP3*
X211000000Y-86360000D02*
G75*
G03X211000000Y-86360000I-1450000J0D01*
G01*
G04 #@! TO.C,J3*
X200195000Y-93860000D02*
X207215000Y-93860000D01*
X207215000Y-93860000D02*
X207215000Y-95060000D01*
X207215000Y-95060000D02*
X208915000Y-95060000D01*
X208915000Y-95060000D02*
X208915000Y-112620000D01*
X208915000Y-112620000D02*
X207215000Y-112620000D01*
X207215000Y-112620000D02*
X207215000Y-113820000D01*
X207215000Y-113820000D02*
X200195000Y-113820000D01*
X200195000Y-113820000D02*
X200195000Y-93860000D01*
X205105000Y-93660000D02*
X204805000Y-93060000D01*
X204805000Y-93060000D02*
X205405000Y-93060000D01*
X205405000Y-93060000D02*
X205105000Y-93660000D01*
G04 #@! TO.C,R2*
X190860000Y-107064564D02*
X190860000Y-105860436D01*
X192680000Y-107064564D02*
X192680000Y-105860436D01*
G04 #@! TO.C,TP4*
X205285000Y-121920000D02*
G75*
G03X205285000Y-121920000I-1450000J0D01*
G01*
G04 #@! TO.C,C3*
X179355000Y-115030000D02*
X197595000Y-115030000D01*
X179355000Y-126270000D02*
X197595000Y-126270000D01*
X179355000Y-115030000D02*
X179355000Y-126270000D01*
X197595000Y-115030000D02*
X197595000Y-126270000D01*
D10*
G04 #@! TO.C,U1*
X180340000Y-88392000D02*
X180340000Y-112268000D01*
X180340000Y-112268000D02*
X187706000Y-112268000D01*
X187706000Y-112268000D02*
X187706000Y-88392000D01*
X187706000Y-88392000D02*
X180340000Y-88392000D01*
X181610000Y-112649000D02*
X181991000Y-113157000D01*
X181991000Y-113157000D02*
X181229000Y-113157000D01*
X181229000Y-113157000D02*
X181610000Y-112649000D01*
G04 #@! TO.C,T1*
X102870000Y-125730000D02*
X102870000Y-52070000D01*
X102870000Y-52070000D02*
X176530000Y-52070000D01*
X176530000Y-52070000D02*
X176530000Y-125730000D01*
X176530000Y-125730000D02*
X102870000Y-125730000D01*
X145226762Y-88900000D02*
G75*
G03X145226762Y-88900000I-5526762J0D01*
G01*
G04 #@! TO.C,J1*
X87537380Y-104623333D02*
X88251666Y-104623333D01*
X88394523Y-104670952D01*
X88489761Y-104766190D01*
X88537380Y-104909047D01*
X88537380Y-105004285D01*
X88537380Y-103623333D02*
X88537380Y-104194761D01*
X88537380Y-103909047D02*
X87537380Y-103909047D01*
X87680238Y-104004285D01*
X87775476Y-104099523D01*
X87823095Y-104194761D01*
G04 #@! TO.C,C1*
X88472142Y-92421666D02*
X88519761Y-92469285D01*
X88567380Y-92612142D01*
X88567380Y-92707380D01*
X88519761Y-92850238D01*
X88424523Y-92945476D01*
X88329285Y-92993095D01*
X88138809Y-93040714D01*
X87995952Y-93040714D01*
X87805476Y-92993095D01*
X87710238Y-92945476D01*
X87615000Y-92850238D01*
X87567380Y-92707380D01*
X87567380Y-92612142D01*
X87615000Y-92469285D01*
X87662619Y-92421666D01*
X88567380Y-91469285D02*
X88567380Y-92040714D01*
X88567380Y-91755000D02*
X87567380Y-91755000D01*
X87710238Y-91850238D01*
X87805476Y-91945476D01*
X87853095Y-92040714D01*
G04 #@! TO.C,C2*
X179022142Y-69621666D02*
X179069761Y-69669285D01*
X179117380Y-69812142D01*
X179117380Y-69907380D01*
X179069761Y-70050238D01*
X178974523Y-70145476D01*
X178879285Y-70193095D01*
X178688809Y-70240714D01*
X178545952Y-70240714D01*
X178355476Y-70193095D01*
X178260238Y-70145476D01*
X178165000Y-70050238D01*
X178117380Y-69907380D01*
X178117380Y-69812142D01*
X178165000Y-69669285D01*
X178212619Y-69621666D01*
X178212619Y-69240714D02*
X178165000Y-69193095D01*
X178117380Y-69097857D01*
X178117380Y-68859761D01*
X178165000Y-68764523D01*
X178212619Y-68716904D01*
X178307857Y-68669285D01*
X178403095Y-68669285D01*
X178545952Y-68716904D01*
X179117380Y-69288333D01*
X179117380Y-68669285D01*
G04 #@! TO.C,D1*
X201237380Y-64158095D02*
X200237380Y-64158095D01*
X200237380Y-63920000D01*
X200285000Y-63777142D01*
X200380238Y-63681904D01*
X200475476Y-63634285D01*
X200665952Y-63586666D01*
X200808809Y-63586666D01*
X200999285Y-63634285D01*
X201094523Y-63681904D01*
X201189761Y-63777142D01*
X201237380Y-63920000D01*
X201237380Y-64158095D01*
X201237380Y-62634285D02*
X201237380Y-63205714D01*
X201237380Y-62920000D02*
X200237380Y-62920000D01*
X200380238Y-63015238D01*
X200475476Y-63110476D01*
X200523095Y-63205714D01*
G04 #@! TO.C,F1*
X90278571Y-120273333D02*
X90278571Y-120606666D01*
X90802380Y-120606666D02*
X89802380Y-120606666D01*
X89802380Y-120130476D01*
X90802380Y-119225714D02*
X90802380Y-119797142D01*
X90802380Y-119511428D02*
X89802380Y-119511428D01*
X89945238Y-119606666D01*
X90040476Y-119701904D01*
X90088095Y-119797142D01*
G04 #@! TO.C,J2*
X89167380Y-64728333D02*
X89881666Y-64728333D01*
X90024523Y-64775952D01*
X90119761Y-64871190D01*
X90167380Y-65014047D01*
X90167380Y-65109285D01*
X89262619Y-64299761D02*
X89215000Y-64252142D01*
X89167380Y-64156904D01*
X89167380Y-63918809D01*
X89215000Y-63823571D01*
X89262619Y-63775952D01*
X89357857Y-63728333D01*
X89453095Y-63728333D01*
X89595952Y-63775952D01*
X90167380Y-64347380D01*
X90167380Y-63728333D01*
G04 #@! TO.C,R1*
X203102380Y-67259166D02*
X202626190Y-67592500D01*
X203102380Y-67830595D02*
X202102380Y-67830595D01*
X202102380Y-67449642D01*
X202150000Y-67354404D01*
X202197619Y-67306785D01*
X202292857Y-67259166D01*
X202435714Y-67259166D01*
X202530952Y-67306785D01*
X202578571Y-67354404D01*
X202626190Y-67449642D01*
X202626190Y-67830595D01*
X203102380Y-66306785D02*
X203102380Y-66878214D01*
X203102380Y-66592500D02*
X202102380Y-66592500D01*
X202245238Y-66687738D01*
X202340476Y-66782976D01*
X202388095Y-66878214D01*
G04 #@! TO.C,H1*
X79248095Y-58872380D02*
X79248095Y-57872380D01*
X79248095Y-58348571D02*
X79819523Y-58348571D01*
X79819523Y-58872380D02*
X79819523Y-57872380D01*
X80819523Y-58872380D02*
X80248095Y-58872380D01*
X80533809Y-58872380D02*
X80533809Y-57872380D01*
X80438571Y-58015238D01*
X80343333Y-58110476D01*
X80248095Y-58158095D01*
G04 #@! TO.C,H2*
X211248095Y-58872380D02*
X211248095Y-57872380D01*
X211248095Y-58348571D02*
X211819523Y-58348571D01*
X211819523Y-58872380D02*
X211819523Y-57872380D01*
X212248095Y-57967619D02*
X212295714Y-57920000D01*
X212390952Y-57872380D01*
X212629047Y-57872380D01*
X212724285Y-57920000D01*
X212771904Y-57967619D01*
X212819523Y-58062857D01*
X212819523Y-58158095D01*
X212771904Y-58300952D01*
X212200476Y-58872380D01*
X212819523Y-58872380D01*
G04 #@! TO.C,H3*
X211248095Y-118872380D02*
X211248095Y-117872380D01*
X211248095Y-118348571D02*
X211819523Y-118348571D01*
X211819523Y-118872380D02*
X211819523Y-117872380D01*
X212200476Y-117872380D02*
X212819523Y-117872380D01*
X212486190Y-118253333D01*
X212629047Y-118253333D01*
X212724285Y-118300952D01*
X212771904Y-118348571D01*
X212819523Y-118443809D01*
X212819523Y-118681904D01*
X212771904Y-118777142D01*
X212724285Y-118824761D01*
X212629047Y-118872380D01*
X212343333Y-118872380D01*
X212248095Y-118824761D01*
X212200476Y-118777142D01*
G04 #@! TO.C,H4*
X79248095Y-118872380D02*
X79248095Y-117872380D01*
X79248095Y-118348571D02*
X79819523Y-118348571D01*
X79819523Y-118872380D02*
X79819523Y-117872380D01*
X80724285Y-118205714D02*
X80724285Y-118872380D01*
X80486190Y-117824761D02*
X80248095Y-118539047D01*
X80867142Y-118539047D01*
G04 #@! TO.C,TP1*
X191778095Y-87474380D02*
X192349523Y-87474380D01*
X192063809Y-88474380D02*
X192063809Y-87474380D01*
X192682857Y-88474380D02*
X192682857Y-87474380D01*
X193063809Y-87474380D01*
X193159047Y-87522000D01*
X193206666Y-87569619D01*
X193254285Y-87664857D01*
X193254285Y-87807714D01*
X193206666Y-87902952D01*
X193159047Y-87950571D01*
X193063809Y-87998190D01*
X192682857Y-87998190D01*
X194206666Y-88474380D02*
X193635238Y-88474380D01*
X193920952Y-88474380D02*
X193920952Y-87474380D01*
X193825714Y-87617238D01*
X193730476Y-87712476D01*
X193635238Y-87760095D01*
G04 #@! TO.C,TP2*
X199398095Y-83664380D02*
X199969523Y-83664380D01*
X199683809Y-84664380D02*
X199683809Y-83664380D01*
X200302857Y-84664380D02*
X200302857Y-83664380D01*
X200683809Y-83664380D01*
X200779047Y-83712000D01*
X200826666Y-83759619D01*
X200874285Y-83854857D01*
X200874285Y-83997714D01*
X200826666Y-84092952D01*
X200779047Y-84140571D01*
X200683809Y-84188190D01*
X200302857Y-84188190D01*
X201255238Y-83759619D02*
X201302857Y-83712000D01*
X201398095Y-83664380D01*
X201636190Y-83664380D01*
X201731428Y-83712000D01*
X201779047Y-83759619D01*
X201826666Y-83854857D01*
X201826666Y-83950095D01*
X201779047Y-84092952D01*
X201207619Y-84664380D01*
X201826666Y-84664380D01*
G04 #@! TO.C,TP3*
X208288095Y-83272380D02*
X208859523Y-83272380D01*
X208573809Y-84272380D02*
X208573809Y-83272380D01*
X209192857Y-84272380D02*
X209192857Y-83272380D01*
X209573809Y-83272380D01*
X209669047Y-83320000D01*
X209716666Y-83367619D01*
X209764285Y-83462857D01*
X209764285Y-83605714D01*
X209716666Y-83700952D01*
X209669047Y-83748571D01*
X209573809Y-83796190D01*
X209192857Y-83796190D01*
X210097619Y-83272380D02*
X210716666Y-83272380D01*
X210383333Y-83653333D01*
X210526190Y-83653333D01*
X210621428Y-83700952D01*
X210669047Y-83748571D01*
X210716666Y-83843809D01*
X210716666Y-84081904D01*
X210669047Y-84177142D01*
X210621428Y-84224761D01*
X210526190Y-84272380D01*
X210240476Y-84272380D01*
X210145238Y-84224761D01*
X210097619Y-84177142D01*
G04 #@! TO.C,J3*
X198842380Y-104473333D02*
X199556666Y-104473333D01*
X199699523Y-104520952D01*
X199794761Y-104616190D01*
X199842380Y-104759047D01*
X199842380Y-104854285D01*
X198842380Y-104092380D02*
X198842380Y-103473333D01*
X199223333Y-103806666D01*
X199223333Y-103663809D01*
X199270952Y-103568571D01*
X199318571Y-103520952D01*
X199413809Y-103473333D01*
X199651904Y-103473333D01*
X199747142Y-103520952D01*
X199794761Y-103568571D01*
X199842380Y-103663809D01*
X199842380Y-103949523D01*
X199794761Y-104044761D01*
X199747142Y-104092380D01*
G04 #@! TO.C,R2*
X190402380Y-106629166D02*
X189926190Y-106962500D01*
X190402380Y-107200595D02*
X189402380Y-107200595D01*
X189402380Y-106819642D01*
X189450000Y-106724404D01*
X189497619Y-106676785D01*
X189592857Y-106629166D01*
X189735714Y-106629166D01*
X189830952Y-106676785D01*
X189878571Y-106724404D01*
X189926190Y-106819642D01*
X189926190Y-107200595D01*
X189497619Y-106248214D02*
X189450000Y-106200595D01*
X189402380Y-106105357D01*
X189402380Y-105867261D01*
X189450000Y-105772023D01*
X189497619Y-105724404D01*
X189592857Y-105676785D01*
X189688095Y-105676785D01*
X189830952Y-105724404D01*
X190402380Y-106295833D01*
X190402380Y-105676785D01*
G04 #@! TO.C,TP4*
X202573095Y-119224380D02*
X203144523Y-119224380D01*
X202858809Y-120224380D02*
X202858809Y-119224380D01*
X203477857Y-120224380D02*
X203477857Y-119224380D01*
X203858809Y-119224380D01*
X203954047Y-119272000D01*
X204001666Y-119319619D01*
X204049285Y-119414857D01*
X204049285Y-119557714D01*
X204001666Y-119652952D01*
X203954047Y-119700571D01*
X203858809Y-119748190D01*
X203477857Y-119748190D01*
X204906428Y-119557714D02*
X204906428Y-120224380D01*
X204668333Y-119176761D02*
X204430238Y-119891047D01*
X205049285Y-119891047D01*
G04 #@! TO.C,C3*
X193508333Y-114257142D02*
X193460714Y-114304761D01*
X193317857Y-114352380D01*
X193222619Y-114352380D01*
X193079761Y-114304761D01*
X192984523Y-114209523D01*
X192936904Y-114114285D01*
X192889285Y-113923809D01*
X192889285Y-113780952D01*
X192936904Y-113590476D01*
X192984523Y-113495238D01*
X193079761Y-113400000D01*
X193222619Y-113352380D01*
X193317857Y-113352380D01*
X193460714Y-113400000D01*
X193508333Y-113447619D01*
X193841666Y-113352380D02*
X194460714Y-113352380D01*
X194127380Y-113733333D01*
X194270238Y-113733333D01*
X194365476Y-113780952D01*
X194413095Y-113828571D01*
X194460714Y-113923809D01*
X194460714Y-114161904D01*
X194413095Y-114257142D01*
X194365476Y-114304761D01*
X194270238Y-114352380D01*
X193984523Y-114352380D01*
X193889285Y-114304761D01*
X193841666Y-114257142D01*
G04 #@! TO.C,U1*
X188682380Y-101091904D02*
X189491904Y-101091904D01*
X189587142Y-101044285D01*
X189634761Y-100996666D01*
X189682380Y-100901428D01*
X189682380Y-100710952D01*
X189634761Y-100615714D01*
X189587142Y-100568095D01*
X189491904Y-100520476D01*
X188682380Y-100520476D01*
X189682380Y-99520476D02*
X189682380Y-100091904D01*
X189682380Y-99806190D02*
X188682380Y-99806190D01*
X188825238Y-99901428D01*
X188920476Y-99996666D01*
X188968095Y-100091904D01*
G04 #@! TO.C,T1*
X101052380Y-89661904D02*
X101052380Y-89090476D01*
X102052380Y-89376190D02*
X101052380Y-89376190D01*
X102052380Y-88233333D02*
X102052380Y-88804761D01*
X102052380Y-88519047D02*
X101052380Y-88519047D01*
X101195238Y-88614285D01*
X101290476Y-88709523D01*
X101338095Y-88804761D01*
G04 #@! TD*
M02*
