M48
;DRILL file {KiCad (5.0.2)-1} date 5/12/2019 9:22:12 PM
;FORMAT={-:-/ absolute / inch / decimal}
FMAT,2
INCH,TZ
T1C0.0157
T2C0.0300
T3C0.0472
T4C0.0630
T5C0.0669
T6C0.1260
%
G90
G05
T1
X3.525Y-3.95
X4.85Y-3.9
X5.1Y-3.7
X6.65Y-3.65
X7.Y-3.65
T2
X7.15Y-3.55
X7.15Y-3.65
X7.15Y-4.15
X7.15Y-4.25
X7.15Y-4.35
X4.2Y-2.2
X4.2Y-2.5
X4.2Y-4.5
X4.2Y-4.8
X6.8Y-2.2
X6.8Y-2.4
X6.8Y-4.6
X6.8Y-4.8
T3
X7.275Y-2.1439
X7.275Y-3.325
X7.125Y-4.75
X7.7156Y-4.75
X3.725Y-3.1892
X3.725Y-4.075
T4
X7.775Y-2.2
X7.775Y-2.4
X7.775Y-2.6
X7.775Y-2.8
T5
X3.725Y-2.1455
X3.725Y-2.3014
X3.725Y-2.4573
X3.725Y-2.6132
X3.725Y-2.7691
X3.725Y-2.925
X8.075Y-3.7764
X8.075Y-3.9323
X8.075Y-4.0882
X8.075Y-4.2441
X8.075Y-4.4
X3.275Y-3.95
X3.275Y-4.1059
X3.275Y-4.2618
X3.75Y-4.6441
X3.75Y-4.8
T6
X3.15Y-4.6622
T0
M30
