G04 #@! TF.GenerationSoftware,KiCad,Pcbnew,(5.0.2)-1*
G04 #@! TF.CreationDate,2019-05-12T21:22:09-05:00*
G04 #@! TF.ProjectId,C64-Power-Supply,4336342d-506f-4776-9572-2d537570706c,0.1*
G04 #@! TF.SameCoordinates,Original*
G04 #@! TF.FileFunction,Paste,Top*
G04 #@! TF.FilePolarity,Positive*
%FSLAX46Y46*%
G04 Gerber Fmt 4.6, Leading zero omitted, Abs format (unit mm)*
G04 Created by KiCad (PCBNEW (5.0.2)-1) date 5/12/2019 9:22:09 PM*
%MOMM*%
%LPD*%
G01*
G04 APERTURE LIST*
%ADD10C,0.100000*%
%ADD11C,1.425000*%
G04 APERTURE END LIST*
D10*
G04 #@! TO.C,R1*
G36*
X205119504Y-67868704D02*
X205143773Y-67872304D01*
X205167571Y-67878265D01*
X205190671Y-67886530D01*
X205212849Y-67897020D01*
X205233893Y-67909633D01*
X205253598Y-67924247D01*
X205271777Y-67940723D01*
X205288253Y-67958902D01*
X205302867Y-67978607D01*
X205315480Y-67999651D01*
X205325970Y-68021829D01*
X205334235Y-68044929D01*
X205340196Y-68068727D01*
X205343796Y-68092996D01*
X205345000Y-68117500D01*
X205345000Y-69042500D01*
X205343796Y-69067004D01*
X205340196Y-69091273D01*
X205334235Y-69115071D01*
X205325970Y-69138171D01*
X205315480Y-69160349D01*
X205302867Y-69181393D01*
X205288253Y-69201098D01*
X205271777Y-69219277D01*
X205253598Y-69235753D01*
X205233893Y-69250367D01*
X205212849Y-69262980D01*
X205190671Y-69273470D01*
X205167571Y-69281735D01*
X205143773Y-69287696D01*
X205119504Y-69291296D01*
X205095000Y-69292500D01*
X203845000Y-69292500D01*
X203820496Y-69291296D01*
X203796227Y-69287696D01*
X203772429Y-69281735D01*
X203749329Y-69273470D01*
X203727151Y-69262980D01*
X203706107Y-69250367D01*
X203686402Y-69235753D01*
X203668223Y-69219277D01*
X203651747Y-69201098D01*
X203637133Y-69181393D01*
X203624520Y-69160349D01*
X203614030Y-69138171D01*
X203605765Y-69115071D01*
X203599804Y-69091273D01*
X203596204Y-69067004D01*
X203595000Y-69042500D01*
X203595000Y-68117500D01*
X203596204Y-68092996D01*
X203599804Y-68068727D01*
X203605765Y-68044929D01*
X203614030Y-68021829D01*
X203624520Y-67999651D01*
X203637133Y-67978607D01*
X203651747Y-67958902D01*
X203668223Y-67940723D01*
X203686402Y-67924247D01*
X203706107Y-67909633D01*
X203727151Y-67897020D01*
X203749329Y-67886530D01*
X203772429Y-67878265D01*
X203796227Y-67872304D01*
X203820496Y-67868704D01*
X203845000Y-67867500D01*
X205095000Y-67867500D01*
X205119504Y-67868704D01*
X205119504Y-67868704D01*
G37*
D11*
X204470000Y-68580000D03*
D10*
G36*
X205119504Y-64893704D02*
X205143773Y-64897304D01*
X205167571Y-64903265D01*
X205190671Y-64911530D01*
X205212849Y-64922020D01*
X205233893Y-64934633D01*
X205253598Y-64949247D01*
X205271777Y-64965723D01*
X205288253Y-64983902D01*
X205302867Y-65003607D01*
X205315480Y-65024651D01*
X205325970Y-65046829D01*
X205334235Y-65069929D01*
X205340196Y-65093727D01*
X205343796Y-65117996D01*
X205345000Y-65142500D01*
X205345000Y-66067500D01*
X205343796Y-66092004D01*
X205340196Y-66116273D01*
X205334235Y-66140071D01*
X205325970Y-66163171D01*
X205315480Y-66185349D01*
X205302867Y-66206393D01*
X205288253Y-66226098D01*
X205271777Y-66244277D01*
X205253598Y-66260753D01*
X205233893Y-66275367D01*
X205212849Y-66287980D01*
X205190671Y-66298470D01*
X205167571Y-66306735D01*
X205143773Y-66312696D01*
X205119504Y-66316296D01*
X205095000Y-66317500D01*
X203845000Y-66317500D01*
X203820496Y-66316296D01*
X203796227Y-66312696D01*
X203772429Y-66306735D01*
X203749329Y-66298470D01*
X203727151Y-66287980D01*
X203706107Y-66275367D01*
X203686402Y-66260753D01*
X203668223Y-66244277D01*
X203651747Y-66226098D01*
X203637133Y-66206393D01*
X203624520Y-66185349D01*
X203614030Y-66163171D01*
X203605765Y-66140071D01*
X203599804Y-66116273D01*
X203596204Y-66092004D01*
X203595000Y-66067500D01*
X203595000Y-65142500D01*
X203596204Y-65117996D01*
X203599804Y-65093727D01*
X203605765Y-65069929D01*
X203614030Y-65046829D01*
X203624520Y-65024651D01*
X203637133Y-65003607D01*
X203651747Y-64983902D01*
X203668223Y-64965723D01*
X203686402Y-64949247D01*
X203706107Y-64934633D01*
X203727151Y-64922020D01*
X203749329Y-64911530D01*
X203772429Y-64903265D01*
X203796227Y-64897304D01*
X203820496Y-64893704D01*
X203845000Y-64892500D01*
X205095000Y-64892500D01*
X205119504Y-64893704D01*
X205119504Y-64893704D01*
G37*
D11*
X204470000Y-65605000D03*
G04 #@! TD*
D10*
G04 #@! TO.C,R2*
G36*
X192419504Y-107238704D02*
X192443773Y-107242304D01*
X192467571Y-107248265D01*
X192490671Y-107256530D01*
X192512849Y-107267020D01*
X192533893Y-107279633D01*
X192553598Y-107294247D01*
X192571777Y-107310723D01*
X192588253Y-107328902D01*
X192602867Y-107348607D01*
X192615480Y-107369651D01*
X192625970Y-107391829D01*
X192634235Y-107414929D01*
X192640196Y-107438727D01*
X192643796Y-107462996D01*
X192645000Y-107487500D01*
X192645000Y-108412500D01*
X192643796Y-108437004D01*
X192640196Y-108461273D01*
X192634235Y-108485071D01*
X192625970Y-108508171D01*
X192615480Y-108530349D01*
X192602867Y-108551393D01*
X192588253Y-108571098D01*
X192571777Y-108589277D01*
X192553598Y-108605753D01*
X192533893Y-108620367D01*
X192512849Y-108632980D01*
X192490671Y-108643470D01*
X192467571Y-108651735D01*
X192443773Y-108657696D01*
X192419504Y-108661296D01*
X192395000Y-108662500D01*
X191145000Y-108662500D01*
X191120496Y-108661296D01*
X191096227Y-108657696D01*
X191072429Y-108651735D01*
X191049329Y-108643470D01*
X191027151Y-108632980D01*
X191006107Y-108620367D01*
X190986402Y-108605753D01*
X190968223Y-108589277D01*
X190951747Y-108571098D01*
X190937133Y-108551393D01*
X190924520Y-108530349D01*
X190914030Y-108508171D01*
X190905765Y-108485071D01*
X190899804Y-108461273D01*
X190896204Y-108437004D01*
X190895000Y-108412500D01*
X190895000Y-107487500D01*
X190896204Y-107462996D01*
X190899804Y-107438727D01*
X190905765Y-107414929D01*
X190914030Y-107391829D01*
X190924520Y-107369651D01*
X190937133Y-107348607D01*
X190951747Y-107328902D01*
X190968223Y-107310723D01*
X190986402Y-107294247D01*
X191006107Y-107279633D01*
X191027151Y-107267020D01*
X191049329Y-107256530D01*
X191072429Y-107248265D01*
X191096227Y-107242304D01*
X191120496Y-107238704D01*
X191145000Y-107237500D01*
X192395000Y-107237500D01*
X192419504Y-107238704D01*
X192419504Y-107238704D01*
G37*
D11*
X191770000Y-107950000D03*
D10*
G36*
X192419504Y-104263704D02*
X192443773Y-104267304D01*
X192467571Y-104273265D01*
X192490671Y-104281530D01*
X192512849Y-104292020D01*
X192533893Y-104304633D01*
X192553598Y-104319247D01*
X192571777Y-104335723D01*
X192588253Y-104353902D01*
X192602867Y-104373607D01*
X192615480Y-104394651D01*
X192625970Y-104416829D01*
X192634235Y-104439929D01*
X192640196Y-104463727D01*
X192643796Y-104487996D01*
X192645000Y-104512500D01*
X192645000Y-105437500D01*
X192643796Y-105462004D01*
X192640196Y-105486273D01*
X192634235Y-105510071D01*
X192625970Y-105533171D01*
X192615480Y-105555349D01*
X192602867Y-105576393D01*
X192588253Y-105596098D01*
X192571777Y-105614277D01*
X192553598Y-105630753D01*
X192533893Y-105645367D01*
X192512849Y-105657980D01*
X192490671Y-105668470D01*
X192467571Y-105676735D01*
X192443773Y-105682696D01*
X192419504Y-105686296D01*
X192395000Y-105687500D01*
X191145000Y-105687500D01*
X191120496Y-105686296D01*
X191096227Y-105682696D01*
X191072429Y-105676735D01*
X191049329Y-105668470D01*
X191027151Y-105657980D01*
X191006107Y-105645367D01*
X190986402Y-105630753D01*
X190968223Y-105614277D01*
X190951747Y-105596098D01*
X190937133Y-105576393D01*
X190924520Y-105555349D01*
X190914030Y-105533171D01*
X190905765Y-105510071D01*
X190899804Y-105486273D01*
X190896204Y-105462004D01*
X190895000Y-105437500D01*
X190895000Y-104512500D01*
X190896204Y-104487996D01*
X190899804Y-104463727D01*
X190905765Y-104439929D01*
X190914030Y-104416829D01*
X190924520Y-104394651D01*
X190937133Y-104373607D01*
X190951747Y-104353902D01*
X190968223Y-104335723D01*
X190986402Y-104319247D01*
X191006107Y-104304633D01*
X191027151Y-104292020D01*
X191049329Y-104281530D01*
X191072429Y-104273265D01*
X191096227Y-104267304D01*
X191120496Y-104263704D01*
X191145000Y-104262500D01*
X192395000Y-104262500D01*
X192419504Y-104263704D01*
X192419504Y-104263704D01*
G37*
D11*
X191770000Y-104975000D03*
G04 #@! TD*
M02*
