G04 #@! TF.GenerationSoftware,KiCad,Pcbnew,(5.0.2)-1*
G04 #@! TF.CreationDate,2019-05-12T21:22:09-05:00*
G04 #@! TF.ProjectId,C64-Power-Supply,4336342d-506f-4776-9572-2d537570706c,0.1*
G04 #@! TF.SameCoordinates,Original*
G04 #@! TF.FileFunction,Soldermask,Top*
G04 #@! TF.FilePolarity,Negative*
%FSLAX46Y46*%
G04 Gerber Fmt 4.6, Leading zero omitted, Abs format (unit mm)*
G04 Created by KiCad (PCBNEW (5.0.2)-1) date 5/12/2019 9:22:09 PM*
%MOMM*%
%LPD*%
G01*
G04 APERTURE LIST*
%ADD10C,0.100000*%
G04 APERTURE END LIST*
D10*
G36*
X96524032Y-120522621D02*
X96553487Y-120531556D01*
X96580624Y-120546062D01*
X96604414Y-120565586D01*
X96623938Y-120589376D01*
X96638444Y-120616513D01*
X96647379Y-120645968D01*
X96651000Y-120682733D01*
X96651000Y-123157267D01*
X96647379Y-123194032D01*
X96638444Y-123223487D01*
X96623938Y-123250624D01*
X96604414Y-123274414D01*
X96580624Y-123293938D01*
X96553487Y-123308444D01*
X96524032Y-123317379D01*
X96487267Y-123321000D01*
X94012733Y-123321000D01*
X93975968Y-123317379D01*
X93946513Y-123308444D01*
X93919376Y-123293938D01*
X93895586Y-123274414D01*
X93876062Y-123250624D01*
X93861556Y-123223487D01*
X93852621Y-123194032D01*
X93849000Y-123157267D01*
X93849000Y-120682733D01*
X93852621Y-120645968D01*
X93861556Y-120616513D01*
X93876062Y-120589376D01*
X93895586Y-120565586D01*
X93919376Y-120546062D01*
X93946513Y-120531556D01*
X93975968Y-120522621D01*
X94012733Y-120519000D01*
X96487267Y-120519000D01*
X96524032Y-120522621D01*
X96524032Y-120522621D01*
G37*
G36*
X204214485Y-120668996D02*
X204214487Y-120668997D01*
X204214488Y-120668997D01*
X204451255Y-120767069D01*
X204664342Y-120909449D01*
X204845551Y-121090658D01*
X204845553Y-121090661D01*
X204987931Y-121303745D01*
X205083678Y-121534898D01*
X205086004Y-121540515D01*
X205136000Y-121791861D01*
X205136000Y-122048139D01*
X205114318Y-122157143D01*
X205086003Y-122299488D01*
X205028523Y-122438257D01*
X204987931Y-122536255D01*
X204845551Y-122749342D01*
X204664342Y-122930551D01*
X204664339Y-122930553D01*
X204451255Y-123072931D01*
X204214488Y-123171003D01*
X204214487Y-123171003D01*
X204214485Y-123171004D01*
X203963139Y-123221000D01*
X203706861Y-123221000D01*
X203455515Y-123171004D01*
X203455513Y-123171003D01*
X203455512Y-123171003D01*
X203218745Y-123072931D01*
X203005661Y-122930553D01*
X203005658Y-122930551D01*
X202824449Y-122749342D01*
X202682069Y-122536255D01*
X202641477Y-122438257D01*
X202583997Y-122299488D01*
X202555683Y-122157143D01*
X202534000Y-122048139D01*
X202534000Y-121791861D01*
X202583996Y-121540515D01*
X202586323Y-121534898D01*
X202682069Y-121303745D01*
X202824447Y-121090661D01*
X202824449Y-121090658D01*
X203005658Y-120909449D01*
X203218745Y-120767069D01*
X203455512Y-120668997D01*
X203455513Y-120668997D01*
X203455515Y-120668996D01*
X203706861Y-120619000D01*
X203963139Y-120619000D01*
X204214485Y-120668996D01*
X204214485Y-120668996D01*
G37*
G36*
X106917142Y-121138242D02*
X107065102Y-121199530D01*
X107129517Y-121242571D01*
X107198257Y-121288501D01*
X107311499Y-121401743D01*
X107400471Y-121534900D01*
X107402797Y-121540515D01*
X107461758Y-121682858D01*
X107493000Y-121839925D01*
X107493000Y-122000075D01*
X107461758Y-122157142D01*
X107414354Y-122271583D01*
X107402796Y-122299488D01*
X107400470Y-122305102D01*
X107311498Y-122438258D01*
X107198258Y-122551498D01*
X107065102Y-122640470D01*
X106917142Y-122701758D01*
X106760075Y-122733000D01*
X106599925Y-122733000D01*
X106442858Y-122701758D01*
X106294898Y-122640470D01*
X106161742Y-122551498D01*
X106048502Y-122438258D01*
X105959530Y-122305102D01*
X105957205Y-122299488D01*
X105945646Y-122271583D01*
X105898242Y-122157142D01*
X105867000Y-122000075D01*
X105867000Y-121839925D01*
X105898242Y-121682858D01*
X105957203Y-121540515D01*
X105959529Y-121534900D01*
X106048501Y-121401743D01*
X106161743Y-121288501D01*
X106230483Y-121242571D01*
X106294898Y-121199530D01*
X106442858Y-121138242D01*
X106599925Y-121107000D01*
X106760075Y-121107000D01*
X106917142Y-121138242D01*
X106917142Y-121138242D01*
G37*
G36*
X172957142Y-121138242D02*
X173105102Y-121199530D01*
X173169517Y-121242571D01*
X173238257Y-121288501D01*
X173351499Y-121401743D01*
X173440471Y-121534900D01*
X173442797Y-121540515D01*
X173501758Y-121682858D01*
X173533000Y-121839925D01*
X173533000Y-122000075D01*
X173501758Y-122157142D01*
X173454354Y-122271583D01*
X173442796Y-122299488D01*
X173440470Y-122305102D01*
X173351498Y-122438258D01*
X173238258Y-122551498D01*
X173105102Y-122640470D01*
X172957142Y-122701758D01*
X172800075Y-122733000D01*
X172639925Y-122733000D01*
X172482858Y-122701758D01*
X172334898Y-122640470D01*
X172201742Y-122551498D01*
X172088502Y-122438258D01*
X171999530Y-122305102D01*
X171997205Y-122299488D01*
X171985646Y-122271583D01*
X171938242Y-122157142D01*
X171907000Y-122000075D01*
X171907000Y-121839925D01*
X171938242Y-121682858D01*
X171997203Y-121540515D01*
X171999529Y-121534900D01*
X172088501Y-121401743D01*
X172201743Y-121288501D01*
X172270483Y-121242571D01*
X172334898Y-121199530D01*
X172482858Y-121138242D01*
X172639925Y-121107000D01*
X172800075Y-121107000D01*
X172957142Y-121138242D01*
X172957142Y-121138242D01*
G37*
G36*
X181158636Y-119411019D02*
X181339903Y-119447075D01*
X181567571Y-119541378D01*
X181771542Y-119677668D01*
X181772469Y-119678287D01*
X181946713Y-119852531D01*
X181946715Y-119852534D01*
X182083622Y-120057429D01*
X182177925Y-120285097D01*
X182213981Y-120466364D01*
X182225172Y-120522621D01*
X182226000Y-120526787D01*
X182226000Y-120773213D01*
X182177925Y-121014903D01*
X182083622Y-121242571D01*
X181977267Y-121401742D01*
X181946713Y-121447469D01*
X181772469Y-121621713D01*
X181772466Y-121621715D01*
X181567571Y-121758622D01*
X181339903Y-121852925D01*
X181158636Y-121888981D01*
X181098214Y-121901000D01*
X180851786Y-121901000D01*
X180791364Y-121888981D01*
X180610097Y-121852925D01*
X180382429Y-121758622D01*
X180177534Y-121621715D01*
X180177531Y-121621713D01*
X180003287Y-121447469D01*
X179972733Y-121401742D01*
X179866378Y-121242571D01*
X179772075Y-121014903D01*
X179724000Y-120773213D01*
X179724000Y-120526787D01*
X179724829Y-120522621D01*
X179736019Y-120466364D01*
X179772075Y-120285097D01*
X179866378Y-120057429D01*
X180003285Y-119852534D01*
X180003287Y-119852531D01*
X180177531Y-119678287D01*
X180178458Y-119677668D01*
X180382429Y-119541378D01*
X180610097Y-119447075D01*
X180791364Y-119411019D01*
X180851786Y-119399000D01*
X181098214Y-119399000D01*
X181158636Y-119411019D01*
X181158636Y-119411019D01*
G37*
G36*
X196158636Y-119411019D02*
X196339903Y-119447075D01*
X196567571Y-119541378D01*
X196771542Y-119677668D01*
X196772469Y-119678287D01*
X196946713Y-119852531D01*
X196946715Y-119852534D01*
X197083622Y-120057429D01*
X197177925Y-120285097D01*
X197213981Y-120466364D01*
X197225172Y-120522621D01*
X197226000Y-120526787D01*
X197226000Y-120773213D01*
X197177925Y-121014903D01*
X197083622Y-121242571D01*
X196977267Y-121401742D01*
X196946713Y-121447469D01*
X196772469Y-121621713D01*
X196772466Y-121621715D01*
X196567571Y-121758622D01*
X196339903Y-121852925D01*
X196158636Y-121888981D01*
X196098214Y-121901000D01*
X195851786Y-121901000D01*
X195791364Y-121888981D01*
X195610097Y-121852925D01*
X195382429Y-121758622D01*
X195177534Y-121621715D01*
X195177531Y-121621713D01*
X195003287Y-121447469D01*
X194972733Y-121401742D01*
X194866378Y-121242571D01*
X194772075Y-121014903D01*
X194724000Y-120773213D01*
X194724000Y-120526787D01*
X194724829Y-120522621D01*
X194736019Y-120466364D01*
X194772075Y-120285097D01*
X194866378Y-120057429D01*
X195003285Y-119852534D01*
X195003287Y-119852531D01*
X195177531Y-119678287D01*
X195178458Y-119677668D01*
X195382429Y-119541378D01*
X195610097Y-119447075D01*
X195791364Y-119411019D01*
X195851786Y-119399000D01*
X196098214Y-119399000D01*
X196158636Y-119411019D01*
X196158636Y-119411019D01*
G37*
G36*
X80644239Y-115231467D02*
X80958282Y-115293934D01*
X81549926Y-115539001D01*
X82078802Y-115892385D01*
X82082395Y-115894786D01*
X82535214Y-116347605D01*
X82535216Y-116347608D01*
X82890999Y-116880074D01*
X83136066Y-117471718D01*
X83172125Y-117653000D01*
X83260639Y-118097986D01*
X83261000Y-118099804D01*
X83261000Y-118740196D01*
X83136066Y-119368282D01*
X82890999Y-119959926D01*
X82673726Y-120285097D01*
X82535214Y-120492395D01*
X82082395Y-120945214D01*
X82082392Y-120945216D01*
X81549926Y-121300999D01*
X80958282Y-121546066D01*
X80644239Y-121608533D01*
X80330197Y-121671000D01*
X79689803Y-121671000D01*
X79375761Y-121608533D01*
X79061718Y-121546066D01*
X78470074Y-121300999D01*
X77937608Y-120945216D01*
X77937605Y-120945214D01*
X77484786Y-120492395D01*
X77346274Y-120285097D01*
X77129001Y-119959926D01*
X76883934Y-119368282D01*
X76759000Y-118740196D01*
X76759000Y-118099804D01*
X76759362Y-118097986D01*
X76847875Y-117653000D01*
X76883934Y-117471718D01*
X77129001Y-116880074D01*
X77484784Y-116347608D01*
X77484786Y-116347605D01*
X77937605Y-115894786D01*
X77941198Y-115892385D01*
X78470074Y-115539001D01*
X79061718Y-115293934D01*
X79375761Y-115231467D01*
X79689803Y-115169000D01*
X80330197Y-115169000D01*
X80644239Y-115231467D01*
X80644239Y-115231467D01*
G37*
G36*
X212385256Y-116811298D02*
X212491579Y-116832447D01*
X212792042Y-116956903D01*
X212971992Y-117077142D01*
X213062454Y-117137587D01*
X213292413Y-117367546D01*
X213292415Y-117367549D01*
X213473097Y-117637958D01*
X213549336Y-117822014D01*
X213597553Y-117938422D01*
X213661000Y-118257389D01*
X213661000Y-118582611D01*
X213597553Y-118901578D01*
X213473301Y-119201551D01*
X213473097Y-119202042D01*
X213309371Y-119447075D01*
X213292413Y-119472454D01*
X213062454Y-119702413D01*
X213062451Y-119702415D01*
X212792042Y-119883097D01*
X212491579Y-120007553D01*
X212385256Y-120028702D01*
X212172611Y-120071000D01*
X211847389Y-120071000D01*
X211634744Y-120028702D01*
X211528421Y-120007553D01*
X211227958Y-119883097D01*
X210957549Y-119702415D01*
X210957546Y-119702413D01*
X210727587Y-119472454D01*
X210710629Y-119447075D01*
X210546903Y-119202042D01*
X210546700Y-119201551D01*
X210422447Y-118901578D01*
X210359000Y-118582611D01*
X210359000Y-118257389D01*
X210422447Y-117938422D01*
X210470665Y-117822014D01*
X210546903Y-117637958D01*
X210727585Y-117367549D01*
X210727587Y-117367546D01*
X210957546Y-117137587D01*
X211048008Y-117077142D01*
X211227958Y-116956903D01*
X211528421Y-116832447D01*
X211634744Y-116811298D01*
X211847389Y-116769000D01*
X212172611Y-116769000D01*
X212385256Y-116811298D01*
X212385256Y-116811298D01*
G37*
G36*
X95568433Y-116594893D02*
X95658657Y-116612839D01*
X95764267Y-116656585D01*
X95913621Y-116718449D01*
X96143089Y-116871774D01*
X96338226Y-117066911D01*
X96491551Y-117296379D01*
X96553415Y-117445733D01*
X96597161Y-117551343D01*
X96611167Y-117621757D01*
X96651000Y-117822012D01*
X96651000Y-118097988D01*
X96597161Y-118368656D01*
X96491551Y-118623621D01*
X96338226Y-118853089D01*
X96143089Y-119048226D01*
X95913621Y-119201551D01*
X95764267Y-119263415D01*
X95658657Y-119307161D01*
X95568433Y-119325107D01*
X95387988Y-119361000D01*
X95112012Y-119361000D01*
X94931567Y-119325107D01*
X94841343Y-119307161D01*
X94735733Y-119263415D01*
X94586379Y-119201551D01*
X94356911Y-119048226D01*
X94161774Y-118853089D01*
X94008449Y-118623621D01*
X93902839Y-118368656D01*
X93849000Y-118097988D01*
X93849000Y-117822012D01*
X93888833Y-117621757D01*
X93902839Y-117551343D01*
X93946585Y-117445733D01*
X94008449Y-117296379D01*
X94161774Y-117066911D01*
X94356911Y-116871774D01*
X94586379Y-116718449D01*
X94735733Y-116656585D01*
X94841343Y-116612839D01*
X94931567Y-116594893D01*
X95112012Y-116559000D01*
X95387988Y-116559000D01*
X95568433Y-116594893D01*
X95568433Y-116594893D01*
G37*
G36*
X172957142Y-116058242D02*
X173105102Y-116119530D01*
X173238258Y-116208502D01*
X173351498Y-116321742D01*
X173440470Y-116454898D01*
X173501758Y-116602858D01*
X173533000Y-116759925D01*
X173533000Y-116920075D01*
X173501758Y-117077142D01*
X173476721Y-117137585D01*
X173440471Y-117225100D01*
X173351499Y-117358257D01*
X173238257Y-117471499D01*
X173172130Y-117515683D01*
X173105102Y-117560470D01*
X172957142Y-117621758D01*
X172800075Y-117653000D01*
X172639925Y-117653000D01*
X172482858Y-117621758D01*
X172334898Y-117560470D01*
X172267870Y-117515683D01*
X172201743Y-117471499D01*
X172088501Y-117358257D01*
X171999529Y-117225100D01*
X171963279Y-117137585D01*
X171938242Y-117077142D01*
X171907000Y-116920075D01*
X171907000Y-116759925D01*
X171938242Y-116602858D01*
X171999530Y-116454898D01*
X172088502Y-116321742D01*
X172201742Y-116208502D01*
X172334898Y-116119530D01*
X172482858Y-116058242D01*
X172639925Y-116027000D01*
X172800075Y-116027000D01*
X172957142Y-116058242D01*
X172957142Y-116058242D01*
G37*
G36*
X106917142Y-113518242D02*
X107065102Y-113579530D01*
X107198258Y-113668502D01*
X107311498Y-113781742D01*
X107400470Y-113914898D01*
X107461758Y-114062858D01*
X107493000Y-114219925D01*
X107493000Y-114380075D01*
X107461758Y-114537142D01*
X107400470Y-114685102D01*
X107311498Y-114818258D01*
X107198258Y-114931498D01*
X107065102Y-115020470D01*
X106917142Y-115081758D01*
X106760075Y-115113000D01*
X106599925Y-115113000D01*
X106442858Y-115081758D01*
X106294898Y-115020470D01*
X106161742Y-114931498D01*
X106048502Y-114818258D01*
X105959530Y-114685102D01*
X105898242Y-114537142D01*
X105867000Y-114380075D01*
X105867000Y-114219925D01*
X105898242Y-114062858D01*
X105959530Y-113914898D01*
X106048502Y-113781742D01*
X106161742Y-113668502D01*
X106294898Y-113579530D01*
X106442858Y-113518242D01*
X106599925Y-113487000D01*
X106760075Y-113487000D01*
X106917142Y-113518242D01*
X106917142Y-113518242D01*
G37*
G36*
X205423433Y-110394893D02*
X205513657Y-110412839D01*
X205619267Y-110456585D01*
X205768621Y-110518449D01*
X205998089Y-110671774D01*
X206193226Y-110866911D01*
X206346551Y-111096379D01*
X206452161Y-111351344D01*
X206506000Y-111622012D01*
X206506000Y-111897988D01*
X206452161Y-112168656D01*
X206346551Y-112423621D01*
X206193226Y-112653089D01*
X205998089Y-112848226D01*
X205768621Y-113001551D01*
X205619267Y-113063415D01*
X205513657Y-113107161D01*
X205423433Y-113125107D01*
X205242988Y-113161000D01*
X204967012Y-113161000D01*
X204786567Y-113125107D01*
X204696343Y-113107161D01*
X204590733Y-113063415D01*
X204441379Y-113001551D01*
X204211911Y-112848226D01*
X204016774Y-112653089D01*
X203863449Y-112423621D01*
X203757839Y-112168656D01*
X203704000Y-111897988D01*
X203704000Y-111622012D01*
X203757839Y-111351344D01*
X203863449Y-111096379D01*
X204016774Y-110866911D01*
X204211911Y-110671774D01*
X204441379Y-110518449D01*
X204590733Y-110456585D01*
X204696343Y-110412839D01*
X204786567Y-110394893D01*
X204967012Y-110359000D01*
X205242988Y-110359000D01*
X205423433Y-110394893D01*
X205423433Y-110394893D01*
G37*
G36*
X181847142Y-109708242D02*
X181995102Y-109769530D01*
X182128258Y-109858502D01*
X182241498Y-109971742D01*
X182330470Y-110104898D01*
X182391758Y-110252858D01*
X182423000Y-110409925D01*
X182423000Y-110570075D01*
X182391758Y-110727142D01*
X182330470Y-110875102D01*
X182241498Y-111008258D01*
X182128258Y-111121498D01*
X181995102Y-111210470D01*
X181847142Y-111271758D01*
X181690075Y-111303000D01*
X181529925Y-111303000D01*
X181372858Y-111271758D01*
X181224898Y-111210470D01*
X181091742Y-111121498D01*
X180978502Y-111008258D01*
X180889530Y-110875102D01*
X180828242Y-110727142D01*
X180797000Y-110570075D01*
X180797000Y-110409925D01*
X180828242Y-110252858D01*
X180889530Y-110104898D01*
X180978502Y-109971742D01*
X181091742Y-109858502D01*
X181224898Y-109769530D01*
X181372858Y-109708242D01*
X181529925Y-109677000D01*
X181690075Y-109677000D01*
X181847142Y-109708242D01*
X181847142Y-109708242D01*
G37*
G36*
X83503433Y-106884893D02*
X83593657Y-106902839D01*
X83699267Y-106946585D01*
X83848621Y-107008449D01*
X84078089Y-107161774D01*
X84273226Y-107356911D01*
X84426551Y-107586379D01*
X84532161Y-107841344D01*
X84586000Y-108112012D01*
X84586000Y-108387988D01*
X84570033Y-108468258D01*
X84532161Y-108658657D01*
X84517891Y-108693108D01*
X84426551Y-108913621D01*
X84273226Y-109143089D01*
X84078089Y-109338226D01*
X83848621Y-109491551D01*
X83699267Y-109553415D01*
X83593657Y-109597161D01*
X83503433Y-109615107D01*
X83322988Y-109651000D01*
X83047012Y-109651000D01*
X82866567Y-109615107D01*
X82776343Y-109597161D01*
X82670733Y-109553415D01*
X82521379Y-109491551D01*
X82291911Y-109338226D01*
X82096774Y-109143089D01*
X81943449Y-108913621D01*
X81852109Y-108693108D01*
X81837839Y-108658657D01*
X81799967Y-108468258D01*
X81784000Y-108387988D01*
X81784000Y-108112012D01*
X81837839Y-107841344D01*
X81943449Y-107586379D01*
X82096774Y-107356911D01*
X82291911Y-107161774D01*
X82521379Y-107008449D01*
X82670733Y-106946585D01*
X82776343Y-106902839D01*
X82866567Y-106884893D01*
X83047012Y-106849000D01*
X83322988Y-106849000D01*
X83503433Y-106884893D01*
X83503433Y-106884893D01*
G37*
G36*
X205423433Y-106434893D02*
X205513657Y-106452839D01*
X205619267Y-106496585D01*
X205768621Y-106558449D01*
X205998089Y-106711774D01*
X206193226Y-106906911D01*
X206346551Y-107136379D01*
X206385135Y-107229529D01*
X206437899Y-107356911D01*
X206452161Y-107391344D01*
X206490956Y-107586379D01*
X206506000Y-107662014D01*
X206506000Y-107937986D01*
X206456441Y-108187142D01*
X206452161Y-108208656D01*
X206346551Y-108463621D01*
X206193226Y-108693089D01*
X205998089Y-108888226D01*
X205768621Y-109041551D01*
X205619267Y-109103415D01*
X205513657Y-109147161D01*
X205423433Y-109165107D01*
X205242988Y-109201000D01*
X204967012Y-109201000D01*
X204786567Y-109165107D01*
X204696343Y-109147161D01*
X204590733Y-109103415D01*
X204441379Y-109041551D01*
X204211911Y-108888226D01*
X204016774Y-108693089D01*
X203863449Y-108463621D01*
X203757839Y-108208656D01*
X203753560Y-108187142D01*
X203704000Y-107937986D01*
X203704000Y-107662014D01*
X203719045Y-107586379D01*
X203757839Y-107391344D01*
X203772102Y-107356911D01*
X203824865Y-107229529D01*
X203863449Y-107136379D01*
X204016774Y-106906911D01*
X204211911Y-106711774D01*
X204441379Y-106558449D01*
X204590733Y-106496585D01*
X204696343Y-106452839D01*
X204786567Y-106434893D01*
X204967012Y-106399000D01*
X205242988Y-106399000D01*
X205423433Y-106434893D01*
X205423433Y-106434893D01*
G37*
G36*
X181847142Y-107168242D02*
X181995102Y-107229530D01*
X182013206Y-107241627D01*
X182128257Y-107318501D01*
X182241499Y-107431743D01*
X182330471Y-107564900D01*
X182339368Y-107586379D01*
X182391758Y-107712858D01*
X182423000Y-107869925D01*
X182423000Y-108030075D01*
X182391758Y-108187142D01*
X182382846Y-108208656D01*
X182330471Y-108335100D01*
X182241499Y-108468257D01*
X182128257Y-108581499D01*
X182062130Y-108625683D01*
X181995102Y-108670470D01*
X181847142Y-108731758D01*
X181690075Y-108763000D01*
X181529925Y-108763000D01*
X181372858Y-108731758D01*
X181224898Y-108670470D01*
X181157870Y-108625683D01*
X181091743Y-108581499D01*
X180978501Y-108468257D01*
X180889529Y-108335100D01*
X180837154Y-108208656D01*
X180828242Y-108187142D01*
X180797000Y-108030075D01*
X180797000Y-107869925D01*
X180828242Y-107712858D01*
X180880632Y-107586379D01*
X180889529Y-107564900D01*
X180978501Y-107431743D01*
X181091743Y-107318501D01*
X181206794Y-107241627D01*
X181224898Y-107229530D01*
X181372858Y-107168242D01*
X181529925Y-107137000D01*
X181690075Y-107137000D01*
X181847142Y-107168242D01*
X181847142Y-107168242D01*
G37*
G36*
X192545562Y-107190681D02*
X192580477Y-107201273D01*
X192612665Y-107218478D01*
X192640873Y-107241627D01*
X192664022Y-107269835D01*
X192681227Y-107302023D01*
X192691819Y-107336938D01*
X192696000Y-107379395D01*
X192696000Y-108520605D01*
X192691819Y-108563062D01*
X192681227Y-108597977D01*
X192664022Y-108630165D01*
X192640873Y-108658373D01*
X192612665Y-108681522D01*
X192580477Y-108698727D01*
X192545562Y-108709319D01*
X192503105Y-108713500D01*
X191036895Y-108713500D01*
X190994438Y-108709319D01*
X190959523Y-108698727D01*
X190927335Y-108681522D01*
X190899127Y-108658373D01*
X190875978Y-108630165D01*
X190858773Y-108597977D01*
X190848181Y-108563062D01*
X190844000Y-108520605D01*
X190844000Y-107379395D01*
X190848181Y-107336938D01*
X190858773Y-107302023D01*
X190875978Y-107269835D01*
X190899127Y-107241627D01*
X190927335Y-107218478D01*
X190959523Y-107201273D01*
X190994438Y-107190681D01*
X191036895Y-107186500D01*
X192503105Y-107186500D01*
X192545562Y-107190681D01*
X192545562Y-107190681D01*
G37*
G36*
X181847142Y-104628242D02*
X181995102Y-104689530D01*
X182022632Y-104707925D01*
X182094582Y-104756000D01*
X182128258Y-104778502D01*
X182241498Y-104891742D01*
X182330470Y-105024898D01*
X182391758Y-105172858D01*
X182423000Y-105329925D01*
X182423000Y-105490075D01*
X182391758Y-105647142D01*
X182330470Y-105795102D01*
X182241498Y-105928258D01*
X182128258Y-106041498D01*
X181995102Y-106130470D01*
X181847142Y-106191758D01*
X181690075Y-106223000D01*
X181529925Y-106223000D01*
X181372858Y-106191758D01*
X181224898Y-106130470D01*
X181091742Y-106041498D01*
X180978502Y-105928258D01*
X180889530Y-105795102D01*
X180828242Y-105647142D01*
X180797000Y-105490075D01*
X180797000Y-105329925D01*
X180828242Y-105172858D01*
X180889530Y-105024898D01*
X180978502Y-104891742D01*
X181091742Y-104778502D01*
X181125419Y-104756000D01*
X181197368Y-104707925D01*
X181224898Y-104689530D01*
X181372858Y-104628242D01*
X181529925Y-104597000D01*
X181690075Y-104597000D01*
X181847142Y-104628242D01*
X181847142Y-104628242D01*
G37*
G36*
X192545562Y-104215681D02*
X192580477Y-104226273D01*
X192612665Y-104243478D01*
X192640873Y-104266627D01*
X192664022Y-104294835D01*
X192681227Y-104327023D01*
X192691819Y-104361938D01*
X192696000Y-104404395D01*
X192696000Y-105545605D01*
X192691819Y-105588062D01*
X192681227Y-105622977D01*
X192664022Y-105655165D01*
X192640873Y-105683373D01*
X192612665Y-105706522D01*
X192580477Y-105723727D01*
X192545562Y-105734319D01*
X192503105Y-105738500D01*
X191036895Y-105738500D01*
X190994438Y-105734319D01*
X190959523Y-105723727D01*
X190927335Y-105706522D01*
X190899127Y-105683373D01*
X190875978Y-105655165D01*
X190858773Y-105622977D01*
X190848181Y-105588062D01*
X190844000Y-105545605D01*
X190844000Y-104404395D01*
X190848181Y-104361938D01*
X190858773Y-104327023D01*
X190875978Y-104294835D01*
X190899127Y-104266627D01*
X190927335Y-104243478D01*
X190959523Y-104226273D01*
X190994438Y-104215681D01*
X191036895Y-104211500D01*
X192503105Y-104211500D01*
X192545562Y-104215681D01*
X192545562Y-104215681D01*
G37*
G36*
X83503433Y-102924893D02*
X83593657Y-102942839D01*
X83699267Y-102986585D01*
X83848621Y-103048449D01*
X84078089Y-103201774D01*
X84273226Y-103396911D01*
X84426551Y-103626379D01*
X84532161Y-103881344D01*
X84586000Y-104152012D01*
X84586000Y-104427988D01*
X84552382Y-104597000D01*
X84532161Y-104698657D01*
X84499088Y-104778501D01*
X84426551Y-104953621D01*
X84273226Y-105183089D01*
X84078089Y-105378226D01*
X83848621Y-105531551D01*
X83712191Y-105588062D01*
X83593657Y-105637161D01*
X83543478Y-105647142D01*
X83322988Y-105691000D01*
X83047012Y-105691000D01*
X82826522Y-105647142D01*
X82776343Y-105637161D01*
X82657809Y-105588062D01*
X82521379Y-105531551D01*
X82291911Y-105378226D01*
X82096774Y-105183089D01*
X81943449Y-104953621D01*
X81870912Y-104778501D01*
X81837839Y-104698657D01*
X81817618Y-104597000D01*
X81784000Y-104427988D01*
X81784000Y-104152012D01*
X81837839Y-103881344D01*
X81943449Y-103626379D01*
X82096774Y-103396911D01*
X82291911Y-103201774D01*
X82521379Y-103048449D01*
X82670733Y-102986585D01*
X82776343Y-102942839D01*
X82866567Y-102924893D01*
X83047012Y-102889000D01*
X83322988Y-102889000D01*
X83503433Y-102924893D01*
X83503433Y-102924893D01*
G37*
G36*
X205423433Y-102474893D02*
X205513657Y-102492839D01*
X205611301Y-102533285D01*
X205768621Y-102598449D01*
X205998089Y-102751774D01*
X206193226Y-102946911D01*
X206346551Y-103176379D01*
X206408415Y-103325733D01*
X206437899Y-103396911D01*
X206452161Y-103431344D01*
X206506000Y-103702012D01*
X206506000Y-103977988D01*
X206471385Y-104152012D01*
X206452161Y-104248657D01*
X206435050Y-104289965D01*
X206346551Y-104503621D01*
X206193226Y-104733089D01*
X205998089Y-104928226D01*
X205768621Y-105081551D01*
X205619267Y-105143415D01*
X205513657Y-105187161D01*
X205423433Y-105205107D01*
X205242988Y-105241000D01*
X204967012Y-105241000D01*
X204786567Y-105205107D01*
X204696343Y-105187161D01*
X204590733Y-105143415D01*
X204441379Y-105081551D01*
X204211911Y-104928226D01*
X204016774Y-104733089D01*
X203863449Y-104503621D01*
X203774950Y-104289965D01*
X203757839Y-104248657D01*
X203738615Y-104152012D01*
X203704000Y-103977988D01*
X203704000Y-103702012D01*
X203757839Y-103431344D01*
X203772102Y-103396911D01*
X203801585Y-103325733D01*
X203863449Y-103176379D01*
X204016774Y-102946911D01*
X204211911Y-102751774D01*
X204441379Y-102598449D01*
X204598699Y-102533285D01*
X204696343Y-102492839D01*
X204786567Y-102474893D01*
X204967012Y-102439000D01*
X205242988Y-102439000D01*
X205423433Y-102474893D01*
X205423433Y-102474893D01*
G37*
G36*
X94798635Y-102266019D02*
X94979903Y-102302075D01*
X95207571Y-102396378D01*
X95411542Y-102532668D01*
X95412469Y-102533287D01*
X95586713Y-102707531D01*
X95586715Y-102707534D01*
X95723622Y-102912429D01*
X95817925Y-103140097D01*
X95866000Y-103381787D01*
X95866000Y-103628213D01*
X95817925Y-103869903D01*
X95723622Y-104097571D01*
X95622670Y-104248656D01*
X95586713Y-104302469D01*
X95412469Y-104476713D01*
X95412466Y-104476715D01*
X95207571Y-104613622D01*
X94979903Y-104707925D01*
X94798636Y-104743981D01*
X94738214Y-104756000D01*
X94491786Y-104756000D01*
X94431365Y-104743981D01*
X94250097Y-104707925D01*
X94022429Y-104613622D01*
X93817534Y-104476715D01*
X93817531Y-104476713D01*
X93643287Y-104302469D01*
X93607330Y-104248656D01*
X93506378Y-104097571D01*
X93412075Y-103869903D01*
X93364000Y-103628213D01*
X93364000Y-103381787D01*
X93412075Y-103140097D01*
X93506378Y-102912429D01*
X93643285Y-102707534D01*
X93643287Y-102707531D01*
X93817531Y-102533287D01*
X93818458Y-102532668D01*
X94022429Y-102396378D01*
X94250097Y-102302075D01*
X94431364Y-102266019D01*
X94491786Y-102254000D01*
X94738214Y-102254000D01*
X94798635Y-102266019D01*
X94798635Y-102266019D01*
G37*
G36*
X84459032Y-98932621D02*
X84488487Y-98941556D01*
X84515624Y-98956062D01*
X84539414Y-98975586D01*
X84558938Y-98999376D01*
X84573444Y-99026513D01*
X84582379Y-99055968D01*
X84586000Y-99092733D01*
X84586000Y-101567267D01*
X84582379Y-101604032D01*
X84573444Y-101633487D01*
X84558938Y-101660624D01*
X84539414Y-101684414D01*
X84515624Y-101703938D01*
X84488487Y-101718444D01*
X84459032Y-101727379D01*
X84422267Y-101731000D01*
X81947733Y-101731000D01*
X81910968Y-101727379D01*
X81881513Y-101718444D01*
X81854376Y-101703938D01*
X81830586Y-101684414D01*
X81811062Y-101660624D01*
X81796556Y-101633487D01*
X81787621Y-101604032D01*
X81784000Y-101567267D01*
X81784000Y-99092733D01*
X81787621Y-99055968D01*
X81796556Y-99026513D01*
X81811062Y-98999376D01*
X81830586Y-98975586D01*
X81854376Y-98956062D01*
X81881513Y-98941556D01*
X81910968Y-98932621D01*
X81947733Y-98929000D01*
X84422267Y-98929000D01*
X84459032Y-98932621D01*
X84459032Y-98932621D01*
G37*
G36*
X205423433Y-98514893D02*
X205513657Y-98532839D01*
X205619267Y-98576585D01*
X205768621Y-98638449D01*
X205998089Y-98791774D01*
X206193226Y-98986911D01*
X206346551Y-99216379D01*
X206452161Y-99471344D01*
X206506000Y-99742012D01*
X206506000Y-100017988D01*
X206452161Y-100288656D01*
X206346551Y-100543621D01*
X206193226Y-100773089D01*
X205998089Y-100968226D01*
X205768621Y-101121551D01*
X205619267Y-101183415D01*
X205513657Y-101227161D01*
X205423433Y-101245107D01*
X205242988Y-101281000D01*
X204967012Y-101281000D01*
X204786567Y-101245107D01*
X204696343Y-101227161D01*
X204590733Y-101183415D01*
X204441379Y-101121551D01*
X204211911Y-100968226D01*
X204016774Y-100773089D01*
X203863449Y-100543621D01*
X203757839Y-100288656D01*
X203704000Y-100017988D01*
X203704000Y-99742012D01*
X203757839Y-99471344D01*
X203863449Y-99216379D01*
X204016774Y-98986911D01*
X204211911Y-98791774D01*
X204441379Y-98638449D01*
X204590733Y-98576585D01*
X204696343Y-98532839D01*
X204786567Y-98514893D01*
X204967012Y-98479000D01*
X205242988Y-98479000D01*
X205423433Y-98514893D01*
X205423433Y-98514893D01*
G37*
G36*
X206379032Y-94522621D02*
X206408487Y-94531556D01*
X206435624Y-94546062D01*
X206459414Y-94565586D01*
X206478938Y-94589376D01*
X206493444Y-94616513D01*
X206502379Y-94645968D01*
X206506000Y-94682733D01*
X206506000Y-97157267D01*
X206502379Y-97194032D01*
X206493444Y-97223487D01*
X206478938Y-97250624D01*
X206459414Y-97274414D01*
X206435624Y-97293938D01*
X206408487Y-97308444D01*
X206379032Y-97317379D01*
X206342267Y-97321000D01*
X203867733Y-97321000D01*
X203830968Y-97317379D01*
X203801513Y-97308444D01*
X203774376Y-97293938D01*
X203750586Y-97274414D01*
X203731062Y-97250624D01*
X203716556Y-97223487D01*
X203707621Y-97194032D01*
X203704000Y-97157267D01*
X203704000Y-94682733D01*
X203707621Y-94645968D01*
X203716556Y-94616513D01*
X203731062Y-94589376D01*
X203750586Y-94565586D01*
X203774376Y-94546062D01*
X203801513Y-94531556D01*
X203830968Y-94522621D01*
X203867733Y-94519000D01*
X206342267Y-94519000D01*
X206379032Y-94522621D01*
X206379032Y-94522621D01*
G37*
G36*
X181847142Y-91928242D02*
X181995102Y-91989530D01*
X182128258Y-92078502D01*
X182241498Y-92191742D01*
X182330470Y-92324898D01*
X182391758Y-92472858D01*
X182423000Y-92629925D01*
X182423000Y-92790075D01*
X182391758Y-92947142D01*
X182330470Y-93095102D01*
X182241498Y-93228258D01*
X182128258Y-93341498D01*
X181995102Y-93430470D01*
X181847142Y-93491758D01*
X181690075Y-93523000D01*
X181529925Y-93523000D01*
X181372858Y-93491758D01*
X181224898Y-93430470D01*
X181091742Y-93341498D01*
X180978502Y-93228258D01*
X180889530Y-93095102D01*
X180828242Y-92947142D01*
X180797000Y-92790075D01*
X180797000Y-92629925D01*
X180828242Y-92472858D01*
X180889530Y-92324898D01*
X180978502Y-92191742D01*
X181091742Y-92078502D01*
X181224898Y-91989530D01*
X181372858Y-91928242D01*
X181529925Y-91897000D01*
X181690075Y-91897000D01*
X181847142Y-91928242D01*
X181847142Y-91928242D01*
G37*
G36*
X193419485Y-88918996D02*
X193419487Y-88918997D01*
X193419488Y-88918997D01*
X193656255Y-89017069D01*
X193869342Y-89159449D01*
X194050551Y-89340658D01*
X194050553Y-89340661D01*
X194192931Y-89553745D01*
X194288678Y-89784898D01*
X194291004Y-89790515D01*
X194341000Y-90041861D01*
X194341000Y-90298139D01*
X194319318Y-90407143D01*
X194291003Y-90549488D01*
X194233523Y-90688257D01*
X194192931Y-90786255D01*
X194050551Y-90999342D01*
X193869342Y-91180551D01*
X193869339Y-91180553D01*
X193656255Y-91322931D01*
X193419488Y-91421003D01*
X193419487Y-91421003D01*
X193419485Y-91421004D01*
X193168139Y-91471000D01*
X192911861Y-91471000D01*
X192660515Y-91421004D01*
X192660513Y-91421003D01*
X192660512Y-91421003D01*
X192423745Y-91322931D01*
X192210661Y-91180553D01*
X192210658Y-91180551D01*
X192029449Y-90999342D01*
X191887069Y-90786255D01*
X191846477Y-90688257D01*
X191788997Y-90549488D01*
X191760683Y-90407143D01*
X191739000Y-90298139D01*
X191739000Y-90041861D01*
X191788996Y-89790515D01*
X191791323Y-89784898D01*
X191887069Y-89553745D01*
X192029447Y-89340661D01*
X192029449Y-89340658D01*
X192210658Y-89159449D01*
X192423745Y-89017069D01*
X192660512Y-88918997D01*
X192660513Y-88918997D01*
X192660515Y-88918996D01*
X192911861Y-88869000D01*
X193168139Y-88869000D01*
X193419485Y-88918996D01*
X193419485Y-88918996D01*
G37*
G36*
X181847142Y-89388242D02*
X181995102Y-89449530D01*
X182062130Y-89494317D01*
X182128257Y-89538501D01*
X182241499Y-89651743D01*
X182330471Y-89784900D01*
X182332797Y-89790515D01*
X182391758Y-89932858D01*
X182423000Y-90089925D01*
X182423000Y-90250075D01*
X182391758Y-90407142D01*
X182344354Y-90521583D01*
X182332796Y-90549488D01*
X182330470Y-90555102D01*
X182241498Y-90688258D01*
X182128258Y-90801498D01*
X181995102Y-90890470D01*
X181847142Y-90951758D01*
X181690075Y-90983000D01*
X181529925Y-90983000D01*
X181372858Y-90951758D01*
X181224898Y-90890470D01*
X181091742Y-90801498D01*
X180978502Y-90688258D01*
X180889530Y-90555102D01*
X180887205Y-90549488D01*
X180875646Y-90521583D01*
X180828242Y-90407142D01*
X180797000Y-90250075D01*
X180797000Y-90089925D01*
X180828242Y-89932858D01*
X180887203Y-89790515D01*
X180889529Y-89784900D01*
X180978501Y-89651743D01*
X181091743Y-89538501D01*
X181157870Y-89494317D01*
X181224898Y-89449530D01*
X181372858Y-89388242D01*
X181529925Y-89357000D01*
X181690075Y-89357000D01*
X181847142Y-89388242D01*
X181847142Y-89388242D01*
G37*
G36*
X209929485Y-85108996D02*
X209929487Y-85108997D01*
X209929488Y-85108997D01*
X210166255Y-85207069D01*
X210379342Y-85349449D01*
X210560551Y-85530658D01*
X210702931Y-85743745D01*
X210801004Y-85980515D01*
X210851000Y-86231861D01*
X210851000Y-86488139D01*
X210801004Y-86739485D01*
X210702931Y-86976255D01*
X210560551Y-87189342D01*
X210379342Y-87370551D01*
X210379339Y-87370553D01*
X210166255Y-87512931D01*
X209929488Y-87611003D01*
X209929487Y-87611003D01*
X209929485Y-87611004D01*
X209678139Y-87661000D01*
X209421861Y-87661000D01*
X209170515Y-87611004D01*
X209170513Y-87611003D01*
X209170512Y-87611003D01*
X208933745Y-87512931D01*
X208720661Y-87370553D01*
X208720658Y-87370551D01*
X208539449Y-87189342D01*
X208397069Y-86976255D01*
X208298996Y-86739485D01*
X208249000Y-86488139D01*
X208249000Y-86231861D01*
X208298996Y-85980515D01*
X208397069Y-85743745D01*
X208539449Y-85530658D01*
X208720658Y-85349449D01*
X208933745Y-85207069D01*
X209170512Y-85108997D01*
X209170513Y-85108997D01*
X209170515Y-85108996D01*
X209421861Y-85059000D01*
X209678139Y-85059000D01*
X209929485Y-85108996D01*
X209929485Y-85108996D01*
G37*
G36*
X201039485Y-85108996D02*
X201039487Y-85108997D01*
X201039488Y-85108997D01*
X201276255Y-85207069D01*
X201489342Y-85349449D01*
X201670551Y-85530658D01*
X201812931Y-85743745D01*
X201911004Y-85980515D01*
X201961000Y-86231861D01*
X201961000Y-86488139D01*
X201911004Y-86739485D01*
X201812931Y-86976255D01*
X201670551Y-87189342D01*
X201489342Y-87370551D01*
X201489339Y-87370553D01*
X201276255Y-87512931D01*
X201039488Y-87611003D01*
X201039487Y-87611003D01*
X201039485Y-87611004D01*
X200788139Y-87661000D01*
X200531861Y-87661000D01*
X200280515Y-87611004D01*
X200280513Y-87611003D01*
X200280512Y-87611003D01*
X200043745Y-87512931D01*
X199830661Y-87370553D01*
X199830658Y-87370551D01*
X199649449Y-87189342D01*
X199507069Y-86976255D01*
X199408996Y-86739485D01*
X199359000Y-86488139D01*
X199359000Y-86231861D01*
X199408996Y-85980515D01*
X199507069Y-85743745D01*
X199649449Y-85530658D01*
X199830658Y-85349449D01*
X200043745Y-85207069D01*
X200280512Y-85108997D01*
X200280513Y-85108997D01*
X200280515Y-85108996D01*
X200531861Y-85059000D01*
X200788139Y-85059000D01*
X201039485Y-85108996D01*
X201039485Y-85108996D01*
G37*
G36*
X186036000Y-85706000D02*
X183534000Y-85706000D01*
X183534000Y-83204000D01*
X186036000Y-83204000D01*
X186036000Y-85706000D01*
X186036000Y-85706000D01*
G37*
G36*
X94798635Y-79766019D02*
X94979903Y-79802075D01*
X95207571Y-79896378D01*
X95411542Y-80032668D01*
X95412469Y-80033287D01*
X95586713Y-80207531D01*
X95586715Y-80207534D01*
X95723622Y-80412429D01*
X95817925Y-80640097D01*
X95866000Y-80881787D01*
X95866000Y-81128213D01*
X95817925Y-81369903D01*
X95723622Y-81597571D01*
X95587332Y-81801542D01*
X95586713Y-81802469D01*
X95412469Y-81976713D01*
X95412466Y-81976715D01*
X95207571Y-82113622D01*
X94979903Y-82207925D01*
X94798635Y-82243981D01*
X94738214Y-82256000D01*
X94491786Y-82256000D01*
X94431365Y-82243981D01*
X94250097Y-82207925D01*
X94022429Y-82113622D01*
X93817534Y-81976715D01*
X93817531Y-81976713D01*
X93643287Y-81802469D01*
X93642668Y-81801542D01*
X93506378Y-81597571D01*
X93412075Y-81369903D01*
X93364000Y-81128213D01*
X93364000Y-80881787D01*
X93412075Y-80640097D01*
X93506378Y-80412429D01*
X93643285Y-80207534D01*
X93643287Y-80207531D01*
X93817531Y-80033287D01*
X93818458Y-80032668D01*
X94022429Y-79896378D01*
X94250097Y-79802075D01*
X94431365Y-79766019D01*
X94491786Y-79754000D01*
X94738214Y-79754000D01*
X94798635Y-79766019D01*
X94798635Y-79766019D01*
G37*
G36*
X95889032Y-72897621D02*
X95918487Y-72906556D01*
X95945624Y-72921062D01*
X95969414Y-72940586D01*
X95988938Y-72964376D01*
X96003444Y-72991513D01*
X96012379Y-73020968D01*
X96016000Y-73057733D01*
X96016000Y-75532267D01*
X96012379Y-75569032D01*
X96003444Y-75598487D01*
X95988938Y-75625624D01*
X95969414Y-75649414D01*
X95945624Y-75668938D01*
X95918487Y-75683444D01*
X95889032Y-75692379D01*
X95852267Y-75696000D01*
X93377733Y-75696000D01*
X93340968Y-75692379D01*
X93311513Y-75683444D01*
X93284376Y-75668938D01*
X93260586Y-75649414D01*
X93241062Y-75625624D01*
X93226556Y-75598487D01*
X93217621Y-75569032D01*
X93214000Y-75532267D01*
X93214000Y-73057733D01*
X93217621Y-73020968D01*
X93226556Y-72991513D01*
X93241062Y-72964376D01*
X93260586Y-72940586D01*
X93284376Y-72921062D01*
X93311513Y-72906556D01*
X93340968Y-72897621D01*
X93377733Y-72894000D01*
X95852267Y-72894000D01*
X95889032Y-72897621D01*
X95889032Y-72897621D01*
G37*
G36*
X199136000Y-72771000D02*
X195834000Y-72771000D01*
X195834000Y-69469000D01*
X199136000Y-69469000D01*
X199136000Y-72771000D01*
X199136000Y-72771000D01*
G37*
G36*
X94933433Y-68969893D02*
X95023657Y-68987839D01*
X95129267Y-69031585D01*
X95278621Y-69093449D01*
X95508089Y-69246774D01*
X95703226Y-69441911D01*
X95856551Y-69671379D01*
X95962161Y-69926344D01*
X96016000Y-70197012D01*
X96016000Y-70472988D01*
X95962161Y-70743656D01*
X95856551Y-70998621D01*
X95703226Y-71228089D01*
X95508089Y-71423226D01*
X95278621Y-71576551D01*
X95129267Y-71638415D01*
X95023657Y-71682161D01*
X94933433Y-71700107D01*
X94752988Y-71736000D01*
X94477012Y-71736000D01*
X94296567Y-71700107D01*
X94206343Y-71682161D01*
X94100733Y-71638415D01*
X93951379Y-71576551D01*
X93721911Y-71423226D01*
X93526774Y-71228089D01*
X93373449Y-70998621D01*
X93267839Y-70743656D01*
X93214000Y-70472988D01*
X93214000Y-70197012D01*
X93267839Y-69926344D01*
X93373449Y-69671379D01*
X93526774Y-69441911D01*
X93721911Y-69246774D01*
X93951379Y-69093449D01*
X94100733Y-69031585D01*
X94206343Y-68987839D01*
X94296567Y-68969893D01*
X94477012Y-68934000D01*
X94752988Y-68934000D01*
X94933433Y-68969893D01*
X94933433Y-68969893D01*
G37*
G36*
X205245562Y-67820681D02*
X205280477Y-67831273D01*
X205312665Y-67848478D01*
X205340873Y-67871627D01*
X205364022Y-67899835D01*
X205381227Y-67932023D01*
X205391819Y-67966938D01*
X205396000Y-68009395D01*
X205396000Y-69150605D01*
X205391819Y-69193062D01*
X205381227Y-69227977D01*
X205364022Y-69260165D01*
X205340873Y-69288373D01*
X205312665Y-69311522D01*
X205280477Y-69328727D01*
X205245562Y-69339319D01*
X205203105Y-69343500D01*
X203736895Y-69343500D01*
X203694438Y-69339319D01*
X203659523Y-69328727D01*
X203627335Y-69311522D01*
X203599127Y-69288373D01*
X203575978Y-69260165D01*
X203558773Y-69227977D01*
X203548181Y-69193062D01*
X203544000Y-69150605D01*
X203544000Y-68009395D01*
X203548181Y-67966938D01*
X203558773Y-67932023D01*
X203575978Y-67899835D01*
X203599127Y-67871627D01*
X203627335Y-67848478D01*
X203659523Y-67831273D01*
X203694438Y-67820681D01*
X203736895Y-67816500D01*
X205203105Y-67816500D01*
X205245562Y-67820681D01*
X205245562Y-67820681D01*
G37*
G36*
X94918267Y-65006876D02*
X95023657Y-65027839D01*
X95039484Y-65034395D01*
X95278621Y-65133449D01*
X95508089Y-65286774D01*
X95703226Y-65481911D01*
X95856551Y-65711379D01*
X95918415Y-65860733D01*
X95925316Y-65877391D01*
X95962161Y-65966344D01*
X96016000Y-66237012D01*
X96016000Y-66512988D01*
X95962161Y-66783656D01*
X95856551Y-67038621D01*
X95703226Y-67268089D01*
X95508089Y-67463226D01*
X95278621Y-67616551D01*
X95129267Y-67678415D01*
X95023657Y-67722161D01*
X94933433Y-67740107D01*
X94752988Y-67776000D01*
X94477012Y-67776000D01*
X94296567Y-67740107D01*
X94206343Y-67722161D01*
X94100733Y-67678415D01*
X93951379Y-67616551D01*
X93721911Y-67463226D01*
X93526774Y-67268089D01*
X93373449Y-67038621D01*
X93267839Y-66783656D01*
X93214000Y-66512988D01*
X93214000Y-66237012D01*
X93267839Y-65966344D01*
X93304685Y-65877391D01*
X93311585Y-65860733D01*
X93373449Y-65711379D01*
X93526774Y-65481911D01*
X93721911Y-65286774D01*
X93951379Y-65133449D01*
X94190516Y-65034395D01*
X94206343Y-65027839D01*
X94311733Y-65006876D01*
X94477012Y-64974000D01*
X94752988Y-64974000D01*
X94918267Y-65006876D01*
X94918267Y-65006876D01*
G37*
G36*
X197860256Y-64431298D02*
X197966579Y-64452447D01*
X198267042Y-64576903D01*
X198533852Y-64755180D01*
X198537454Y-64757587D01*
X198767413Y-64987546D01*
X198767415Y-64987549D01*
X198948097Y-65257958D01*
X199040863Y-65481914D01*
X199072553Y-65558422D01*
X199136000Y-65877389D01*
X199136000Y-66202611D01*
X199072553Y-66521578D01*
X198948098Y-66822040D01*
X198767413Y-67092454D01*
X198537454Y-67322413D01*
X198537451Y-67322415D01*
X198267042Y-67503097D01*
X197966579Y-67627553D01*
X197860256Y-67648702D01*
X197647611Y-67691000D01*
X197322389Y-67691000D01*
X197109744Y-67648702D01*
X197003421Y-67627553D01*
X196702958Y-67503097D01*
X196432549Y-67322415D01*
X196432546Y-67322413D01*
X196202587Y-67092454D01*
X196021902Y-66822040D01*
X195897447Y-66521578D01*
X195834000Y-66202611D01*
X195834000Y-65877389D01*
X195897447Y-65558422D01*
X195929138Y-65481914D01*
X196021903Y-65257958D01*
X196202585Y-64987549D01*
X196202587Y-64987546D01*
X196432546Y-64757587D01*
X196436148Y-64755180D01*
X196702958Y-64576903D01*
X197003421Y-64452447D01*
X197109744Y-64431298D01*
X197322389Y-64389000D01*
X197647611Y-64389000D01*
X197860256Y-64431298D01*
X197860256Y-64431298D01*
G37*
G36*
X205245562Y-64845681D02*
X205280477Y-64856273D01*
X205312665Y-64873478D01*
X205340873Y-64896627D01*
X205364022Y-64924835D01*
X205381227Y-64957023D01*
X205391819Y-64991938D01*
X205396000Y-65034395D01*
X205396000Y-66175605D01*
X205391819Y-66218062D01*
X205381227Y-66252977D01*
X205364022Y-66285165D01*
X205340873Y-66313373D01*
X205312665Y-66336522D01*
X205280477Y-66353727D01*
X205245562Y-66364319D01*
X205203105Y-66368500D01*
X203736895Y-66368500D01*
X203694438Y-66364319D01*
X203659523Y-66353727D01*
X203627335Y-66336522D01*
X203599127Y-66313373D01*
X203575978Y-66285165D01*
X203558773Y-66252977D01*
X203548181Y-66218062D01*
X203544000Y-66175605D01*
X203544000Y-65034395D01*
X203548181Y-64991938D01*
X203558773Y-64957023D01*
X203575978Y-64924835D01*
X203599127Y-64896627D01*
X203627335Y-64873478D01*
X203659523Y-64856273D01*
X203694438Y-64845681D01*
X203736895Y-64841500D01*
X205203105Y-64841500D01*
X205245562Y-64845681D01*
X205245562Y-64845681D01*
G37*
G36*
X106917142Y-62718242D02*
X107065102Y-62779530D01*
X107198258Y-62868502D01*
X107311498Y-62981742D01*
X107400470Y-63114898D01*
X107461758Y-63262858D01*
X107493000Y-63419925D01*
X107493000Y-63580075D01*
X107461758Y-63737142D01*
X107400470Y-63885102D01*
X107311498Y-64018258D01*
X107198258Y-64131498D01*
X107065102Y-64220470D01*
X106917142Y-64281758D01*
X106760075Y-64313000D01*
X106599925Y-64313000D01*
X106442858Y-64281758D01*
X106294898Y-64220470D01*
X106161742Y-64131498D01*
X106048502Y-64018258D01*
X105959530Y-63885102D01*
X105898242Y-63737142D01*
X105867000Y-63580075D01*
X105867000Y-63419925D01*
X105898242Y-63262858D01*
X105959530Y-63114898D01*
X106048502Y-62981742D01*
X106161742Y-62868502D01*
X106294898Y-62779530D01*
X106442858Y-62718242D01*
X106599925Y-62687000D01*
X106760075Y-62687000D01*
X106917142Y-62718242D01*
X106917142Y-62718242D01*
G37*
G36*
X94884071Y-61040074D02*
X95023657Y-61067839D01*
X95129267Y-61111585D01*
X95278621Y-61173449D01*
X95508089Y-61326774D01*
X95703226Y-61521911D01*
X95856551Y-61751379D01*
X95918415Y-61900733D01*
X95962161Y-62006343D01*
X95980107Y-62096567D01*
X96016000Y-62277012D01*
X96016000Y-62552988D01*
X95962161Y-62823656D01*
X95856551Y-63078621D01*
X95703226Y-63308089D01*
X95508089Y-63503226D01*
X95278621Y-63656551D01*
X95129267Y-63718415D01*
X95023657Y-63762161D01*
X94933433Y-63780107D01*
X94752988Y-63816000D01*
X94477012Y-63816000D01*
X94296567Y-63780107D01*
X94206343Y-63762161D01*
X94100733Y-63718415D01*
X93951379Y-63656551D01*
X93721911Y-63503226D01*
X93526774Y-63308089D01*
X93373449Y-63078621D01*
X93267839Y-62823656D01*
X93214000Y-62552988D01*
X93214000Y-62277012D01*
X93249893Y-62096567D01*
X93267839Y-62006343D01*
X93311585Y-61900733D01*
X93373449Y-61751379D01*
X93526774Y-61521911D01*
X93721911Y-61326774D01*
X93951379Y-61173449D01*
X94100733Y-61111585D01*
X94206343Y-61067839D01*
X94345929Y-61040074D01*
X94477012Y-61014000D01*
X94752988Y-61014000D01*
X94884071Y-61040074D01*
X94884071Y-61040074D01*
G37*
G36*
X197844108Y-59348086D02*
X197966579Y-59372447D01*
X198267042Y-59496903D01*
X198336369Y-59543226D01*
X198537454Y-59677587D01*
X198767413Y-59907546D01*
X198948098Y-60177960D01*
X199072553Y-60478422D01*
X199136000Y-60797389D01*
X199136000Y-61122611D01*
X199072553Y-61441578D01*
X198948098Y-61742040D01*
X198767413Y-62012454D01*
X198537454Y-62242413D01*
X198537451Y-62242415D01*
X198267042Y-62423097D01*
X197966579Y-62547553D01*
X197939265Y-62552986D01*
X197647611Y-62611000D01*
X197322389Y-62611000D01*
X197030735Y-62552986D01*
X197003421Y-62547553D01*
X196702958Y-62423097D01*
X196432549Y-62242415D01*
X196432546Y-62242413D01*
X196202587Y-62012454D01*
X196021902Y-61742040D01*
X195897447Y-61441578D01*
X195834000Y-61122611D01*
X195834000Y-60797389D01*
X195897447Y-60478422D01*
X196021902Y-60177960D01*
X196202587Y-59907546D01*
X196432546Y-59677587D01*
X196633631Y-59543226D01*
X196702958Y-59496903D01*
X197003421Y-59372447D01*
X197125892Y-59348086D01*
X197322389Y-59309000D01*
X197647611Y-59309000D01*
X197844108Y-59348086D01*
X197844108Y-59348086D01*
G37*
G36*
X172957142Y-60178242D02*
X173105102Y-60239530D01*
X173238258Y-60328502D01*
X173351498Y-60441742D01*
X173440470Y-60574898D01*
X173501758Y-60722858D01*
X173533000Y-60879925D01*
X173533000Y-61040075D01*
X173501758Y-61197142D01*
X173440470Y-61345102D01*
X173351498Y-61478258D01*
X173238258Y-61591498D01*
X173105102Y-61680470D01*
X172957142Y-61741758D01*
X172800075Y-61773000D01*
X172639925Y-61773000D01*
X172482858Y-61741758D01*
X172334898Y-61680470D01*
X172201742Y-61591498D01*
X172088502Y-61478258D01*
X171999530Y-61345102D01*
X171938242Y-61197142D01*
X171907000Y-61040075D01*
X171907000Y-60879925D01*
X171938242Y-60722858D01*
X171999530Y-60574898D01*
X172088502Y-60441742D01*
X172201742Y-60328502D01*
X172334898Y-60239530D01*
X172482858Y-60178242D01*
X172639925Y-60147000D01*
X172800075Y-60147000D01*
X172957142Y-60178242D01*
X172957142Y-60178242D01*
G37*
G36*
X212385256Y-56811298D02*
X212491579Y-56832447D01*
X212792042Y-56956903D01*
X213017933Y-57107839D01*
X213062454Y-57137587D01*
X213292413Y-57367546D01*
X213473098Y-57637960D01*
X213597553Y-57938422D01*
X213661000Y-58257389D01*
X213661000Y-58582611D01*
X213597553Y-58901578D01*
X213473098Y-59202040D01*
X213292413Y-59472454D01*
X213062454Y-59702413D01*
X213062451Y-59702415D01*
X212792042Y-59883097D01*
X212491579Y-60007553D01*
X212385256Y-60028702D01*
X212172611Y-60071000D01*
X211847389Y-60071000D01*
X211634744Y-60028702D01*
X211528421Y-60007553D01*
X211227958Y-59883097D01*
X210957549Y-59702415D01*
X210957546Y-59702413D01*
X210727587Y-59472454D01*
X210546902Y-59202040D01*
X210422447Y-58901578D01*
X210359000Y-58582611D01*
X210359000Y-58257389D01*
X210422447Y-57938422D01*
X210546902Y-57637960D01*
X210727587Y-57367546D01*
X210957546Y-57137587D01*
X211002067Y-57107839D01*
X211227958Y-56956903D01*
X211528421Y-56832447D01*
X211634744Y-56811298D01*
X211847389Y-56769000D01*
X212172611Y-56769000D01*
X212385256Y-56811298D01*
X212385256Y-56811298D01*
G37*
G36*
X80385256Y-56811298D02*
X80491579Y-56832447D01*
X80792042Y-56956903D01*
X81017933Y-57107839D01*
X81062454Y-57137587D01*
X81292413Y-57367546D01*
X81473098Y-57637960D01*
X81597553Y-57938422D01*
X81661000Y-58257389D01*
X81661000Y-58582611D01*
X81597553Y-58901578D01*
X81473098Y-59202040D01*
X81292413Y-59472454D01*
X81062454Y-59702413D01*
X81062451Y-59702415D01*
X80792042Y-59883097D01*
X80491579Y-60007553D01*
X80385256Y-60028702D01*
X80172611Y-60071000D01*
X79847389Y-60071000D01*
X79634744Y-60028702D01*
X79528421Y-60007553D01*
X79227958Y-59883097D01*
X78957549Y-59702415D01*
X78957546Y-59702413D01*
X78727587Y-59472454D01*
X78546902Y-59202040D01*
X78422447Y-58901578D01*
X78359000Y-58582611D01*
X78359000Y-58257389D01*
X78422447Y-57938422D01*
X78546902Y-57637960D01*
X78727587Y-57367546D01*
X78957546Y-57137587D01*
X79002067Y-57107839D01*
X79227958Y-56956903D01*
X79528421Y-56832447D01*
X79634744Y-56811298D01*
X79847389Y-56769000D01*
X80172611Y-56769000D01*
X80385256Y-56811298D01*
X80385256Y-56811298D01*
G37*
G36*
X94933433Y-57089893D02*
X95023657Y-57107839D01*
X95095469Y-57137585D01*
X95278621Y-57213449D01*
X95508089Y-57366774D01*
X95703226Y-57561911D01*
X95856551Y-57791379D01*
X95962161Y-58046344D01*
X96016000Y-58317012D01*
X96016000Y-58592988D01*
X95962161Y-58863656D01*
X95856551Y-59118621D01*
X95703226Y-59348089D01*
X95508089Y-59543226D01*
X95278621Y-59696551D01*
X95129267Y-59758415D01*
X95023657Y-59802161D01*
X94933433Y-59820107D01*
X94752988Y-59856000D01*
X94477012Y-59856000D01*
X94296567Y-59820107D01*
X94206343Y-59802161D01*
X94100733Y-59758415D01*
X93951379Y-59696551D01*
X93721911Y-59543226D01*
X93526774Y-59348089D01*
X93373449Y-59118621D01*
X93267839Y-58863656D01*
X93214000Y-58592988D01*
X93214000Y-58317012D01*
X93267839Y-58046344D01*
X93373449Y-57791379D01*
X93526774Y-57561911D01*
X93721911Y-57366774D01*
X93951379Y-57213449D01*
X94134531Y-57137585D01*
X94206343Y-57107839D01*
X94296567Y-57089893D01*
X94477012Y-57054000D01*
X94752988Y-57054000D01*
X94933433Y-57089893D01*
X94933433Y-57089893D01*
G37*
G36*
X197860256Y-54271298D02*
X197966579Y-54292447D01*
X198267042Y-54416903D01*
X198324058Y-54455000D01*
X198537454Y-54597587D01*
X198767413Y-54827546D01*
X198767415Y-54827549D01*
X198839917Y-54936055D01*
X198948098Y-55097960D01*
X198973225Y-55158622D01*
X199049958Y-55343871D01*
X199072553Y-55398422D01*
X199136000Y-55717389D01*
X199136000Y-56042611D01*
X199072553Y-56361578D01*
X198948098Y-56662040D01*
X198767413Y-56932454D01*
X198537454Y-57162413D01*
X198537451Y-57162415D01*
X198267042Y-57343097D01*
X197966579Y-57467553D01*
X197860256Y-57488702D01*
X197647611Y-57531000D01*
X197322389Y-57531000D01*
X197109744Y-57488702D01*
X197003421Y-57467553D01*
X196702958Y-57343097D01*
X196432549Y-57162415D01*
X196432546Y-57162413D01*
X196202587Y-56932454D01*
X196021902Y-56662040D01*
X195897447Y-56361578D01*
X195834000Y-56042611D01*
X195834000Y-55717389D01*
X195897447Y-55398422D01*
X195920043Y-55343871D01*
X195996775Y-55158622D01*
X196021902Y-55097960D01*
X196130084Y-54936055D01*
X196202585Y-54827549D01*
X196202587Y-54827546D01*
X196432546Y-54597587D01*
X196645942Y-54455000D01*
X196702958Y-54416903D01*
X197003421Y-54292447D01*
X197109744Y-54271298D01*
X197322389Y-54229000D01*
X197647611Y-54229000D01*
X197860256Y-54271298D01*
X197860256Y-54271298D01*
G37*
G36*
X172957142Y-55098242D02*
X173105102Y-55159530D01*
X173172130Y-55204317D01*
X173238257Y-55248501D01*
X173351499Y-55361743D01*
X173369103Y-55388089D01*
X173440470Y-55494898D01*
X173501758Y-55642858D01*
X173533000Y-55799925D01*
X173533000Y-55960075D01*
X173501758Y-56117142D01*
X173440470Y-56265102D01*
X173351498Y-56398258D01*
X173238258Y-56511498D01*
X173105102Y-56600470D01*
X172957142Y-56661758D01*
X172800075Y-56693000D01*
X172639925Y-56693000D01*
X172482858Y-56661758D01*
X172334898Y-56600470D01*
X172201742Y-56511498D01*
X172088502Y-56398258D01*
X171999530Y-56265102D01*
X171938242Y-56117142D01*
X171907000Y-55960075D01*
X171907000Y-55799925D01*
X171938242Y-55642858D01*
X171999530Y-55494898D01*
X172070897Y-55388089D01*
X172088501Y-55361743D01*
X172201743Y-55248501D01*
X172267870Y-55204317D01*
X172334898Y-55159530D01*
X172482858Y-55098242D01*
X172639925Y-55067000D01*
X172800075Y-55067000D01*
X172957142Y-55098242D01*
X172957142Y-55098242D01*
G37*
G36*
X106917142Y-55098242D02*
X107065102Y-55159530D01*
X107132130Y-55204317D01*
X107198257Y-55248501D01*
X107311499Y-55361743D01*
X107329103Y-55388089D01*
X107400470Y-55494898D01*
X107461758Y-55642858D01*
X107493000Y-55799925D01*
X107493000Y-55960075D01*
X107461758Y-56117142D01*
X107400470Y-56265102D01*
X107311498Y-56398258D01*
X107198258Y-56511498D01*
X107065102Y-56600470D01*
X106917142Y-56661758D01*
X106760075Y-56693000D01*
X106599925Y-56693000D01*
X106442858Y-56661758D01*
X106294898Y-56600470D01*
X106161742Y-56511498D01*
X106048502Y-56398258D01*
X105959530Y-56265102D01*
X105898242Y-56117142D01*
X105867000Y-55960075D01*
X105867000Y-55799925D01*
X105898242Y-55642858D01*
X105959530Y-55494898D01*
X106030897Y-55388089D01*
X106048501Y-55361743D01*
X106161743Y-55248501D01*
X106227870Y-55204317D01*
X106294898Y-55159530D01*
X106442858Y-55098242D01*
X106599925Y-55067000D01*
X106760075Y-55067000D01*
X106917142Y-55098242D01*
X106917142Y-55098242D01*
G37*
G36*
X94933433Y-53129893D02*
X95023657Y-53147839D01*
X95129267Y-53191585D01*
X95278621Y-53253449D01*
X95508089Y-53406774D01*
X95703226Y-53601911D01*
X95856551Y-53831379D01*
X95962161Y-54086344D01*
X96016000Y-54357012D01*
X96016000Y-54632988D01*
X95962161Y-54903656D01*
X95856551Y-55158621D01*
X95703226Y-55388089D01*
X95508089Y-55583226D01*
X95278621Y-55736551D01*
X95129267Y-55798415D01*
X95023657Y-55842161D01*
X94933433Y-55860107D01*
X94752988Y-55896000D01*
X94477012Y-55896000D01*
X94296567Y-55860107D01*
X94206343Y-55842161D01*
X94100733Y-55798415D01*
X93951379Y-55736551D01*
X93721911Y-55583226D01*
X93526774Y-55388089D01*
X93373449Y-55158621D01*
X93267839Y-54903656D01*
X93214000Y-54632988D01*
X93214000Y-54357012D01*
X93267839Y-54086344D01*
X93373449Y-53831379D01*
X93526774Y-53601911D01*
X93721911Y-53406774D01*
X93951379Y-53253449D01*
X94100733Y-53191585D01*
X94206343Y-53147839D01*
X94296567Y-53129893D01*
X94477012Y-53094000D01*
X94752988Y-53094000D01*
X94933433Y-53129893D01*
X94933433Y-53129893D01*
G37*
G36*
X185030239Y-53222101D02*
X185266053Y-53293634D01*
X185483381Y-53409799D01*
X185673871Y-53566129D01*
X185830201Y-53756619D01*
X185946366Y-53973947D01*
X186017899Y-54209761D01*
X186042053Y-54455000D01*
X186017899Y-54700239D01*
X185946366Y-54936053D01*
X185830201Y-55153381D01*
X185673871Y-55343871D01*
X185483381Y-55500201D01*
X185266053Y-55616366D01*
X185030239Y-55687899D01*
X184846457Y-55706000D01*
X184723543Y-55706000D01*
X184539761Y-55687899D01*
X184303947Y-55616366D01*
X184086619Y-55500201D01*
X183896129Y-55343871D01*
X183739799Y-55153381D01*
X183623634Y-54936053D01*
X183552101Y-54700239D01*
X183527947Y-54455000D01*
X183552101Y-54209761D01*
X183623634Y-53973947D01*
X183739799Y-53756619D01*
X183896129Y-53566129D01*
X184086619Y-53409799D01*
X184303947Y-53293634D01*
X184539761Y-53222101D01*
X184723543Y-53204000D01*
X184846457Y-53204000D01*
X185030239Y-53222101D01*
X185030239Y-53222101D01*
G37*
M02*
